<?xml version="1.0" encoding="utf-8"?>
<!-- Generator: Adobe Illustrator 22.1.0, SVG Export Plug-In . SVG Version: 6.00 Build 0)  -->
<svg version="1.1" id="Layer_1" xmlns="http://www.w3.org/2000/svg" xmlns:xlink="http://www.w3.org/1999/xlink" x="0px" y="0px"
	 viewBox="0 0 396.9 396.9" style="enable-background:new 0 0 396.9 396.9;" xml:space="preserve">
<style type="text/css">
	.st0{fill:url(#SVGID_1_);}
	.st1{fill:#4C7BFF;}
	.st2{fill:#F7931E;stroke:#000000;stroke-width:11;stroke-miterlimit:10;}
	.st3{fill:#F7931E;stroke:#000000;stroke-width:8;stroke-miterlimit:10;}
	.st4{fill:#F9CB31;}
	.st5{fill:#EB1E6F;}
	.st6{fill:#FA1E57;}
	.st7{fill:#4C7BFB;}
	.st8{fill:none;stroke:#000000;stroke-width:9;stroke-linecap:round;stroke-linejoin:round;stroke-miterlimit:10;}
</style>
<path d="M60.8,225.6c-0.2-0.2-0.3-0.4-0.4-0.7C60.5,225.2,60.6,225.4,60.8,225.6z"/>
<linearGradient id="SVGID_1_" gradientUnits="userSpaceOnUse" x1="112.9574" y1="319.5356" x2="257.0401" y2="69.977" gradientTransform="matrix(1 0 0 -1 0 397.1496)">
	<stop  offset="0" style="stop-color:#EF645E"/>
	<stop  offset="1" style="stop-color:#EB1E6F"/>
</linearGradient>
<path class="st0" d="M330.7,284.7c11-21.4,17.2-45.7,17.2-71.4c0-86.5-70.1-156.6-156.6-156.6S34.7,126.8,34.7,213.3
	c0,49.7,23.2,94,59.3,122.7c3.2-27.8,5.2-52.4,4.3-56.6c-5.5-25.9-21-28.6-10.5-74.2c21.7-94.3,92.1-106.5,130.1-97.6
	c29.7,6.9,52.5,30.1,65.6,69.2c13,38.9,10,59.1,5.2,72.2c-1.4,3.9-1.2,3.6,18.9,18.3C315.9,273.4,323.5,278.9,330.7,284.7"/>
<path d="M93.5,340c-0.9,0-1.8-0.3-2.5-0.9c-38.6-30.7-60.8-76.6-60.8-125.9c0-88.6,72.1-160.6,160.6-160.6s160.6,72.1,160.6,160.6
	c0,25.8-5.9,50.5-17.7,73.3c-0.6,1.1-1.6,1.9-2.8,2.1c-1.2,0.2-2.4,0-3.4-0.8c-6.3-5.1-13-10-20.2-15.3l-7.6-5.5
	c-8.1-5.9-11.7-8.6-13.8-10.7c-3.3-3.4-2.6-6.2-1.7-8.7c4.1-11,8-30.3-5.2-69.5c-12.4-36.9-34-59.9-62.7-66.6
	c-9.1-2.1-41.1-7.5-73.1,12.4C117.4,140,99.8,167.6,91,206c-6.9,30-2.2,40.3,3.3,52.1c2.5,5.5,5.4,11.8,7.2,20.3
	c1.3,6.3-2.5,42.6-4.3,57.9c-0.2,1.5-1.1,2.7-2.5,3.3C94.5,339.9,94,340,93.5,340z M190.8,60.7c-84.1,0-152.6,68.4-152.6,152.6
	c0,44.3,18.9,85.8,52.1,114.8c3.1-28.1,4.1-45.2,3.6-47.9c-1.6-7.6-4.2-13.2-6.7-18.6c-5.8-12.7-11.4-24.6-3.8-57.3
	c9.3-40.6,28.1-69.9,55.8-87.2c23.3-14.5,52.9-19.6,79.2-13.4c31.5,7.4,55.2,32.2,68.5,71.9c14,41.7,9.6,62.7,5.1,74.9
	c0,0.1-0.1,0.2-0.1,0.3c1.3,1.5,6,4.9,12.7,9.8l7.6,5.5c5.8,4.2,11.3,8.3,16.6,12.4c9.7-20.4,14.6-42.3,14.6-65.2
	C343.3,129.1,274.9,60.7,190.8,60.7z"/>
<path d="M205.4,248.4c-4,0-7.7-3.8-11.7-11.9c-3.4-6.7-6.6-15.8-9.5-26.3c-2.9-10.7-4.1-21.1-3.8-32.8c0.3-12.8,3.5-17.1,4.5-18.1
	c0,0,0,0,0.1-0.1c0.5-0.5,11.5-11.4,31-7.9c19.2,3.5,19.8,13.9,20.2,20.1c0,0.5,0.1,1.1,0.1,1.6c1.2,14-10.8,58.1-22.5,70.9
	C210.9,247,208.2,248.4,205.4,248.4L205.4,248.4z M190.8,164.8c-0.4,0.6-2.1,4-2.3,12.9c-0.3,10.9,0.9,20.6,3.5,30.5
	c5.6,20.9,11.5,30.4,13.7,32.1c2.1-0.9,7.9-8.1,14.3-27.4c5.2-15.4,8.6-32.2,8-39c0-0.6-0.1-1.2-0.1-1.8
	c-0.3-5.5-0.6-10.3-13.5-12.6C200.3,156.8,192.1,163.6,190.8,164.8z M190.7,164.9C190.7,164.9,190.6,165,190.7,164.9
	C190.6,165,190.7,164.9,190.7,164.9z M190.7,164.9L190.7,164.9L190.7,164.9z"/>
<path d="M163.9,303.4c-0.1,0-0.1,0-0.2,0c-32.7-1.4-56.5-12-70.7-31.6c-15.1-20.9-15.2-46.9-10.7-62.9c0.6-2.1,2.8-3.4,5-2.8
	c2.1,0.6,3.4,2.8,2.8,5c-3.2,11.5-4.9,36.1,9.5,56c12.6,17.5,34.3,27,64.5,28.3c2.2,0.1,4,2,3.9,4.2
	C167.8,301.7,166,303.4,163.9,303.4z"/>
<path d="M69.4,141.9h255.7c0,0-22.6,39.2-59.5,42c-20.7,1.6-36.1-16.7-44.8-24.2c-6.5-5.7-12.6-6.9-26.6,0
	c-9.5,4.7-9.2,14-31.5,21.8c-2.5,0.9-40.2,10.7-64.9-6.8c-3.6-2.6-15-9.6-22.8-19.9C67.5,144.7,69.6,142.1,69.4,141.9"/>
<path class="st1" d="M232.5,337l-6.3-4l3.2,2l-3.2-2c1.2-1.9,4-7.8,2.7-12.2c-0.6-2.1-2.1-3.7-4.7-4.9c-2.4-1.2-5-2.1-7.4-3
	c-6.2-2.3-12.1-4.4-13-9.8c-0.8-5.1,3.2-10.7,14-19.3c1.7-1.4,3-2.5,4-3.4c-2.1,0.4-5.2,1.1-9.8,2.5c-7.8,2.4-16.1-1.3-19.4-8.6
	c-2.4-5.4-2.7-13.6,9.6-22.2l4.3,6.1c-9.8,6.9-7.7,11.5-7.1,13c1.7,3.8,6.2,5.8,10.4,4.5c13.6-4.2,19.4-4.2,21.5-0.2
	c2.2,4.1-1.8,8.5-8.9,14.2c-11.6,9.3-11.3,12.1-11.3,12.2c0.2,1.1,5.6,3,8.1,4c2.5,0.9,5.4,1.9,8.1,3.3c4.5,2.1,7.4,5.5,8.6,9.6
	C238.6,327.2,233.1,336,232.5,337z"/>
<g>
	<path class="st2" d="M290.3,295.8c-13.6-13.1-24.5-18.6-32-20.9c-5.7-1.8-11.8,1.4-13.8,7.1l-28.4,82.8c-1.6,4.5-0.3,9.7,3.5,12.6
		c1.8,1.4,4.3,2.3,7.5,1.9c10-1.3,89.1-45.9,89.1-45.9C319.5,331.5,316.6,321.2,290.3,295.8z"/>
	<g>
		<path class="st3" d="M291.8,295.8c-15.3-14.4-27.3-19.7-34.9-21.6c-3.9-1-7,3.2-5,6.7c15.7,26.1,45.1,42.6,58.9,49.3
			c4,1.9,8.1-2.5,5.8-6.3C313,317.8,305.5,308.8,291.8,295.8z"/>
	</g>
	<path class="st4" d="M248.3,277L218,363.5c-1.2,3.5-0.6,7.5,1.9,10.3c1.9,2.1,4.7,3.8,8.8,3.3c9.6-1.2,85.9-43.4,85.9-43.4
		S265.5,314.4,248.3,277z"/>
	<g>
		<path class="st5" d="M222.8,349.6l-3.9,11.3c0,0,5.5,12.7,14.3,14.7l8.6-3.8C241.7,371.8,224.5,362.5,222.8,349.6z"/>
		<path class="st5" d="M232,323l-5,14.2c0,0,10.2,21.4,24.5,29.8l12.7-6.4C264.2,360.6,243.5,346.8,232,323z"/>
		<path class="st5" d="M241.7,295.7l-4.6,13.1c0,0,25.6,36.5,47.9,40.7l11.2-6C296.2,343.5,261.4,327.1,241.7,295.7z"/>
	</g>
</g>
<path class="st6" d="M275.5,288.2l-8.2-2.6c0.1-0.3,10.1-33.7-10.1-53l5.9-6.2c10.1,9.6,15.4,23.3,15.4,39.8
	C278.5,278.4,275.7,287.8,275.5,288.2z"/>
<path class="st1" d="M296.8,310l-3.5-6.6c1.3-0.7,32.6-17.1,66.7-10.5l-1.4,7.4C327.1,294.1,297.1,309.8,296.8,310z"/>
<path class="st4" d="M302.2,279.1c-0.3-0.9-2.8-8.6,1.5-13.8c2.7-3.2,7-4.4,12.8-3.6c0.7,0.1,1.4,0.2,2,0.3
	c5.2,0.8,12.3,1.9,13.6,0.2c0.3-0.3,1.6-2.4-1.1-11.1c-0.7-2.4-3-9.7,1.3-14.3c2.7-2.9,7.1-3.7,13-2.3c2.5,0.6,5.2,0.1,7.4-1.3
	c2.1-1.4,3.6-3.6,4-6.1c0.5-2.8,0.1-5.2-1.1-7.3l7.3-4.4c2.3,3.8,3,8.2,2.2,13.1c-0.8,4.8-3.6,9.1-7.7,11.8s-9.3,3.6-14.1,2.5
	c-3.2-0.8-4.6-0.4-4.7-0.2c0,0-0.8,1.3,0.6,5.9c2,6.4,3.7,14.3-0.6,19.2c-4.5,5.2-12.3,4-21.4,2.6c-0.7-0.1-1.3-0.2-2-0.3
	c-3-0.4-4.5,0-5,0.6c-0.9,1.1-0.5,4.2,0,5.6L302.2,279.1z"/>
<path class="st6" d="M217,332.9l-7.5-2.3c-0.6-0.2-1-0.8-0.8-1.5l2.3-7.5c0.2-0.6,0.8-1,1.5-0.8l7.5,2.3c0.6,0.2,1,0.8,0.8,1.5
	l-2.3,7.5C218.3,332.8,217.6,333.1,217,332.9z"/>
<path class="st4" d="M258.7,264.2l-7.5-2.3c-0.6-0.2-1-0.8-0.8-1.5l2.3-7.5c0.2-0.6,0.8-1,1.5-0.8l7.5,2.3c0.6,0.2,1,0.8,0.8,1.5
	l-2.3,7.5C260,264.1,259.3,264.4,258.7,264.2z"/>
<path class="st4" d="M238,270.9L238,270.9c-2.8,0-5.1-2.3-5.1-5.1l0,0c0-2.8,2.3-5.1,5.1-5.1l0,0c2.8,0,5.1,2.3,5.1,5.1l0,0
	C243.1,268.7,240.8,270.9,238,270.9z"/>
<path class="st4" d="M338.2,328.3l-7.7,1.5c-0.6,0.1-1.3-0.3-1.4-0.9l-1.5-7.7c-0.1-0.6,0.3-1.3,0.9-1.4l7.7-1.5
	c0.6-0.1,1.3,0.3,1.4,0.9l1.5,7.7C339.2,327.6,338.8,328.2,338.2,328.3z"/>
<path class="st4" d="M344.5,356.2l-7.4,2.6c-0.6,0.2-1.3-0.1-1.5-0.7l-2.6-7.4c-0.2-0.6,0.1-1.3,0.7-1.5l7.4-2.6
	c0.6-0.2,1.3,0.1,1.5,0.7l2.6,7.4C345.4,355.4,345.1,356,344.5,356.2z"/>
<path class="st4" d="M356.7,341l-7.8-0.4c-0.6,0-1.1-0.6-1.1-1.2l0.4-7.8c0-0.6,0.6-1.1,1.2-1.1l7.8,0.4c0.6,0,1.1,0.6,1.1,1.2
	l-0.4,7.8C357.9,340.6,357.4,341,356.7,341z"/>
<path class="st6" d="M340.3,391.1l-7-3.5c-0.6-0.3-0.8-1-0.5-1.6l3.5-7c0.3-0.6,1-0.8,1.6-0.5l7,3.5c0.6,0.3,0.8,1,0.5,1.6l-3.5,7
	C341.6,391.2,340.9,391.4,340.3,391.1z"/>
<path class="st6" d="M337.8,224.4l-5.5,5.5c-0.5,0.5-1.2,0.5-1.7,0l-5.5-5.5c-0.5-0.5-0.5-1.2,0-1.7l5.5-5.5c0.5-0.5,1.2-0.5,1.7,0
	l5.5,5.5C338.2,223.2,338.2,223.9,337.8,224.4z"/>
<path class="st7" d="M280.6,238.7l-5.5-5.5c-0.5-0.5-0.5-1.2,0-1.7l5.5-5.5c0.5-0.5,1.2-0.5,1.7,0l5.5,5.5c0.5,0.5,0.5,1.2,0,1.7
	l-5.5,5.5C281.8,239.2,281.1,239.2,280.6,238.7z"/>
<path class="st7" d="M292.1,271.9l-7.5-2.3c-0.6-0.2-1-0.8-0.8-1.5l2.3-7.5c0.2-0.6,0.8-1,1.5-0.8l7.5,2.3c0.6,0.2,1,0.8,0.8,1.5
	l-2.3,7.5C293.4,271.7,292.7,272.1,292.1,271.9z"/>
<path class="st7" d="M297.3,364l-7.5-2.3c-0.6-0.2-1-0.8-0.8-1.5l2.3-7.5c0.2-0.6,0.8-1,1.5-0.8l7.5,2.3c0.6,0.2,1,0.8,0.8,1.5
	l-2.3,7.5C298.5,363.8,297.9,364.2,297.3,364z"/>
<g>
	<path class="st4" d="M128.3,125.5c0,0,17.1,6.4,50.2,5.7c3.8-0.1,7.8-0.3,11.9-0.6c4-0.3,7.8-0.6,11.4-1c11.7-1.3,21-3.1,27.9-5
		c5.9-1.5,10.2-3.1,13-4.2c3.3-1.3,4.8-2.2,4.8-2.2l-5.9-10.3l-5.1-8.9l0,0l-11-19.3l-5-8.9l-8.9-15.5l-5.1-8.9l0,0l-7.4-13.1
		l-5-8.9l-5-8.8c0,0-1.7-3.4-6.4-3.1c-4.6,0.3-6,3.8-6,3.8l-1.4,3.2l-3,6.8l-4.4,10l0,0l-3,6.8l-5.3,11.9l-3,6.8l-6.6,14.8l-3,6.8
		l-4.9,11l-3,6.8l-4.9,10.9l-3,6.8L128.3,125.5z"/>
	<path class="st5" d="M131.6,125.6c23.2,4,28.8,5,52.2,2.4c-34.1-2.9-43.9-14.2-45.7-19.5C137.2,113,132.5,121.1,131.6,125.6z"/>
	<path class="st5" d="M223.6,71.8c-23,2.8-46.6-3.6-63.9-16.7c-11.6,18.8,22.1,28.4,41,31.7C212.1,88.7,236.3,92.1,223.6,71.8z"/>
	<path class="st5" d="M205.7,42.1c-24.6,2.3-31.9-18.8-34.2-13.7C152.7,57.4,231.1,64.5,205.7,42.1z"/>
	<path class="st5" d="M238.6,102.4c-28.6,4.9-81.1-4.9-87.2-22.7c-22.1,24.8,32.6,38.1,52.7,39.4C221.6,120.3,256,126.6,238.6,102.4
		z"/>
	<path class="st8" d="M128.3,125.5c0,0,17.1,6.4,50.2,5.7c3.8-0.1,7.8-0.3,11.9-0.6c4-0.3,7.8-0.6,11.4-1c11.7-1.3,21-3.1,27.9-5
		c5.9-1.5,10.2-3.1,13-4.2c3.3-1.3,4.8-2.2,4.8-2.2l-5.9-10.3l-5.1-8.9l0,0l-11-19.3l-5-8.9l-8.9-15.5l-5.1-8.9l0,0l-7.4-13.1
		l-5-8.9l-5-8.8c0,0-1.7-3.4-6.4-3.1c-4.6,0.3-6,3.8-6,3.8l-1.4,3.2l-3,6.8l-4.4,10l0,0l-3,6.8l-5.3,11.9l-3,6.8l-6.6,14.8l-3,6.8
		l-4.9,11l-3,6.8l-4.9,10.9l-3,6.8L128.3,125.5z"/>
</g>
</svg>
