<?xml version="1.0" encoding="utf-8"?>
<!-- Generator: Adobe Illustrator 18.1.1, SVG Export Plug-In . SVG Version: 6.00 Build 0)  -->
<svg version="1.1" id="Layer_1" xmlns="http://www.w3.org/2000/svg" xmlns:xlink="http://www.w3.org/1999/xlink" x="0px" y="0px"
	 width="145px" height="60px" viewBox="0 0 145 60" style="enable-background:new 0 0 145 60;" xml:space="preserve">
<style type="text/css">
	.st0{fill-rule:evenodd;clip-rule:evenodd;fill:#ED1B2F;}
	.st1{fill-rule:evenodd;clip-rule:evenodd;fill:#FFFFFF;}
	.st2{fill:#FFFFFF;}
</style>
<polygon class="st0" points="0,0 145,0 145,60 0,60 0,0 "/>
<path class="st1" d="M70.5,43.8v-0.9h-2.5V17.1h0.8c3.5,0,4.7,5.3,5,8h1.2l-0.2-8.9h-18l-0.2,8.9h1.1c0.7-4.9,2.3-8,5.1-8h0.7v25.8
	H61v0.9H70.5L70.5,43.8z"/>
<path class="st1" d="M39.8,16.2v0.9h2.5v2.5c-3.7-0.2-9.7,1.2-9.7,10.7c0,10.4,6.5,10.9,9.7,10.7v2.6h-2.5v0.9h9.5v-0.9h-2.5v-2.6
	c3.1,0.2,9.7-0.5,9.7-10.7c0-9.5-6-10.8-9.7-10.7v-2.5h2.5v-0.9H39.8L39.8,16.2z M46.8,20.5h0.8c3.2,0,3.7,2.9,3.7,4.7v9.7
	c0,2.6-0.6,5.1-3.6,5.1h-1V20.5L46.8,20.5z M42.3,40h-0.7c-3,0-3.8-2.1-3.8-5.1v-9.7c0-4.5,2.8-4.7,3.9-4.7h0.7V40L42.3,40z"/>
<path class="st1" d="M25.3,42.9h-6.9V17.1h2.1v-0.9h-9.1v0.9h2.5v25.8h-2.5v0.9h15.8c0.9,0,3.7-0.3,5.3,6.4h0.9L33,42.9h-3.1V17.1
	h2.5v-0.9h-9.1v0.9h2.1V42.9L25.3,42.9z"/>
<path class="st1" d="M82.4,16.3h-1.3v6.6h3.5v1.4h1.1v-2.4h-0.3v-5.6h-1.3v5.6h-1.7V16.3L82.4,16.3z M86.4,16.3v6.6H90v-1h-2.3v-2h2
	v-1h-2v-1.5H90v-1H86.4L86.4,16.3z M92,16.3h-1.3v6.6H92v-3h1.6v3h1.3v-6.6h-1.3v2.5H92V16.3L92,16.3z M98.3,17.3h1.5v-1h-4.4v1h1.6
	v5.6h1.3V17.3L98.3,17.3z M101.7,20.2h1.1c1.1,0,1.8-0.8,1.8-1.9s-0.7-1.9-1.8-1.9h-2.4v6.6h1.3V20.2L101.7,20.2z M101.7,17.2h0.7
	c0.6,0,0.9,0.4,0.9,1c0,0.6-0.3,1-0.9,1h-0.7V17.2L101.7,17.2z M83.5,26.8v0.7h-0.3c-1.1,0-2.2,0.8-2.2,2.5c0,1.9,1.1,2.5,2.2,2.5
	h0.3v0.8h1.3v-0.8h0.3c1.1,0,2.2-0.7,2.2-2.5c0-1.7-1.1-2.5-2.2-2.5h-0.3v-0.7H83.5L83.5,26.8z M83.5,31.5h-0.3
	c-0.6,0-0.9-0.5-0.9-1.5c0-0.8,0.3-1.5,0.9-1.5h0.3V31.5L83.5,31.5z M84.7,28.4H85c0.7,0,1,0.7,1,1.5c0,1-0.3,1.5-1,1.5h-0.3V28.4
	L84.7,28.4z M88,26.8v6.6h1.4l1.9-4.8l0,0c-0.2,0.6-0.2,1.3-0.2,2.3v2.5h1.2v-6.6h-1.4L89,31.5l0,0c0.1-0.5,0.2-1.5,0.2-2.3v-2.4H88
	L88,26.8z M94.4,26.8h-1.2v6.6h1.2v-3h1.7v3h1.3v-6.6h-1.3v2.5h-1.7V26.8L94.4,26.8z M97.8,33.3h1.4l0.3-1.8h1.4l0.3,1.8h1.4
	l-1.5-6.6h-1.6L97.8,33.3L97.8,33.3z M99.7,30.6l0.6-3.1l0.5,3.1H99.7L99.7,30.6z M104.4,26.8h-1.3v6.6h1.3v-3h1.6v3h1.3v-6.6H106
	v2.5h-1.6V26.8L104.4,26.8z M112.2,28.9v-0.3c0-1.2-0.7-1.9-1.9-1.9c-1.3,0-2.1,0.8-2.1,2.3v2.4c0,1.2,0.4,2.3,2,2.3
	c1.6,0,2-1.1,2-2.3V31h-1.3v0.3c0,0.8-0.3,1.2-0.8,1.2c-0.5,0-0.7-0.3-0.7-1.2v-2.6c0-0.8,0.2-1.1,0.7-1.1c0.6,0,0.8,0.3,0.8,1.1
	v0.2H112.2L112.2,28.9z M113,28.9v2.4c0,1.7,0.8,2.3,2.1,2.3s2.1-0.6,2.1-2.3v-2.4c0-1.7-0.8-2.3-2.1-2.3S113,27.2,113,28.9
	L113,28.9z M115.1,27.6c0.6,0,0.8,0.4,0.8,1.1v2.7c0,0.7-0.3,1.1-0.8,1.1c-0.6,0-0.8-0.4-0.8-1.1v-2.7
	C114.3,28,114.5,27.6,115.1,27.6L115.1,27.6z M119.4,27.7h0.7c0.6,0,0.8,0.3,0.8,0.8c0,0.5-0.2,0.8-0.8,0.8h-0.7V27.7L119.4,27.7z
	 M119.4,30.3h0.8c0.4,0,0.7,0.4,0.7,1c0,0.8-0.3,1.1-0.7,1.1h-0.8V30.3L119.4,30.3z M118.2,33.3h2.4c1,0,1.5-0.8,1.5-1.9
	c0-0.9-0.3-1.4-0.9-1.6c0.5-0.2,0.8-0.8,0.8-1.4c0-0.8-0.4-1.6-1.6-1.6h-2.3V33.3L118.2,33.3z M124.2,30.3h0.8c0.4,0,0.8,0.4,0.8,1
	c0,0.8-0.3,1.1-0.8,1.1h-0.8V30.3L124.2,30.3z M124.2,26.8H123v6.6h2.4c1,0,1.6-0.8,1.6-2.1c0-0.9-0.7-1.9-1.7-1.9h-1.1V26.8
	L124.2,26.8z M129.2,26.8h-1.3v6.6h1.3V26.8L129.2,26.8z M129.8,26.8l1.5,3.2l-1.6,3.4h1.4l1-2.4l0.9,2.4h1.4l-1.7-3.4l1.6-3.2H133
	l-0.8,2.1l-0.8-2.1H129.8L129.8,26.8z M83.6,38.2h1.6v-1h-4.4v1h1.5v5.6h1.3V38.2L83.6,38.2z M85.8,37.1v6.6h3.5v-1h-2.3v-2h2v-1h-2
	v-1.5h2.3v-1H85.8L85.8,37.1z M89.9,37.1l1.5,3.2l-1.6,3.4h1.4l1-2.4l1,2.4h1.4l-1.7-3.4l1.6-3.2h-1.3l-0.9,2.2l-0.8-2.2H89.9
	L89.9,37.1z M96.4,37.1h-1.3v6.6h1.3v-3h1.7v3h1.2v-6.6h-1.2v2.5h-1.7V37.1L96.4,37.1z M100.2,39.3v2.4c0,1.7,0.8,2.2,2.1,2.2
	s2.1-0.5,2.1-2.2v-2.4c0-1.7-0.8-2.3-2.1-2.3S100.2,37.6,100.2,39.3L100.2,39.3z M102.3,38.1c0.6,0,0.8,0.4,0.8,1.1v2.7
	c0,0.7-0.3,1-0.8,1c-0.6,0-0.8-0.3-0.8-1v-2.7C101.5,38.5,101.7,38.1,102.3,38.1L102.3,38.1z M105.9,37.1v3.2c0,2.4-0.2,2.5-0.6,2.5
	c-0.1,0-0.3,0-0.3,0v0.9c0.2,0.1,0.4,0.1,0.8,0.1c1,0,1.4-1,1.4-3.2v-2.5h1.3v5.6h1.3v-6.6H105.9L105.9,37.1z M110.7,39.3v2.4
	c0,1.7,0.8,2.2,2.1,2.2c1.3,0,2.1-0.5,2.1-2.2v-2.4c0-1.7-0.8-2.3-2.1-2.3C111.5,37.1,110.7,37.6,110.7,39.3L110.7,39.3z
	 M112.8,38.1c0.6,0,0.8,0.4,0.8,1.1v2.7c0,0.7-0.3,1-0.8,1c-0.6,0-0.8-0.3-0.8-1v-2.7C111.9,38.5,112.2,38.1,112.8,38.1L112.8,38.1z
	 M115.8,37.1v6.6h1.2v-5.6h2.3v-1H115.8L115.8,37.1z M119.9,37.1v6.6h1.4l1.9-4.7l0,0c-0.1,0.6-0.2,1.3-0.2,2.3v2.4h1.2v-6.6h-1.4
	l-1.9,4.8l0,0c0.2-0.5,0.2-1.5,0.2-2.3v-2.5H119.9L119.9,37.1z M125,37.1v6.6h1.4l1.8-4.7h0.1c-0.2,0.6-0.2,1.3-0.2,2.3v2.4h1.2
	v-6.6h-1.4L126,42l0,0c0.1-0.5,0.2-1.5,0.2-2.3v-2.5H125L125,37.1z M125.8,35.4c0,0.7,0.3,1.4,1.3,1.4c1.1,0,1.4-0.7,1.4-1.4h-0.7
	c0,0.5-0.3,0.8-0.7,0.8c-0.4,0-0.7-0.3-0.7-0.8H125.8L125.8,35.4z"/>
<path class="st2" d="M132.1,16.2c0.4,0,0.8,0.1,1.2,0.3c0.4,0.2,0.7,0.5,0.9,0.9c0.2,0.4,0.3,0.8,0.3,1.2c0,0.4-0.1,0.8-0.3,1.2
	c-0.2,0.4-0.5,0.7-0.9,0.9c-0.4,0.2-0.8,0.3-1.2,0.3c-0.4,0-0.8-0.1-1.2-0.3c-0.4-0.2-0.7-0.5-0.9-0.9c-0.2-0.4-0.3-0.8-0.3-1.2
	c0-0.4,0.1-0.8,0.3-1.2c0.2-0.4,0.5-0.7,0.9-0.9C131.3,16.3,131.7,16.2,132.1,16.2L132.1,16.2z M132.1,16.6c-0.3,0-0.7,0.1-1,0.3
	c-0.3,0.2-0.6,0.4-0.7,0.7c-0.2,0.3-0.3,0.6-0.3,1c0,0.3,0.1,0.7,0.3,1c0.2,0.3,0.4,0.6,0.7,0.7c0.3,0.2,0.6,0.3,1,0.3
	c0.3,0,0.7-0.1,1-0.3c0.3-0.2,0.6-0.4,0.7-0.7c0.2-0.3,0.3-0.6,0.3-1c0-0.3-0.1-0.7-0.3-1c-0.2-0.3-0.4-0.6-0.7-0.7
	C132.8,16.7,132.4,16.6,132.1,16.6L132.1,16.6z M131.2,19.9v-2.5h0.9c0.3,0,0.5,0,0.6,0.1c0.1,0,0.2,0.1,0.3,0.2
	c0.1,0.1,0.1,0.2,0.1,0.4c0,0.2-0.1,0.3-0.2,0.5c-0.1,0.1-0.3,0.2-0.5,0.2c0.1,0,0.2,0.1,0.2,0.1c0.1,0.1,0.2,0.3,0.4,0.5l0.3,0.5
	h-0.5l-0.2-0.4c-0.2-0.3-0.3-0.5-0.4-0.6c-0.1-0.1-0.2-0.1-0.3-0.1h-0.2v1.1H131.2L131.2,19.9z M131.6,18.4h0.5c0.2,0,0.4,0,0.5-0.1
	c0.1-0.1,0.1-0.2,0.1-0.3c0-0.1,0-0.1-0.1-0.2c0-0.1-0.1-0.1-0.2-0.1c-0.1,0-0.2,0-0.4,0h-0.5V18.4L131.6,18.4z"/>
</svg>
