<?xml version="1.0" encoding="utf-8"?>
<!-- Generator: Adobe Illustrator 22.1.0, SVG Export Plug-In . SVG Version: 6.00 Build 0)  -->
<svg version="1.1" id="Layer_1" xmlns="http://www.w3.org/2000/svg" xmlns:xlink="http://www.w3.org/1999/xlink" x="0px" y="0px"
	 viewBox="0 0 453.5 170.1" style="enable-background:new 0 0 453.5 170.1;" xml:space="preserve">
<style type="text/css">
	.st0{fill:url(#SVGID_1_);}
</style>
<path d="M24.5,99c-0.1-0.1-0.1-0.2-0.2-0.3C24.3,98.8,24.4,98.9,24.5,99z"/>
<linearGradient id="SVGID_1_" gradientUnits="userSpaceOnUse" x1="50.6379" y1="24.0073" x2="123.6158" y2="150.4086">
	<stop  offset="0" style="stop-color:#EF645E"/>
	<stop  offset="1" style="stop-color:#EB1E6F"/>
</linearGradient>
<path class="st0" d="M160.9,128.9c5.6-10.8,8.7-23.1,8.7-36.2c0-43.8-35.5-79.3-79.3-79.3S11,48.9,11,92.7c0,25.2,11.7,47.6,30,62.1
	c1.6-14.1,2.7-26.5,2.2-28.7c-2.8-13.1-10.6-14.5-5.3-37.6c11-47.8,46.6-53.9,65.9-49.4c15,3.5,26.6,15.2,33.2,35.1
	c6.6,19.7,5.1,29.9,2.6,36.6c-0.7,2-0.6,1.8,9.6,9.3C153.4,123.1,157.3,126,160.9,128.9"/>
<path d="M41,156.9c-0.5,0-0.9-0.2-1.3-0.4C20.2,140.9,8.9,117.7,8.9,92.7c0-44.9,36.5-81.4,81.4-81.4s81.4,36.5,81.4,81.4
	c0,13.1-3,25.6-8.9,37.1c-0.3,0.5-0.8,0.9-1.4,1.1c-0.6,0.1-1.2,0-1.7-0.4c-3.2-2.6-6.6-5.1-10.2-7.8l-3.8-2.8c-4.1-3-5.9-4.3-7-5.4
	c-1.7-1.7-1.3-3.1-0.9-4.4c2.1-5.6,4-15.3-2.6-35.2c-6.3-18.7-17.2-30.3-31.7-33.7c-4.6-1.1-20.8-3.8-37,6.3
	c-13.1,8.2-22,22.2-26.5,41.6c-3.5,15.2-1.1,20.4,1.7,26.4c1.3,2.8,2.8,6,3.7,10.3c0.7,3.2-1.3,21.6-2.2,29.3
	c-0.1,0.7-0.6,1.4-1.2,1.7C41.5,156.8,41.3,156.9,41,156.9z M90.3,15.4C47.7,15.4,13,50.1,13,92.7c0,22.5,9.6,43.4,26.4,58.1
	c1.5-14.2,2.1-22.9,1.8-24.2c-0.8-3.9-2.1-6.7-3.4-9.4c-3-6.4-5.8-12.5-1.9-29C40.6,67.6,50.1,52.7,64.2,44
	c11.8-7.4,26.8-9.9,40.1-6.8c16,3.7,28,16.3,34.7,36.4c7.1,21.1,4.9,31.7,2.6,37.9c0,0,0,0.1-0.1,0.2c0.7,0.7,3,2.5,6.5,5l3.8,2.8
	c2.9,2.1,5.7,4.2,8.4,6.3c4.9-10.3,7.4-21.4,7.4-33C167.6,50.1,132.9,15.4,90.3,15.4z"/>
<path d="M97.7,110.5c-2,0-3.9-1.9-5.9-6c-1.7-3.4-3.4-8-4.8-13.3c-1.5-5.4-2.1-10.7-1.9-16.6c0.2-6.5,1.8-8.7,2.3-9.2c0,0,0,0,0,0
	c0.2-0.2,5.8-5.8,15.7-4c9.7,1.8,10,7,10.2,10.2c0,0.3,0,0.5,0.1,0.8c0.6,7.1-5.5,29.4-11.4,35.9C100.5,109.8,99.1,110.5,97.7,110.5
	C97.7,110.5,97.7,110.5,97.7,110.5z M90.3,68.2c-0.2,0.3-1.1,2-1.2,6.5c-0.1,5.5,0.4,10.4,1.8,15.4c2.9,10.6,5.8,15.4,6.9,16.3
	c1.1-0.4,4-4.1,7.3-13.9c2.6-7.8,4.4-16.3,4.1-19.8c0-0.3,0-0.6-0.1-0.9c-0.2-2.8-0.3-5.2-6.8-6.4C95.1,64.1,91,67.6,90.3,68.2z
	 M90.3,68.2C90.2,68.2,90.2,68.2,90.3,68.2C90.2,68.3,90.2,68.2,90.3,68.2z M90.3,68.2L90.3,68.2L90.3,68.2z"/>
<path d="M76.7,138.4C76.6,138.4,76.6,138.4,76.7,138.4c-16.7-0.7-28.7-6.1-35.9-16c-7.6-10.6-7.7-23.8-5.4-31.9
	c0.3-1.1,1.4-1.7,2.5-1.4c1.1,0.3,1.7,1.4,1.4,2.5c-1.6,5.8-2.5,18.3,4.8,28.3c6.4,8.8,17.4,13.7,32.7,14.3c1.1,0,2,1,2,2.1
	C78.7,137.5,77.8,138.4,76.7,138.4z"/>
<path d="M28.8,56.5h129.5c0,0-11.4,19.8-30.1,21.3c-10.5,0.8-18.3-8.4-22.7-12.3c-3.3-2.9-6.4-3.5-13.5,0c-4.8,2.4-4.7,7.1-16,11
	C74.9,77,55.7,82,43.2,73.1c-1.8-1.3-7.6-4.9-11.6-10.1C27.9,58,28.9,56.7,28.8,56.5"/>
<g>
	<path d="M248.7,98.4c0,8-1.9,14.2-5.8,18.7c-3.9,4.5-9.2,6.7-16,6.7c-4.3,0-8.1-1-11.3-3.1c-3.3-2.1-5.8-5-7.5-8.9
		c-1.7-3.9-2.6-8.3-2.6-13.4c0-8,1.9-14.2,5.8-18.6s9.2-6.7,15.9-6.7c6.7,0,12,2.3,15.8,6.8C246.8,84.4,248.7,90.6,248.7,98.4z
		 M210.1,98.4c0,6.7,1.5,12,4.4,15.7c3,3.8,7.1,5.6,12.5,5.6s9.6-1.9,12.5-5.6c3-3.8,4.4-9,4.4-15.7c0-6.7-1.5-12-4.5-15.7
		c-3-3.7-7.2-5.6-12.6-5.6s-9.6,1.9-12.5,5.6C211.6,86.4,210.1,91.6,210.1,98.4z"/>
	<path d="M281,73.1c3.5,0,6.6,0.6,9.2,1.9c2.6,1.3,4.9,3.5,6.9,6.6h0.3c-0.2-3.8-0.3-7.5-0.3-11.1V52.9h4.4v70h-2.9l-1.1-7.5h-0.4
		c-3.7,5.6-9.1,8.4-16,8.4c-6.7,0-11.9-2.1-15.5-6.3c-3.6-4.2-5.4-10.3-5.4-18.3c0-8.5,1.8-14.9,5.3-19.4
		C269.1,75.3,274.2,73.1,281,73.1z M281,77.1c-5.3,0-9.3,1.9-12,5.6c-2.7,3.7-4,9.2-4,16.3c0,13.9,5.4,20.8,16.1,20.8
		c5.5,0,9.6-1.6,12.1-4.8c2.6-3.2,3.9-8.5,3.9-15.9v-0.8c0-7.6-1.3-13-3.8-16.3C290.8,78.8,286.7,77.1,281,77.1z"/>
	<path d="M349.1,110.2c0,4.4-1.7,7.7-5,10.1c-3.3,2.4-8.1,3.5-14.2,3.5c-6.5,0-11.7-1-15.6-3V116c4.9,2.5,10.1,3.7,15.6,3.7
		c4.8,0,8.5-0.8,11-2.4c2.5-1.6,3.8-3.7,3.8-6.4c0-2.5-1-4.5-3-6.2c-2-1.7-5.3-3.3-9.8-4.9c-4.9-1.8-8.3-3.3-10.3-4.6
		c-2-1.3-3.5-2.7-4.5-4.3c-1-1.6-1.5-3.6-1.5-5.9c0-3.7,1.5-6.6,4.6-8.7c3.1-2.1,7.4-3.2,12.9-3.2c5.3,0,10.3,1,15,3l-1.7,4
		c-4.8-2-9.2-3-13.4-3c-4,0-7.2,0.7-9.5,2c-2.3,1.3-3.5,3.1-3.5,5.5c0,2.5,0.9,4.6,2.7,6.1c1.8,1.5,5.4,3.2,10.6,5.1
		c4.4,1.6,7.6,3,9.6,4.3c2,1.3,3.5,2.7,4.5,4.3C348.5,106.1,349.1,108,349.1,110.2z"/>
	<path d="M361.6,119.4c0-2.9,1.2-4.4,3.6-4.4c2.5,0,3.7,1.5,3.7,4.4c0,2.9-1.2,4.4-3.7,4.4C362.8,123.8,361.6,122.3,361.6,119.4z"/>
	<path d="M414.9,122.9l-1.1-7.7h-0.4c-2.5,3.1-5,5.4-7.6,6.7c-2.6,1.3-5.7,2-9.2,2c-4.8,0-8.5-1.2-11.2-3.7c-2.7-2.5-4-5.9-4-10.2
		c0-4.8,2-8.5,6-11.1c4-2.6,9.7-4,17.2-4.2l9.3-0.3v-3.2c0-4.6-0.9-8.2-2.8-10.5c-1.9-2.4-4.9-3.6-9.1-3.6c-4.5,0-9.2,1.3-14.1,3.8
		l-1.7-3.9c5.4-2.5,10.7-3.8,15.9-3.8c5.4,0,9.4,1.4,12,4.2c2.7,2.8,4,7.1,4,13v32.5H414.9z M396.9,119.8c5.2,0,9.3-1.5,12.3-4.5
		c3-3,4.5-7.1,4.5-12.4V98l-8.5,0.4c-6.9,0.3-11.8,1.4-14.7,3.2c-2.9,1.8-4.4,4.6-4.4,8.5c0,3.1,0.9,5.4,2.8,7.1
		C390.8,118.9,393.5,119.8,396.9,119.8z"/>
	<path d="M434.2,60.4c0-2.9,0.9-4.3,2.8-4.3c0.9,0,1.7,0.4,2.2,1.1c0.5,0.7,0.8,1.8,0.8,3.2c0,1.3-0.3,2.4-0.8,3.2
		c-0.5,0.8-1.3,1.2-2.2,1.2C435.1,64.8,434.2,63.4,434.2,60.4z M439.3,122.9h-4.5V74h4.5V122.9z"/>
</g>
</svg>
