<?xml version="1.0" encoding="utf-8"?>
<!-- Generator: Adobe Illustrator 16.0.0, SVG Export Plug-In . SVG Version: 6.00 Build 0)  -->
<!DOCTYPE svg PUBLIC "-//W3C//DTD SVG 1.1//EN" "http://www.w3.org/Graphics/SVG/1.1/DTD/svg11.dtd">
<svg version="1.1" id="Layer_1" xmlns="http://www.w3.org/2000/svg" xmlns:xlink="http://www.w3.org/1999/xlink" x="0px" y="0px"
	 width="226.77px" height="42.25px" viewBox="0 0 226.77 42.25" enable-background="new 0 0 226.77 42.25" xml:space="preserve">
<g>
	<path d="M21.135,6.253c-2.095-0.874-4.451-1.266-7.069-1.266h-2.616H6.386v32.378h1.702h5.978c2.619,0,4.976-0.438,7.069-1.266
		c2.05-0.785,3.796-2.007,5.192-3.578c2.573-2.836,3.928-6.765,3.928-11.346c0-4.582-1.354-8.508-3.928-11.346
		C24.931,8.26,23.186,7.038,21.135,6.253z M22.575,29.117c-1.921,2.096-4.757,3.186-8.51,3.186h-2.616V10.05h2.616
		c3.753,0,6.589,1.046,8.51,3.186c1.701,1.875,2.617,4.624,2.617,7.941C25.193,24.447,24.277,27.242,22.575,29.117z"/>
	<path d="M30.537,37.665h5.006l2.311-5.403h8.237l2.312,5.403h4.97l-11.398-26.27L30.537,37.665z M44.305,28.127h-4.667l2.333-5.493
		L44.305,28.127z"/>
	<polygon points="71.87,11.848 53.427,11.848 53.427,15.981 60.36,15.981 60.36,37.665 64.937,37.665 64.937,15.981 71.87,15.981 	
		"/>
	<path d="M71.854,37.665h5.006l2.312-5.403h8.237l2.311,5.403h4.972l-11.399-26.27L71.854,37.665z M85.625,28.127h-4.667
		l2.333-5.493L85.625,28.127z"/>
	<path d="M126.748,20.18c-1.764-1.334-4.128-2.192-7.03-2.551c-2.892-0.339-4.85-1.553-5.37-3.33
		c-0.163-0.574-0.132-1.251,0.085-1.902c0.266-0.662,0.702-1.251,1.232-1.659c0.721-0.55,1.706-0.853,2.775-0.853
		c1.394,0,2.977,0.495,4.707,1.472l0.085,0.048l2.45-4.188l0.051-0.086l-0.086-0.05c-2.474-1.456-4.897-2.194-7.207-2.194
		c-2.17,0-4.183,0.655-5.821,1.896c-1.357,1.042-2.35,2.417-2.869,3.973c-0.581,1.607-0.657,3.289-0.221,4.861
		c0.474,1.761,1.588,3.363,3.224,4.633c1.681,1.241,3.825,2.027,6.374,2.336c3.474,0.434,5.732,1.818,6.198,3.801
		c0.388,1.727-0.577,3.684-2.4,4.869c-1.402,0.922-3.146,1.333-4.998,1.165c-2.457-0.221-4.939-1.258-7.587-3.169l-0.08-0.059
		l-2.955,4.002l0.08,0.06c3.306,2.447,6.714,3.849,10.14,4.164c0.195,0,0.4,0.013,0.606,0.022c0.209,0.011,0.417,0.021,0.615,0.021
		c2.521,0,4.924-0.698,6.949-2.022c1.696-1.135,3.037-2.688,3.875-4.494c0.846-1.865,1.06-3.85,0.616-5.736
		C129.709,23.248,128.519,21.508,126.748,20.18z"/>
	<path d="M155.704,15.605c-1.216-1.182-2.559-2.081-4.106-2.749c-3.245-1.342-6.888-1.335-10.052,0.001
		c-1.582,0.667-2.925,1.567-4.109,2.753c-1.201,1.234-2.137,2.613-2.779,4.102c-0.67,1.62-1.009,3.317-1.009,5.045
		c0,1.738,0.339,3.425,1.01,5.011c0.644,1.522,1.578,2.903,2.781,4.104c1.21,1.211,2.593,2.146,4.105,2.782
		c1.582,0.67,3.268,1.01,5.01,1.01c1.733,0,3.43-0.34,5.047-1.012c1.477-0.633,2.856-1.566,4.105-2.78
		c1.181-1.181,2.08-2.522,2.749-4.104c0.67-1.593,1.01-3.277,1.01-5.011c0-1.721-0.339-3.418-1.011-5.049
		C157.786,18.162,156.889,16.821,155.704,15.605z M154.923,24.758c0,2.221-0.875,4.316-2.462,5.905
		c-1.587,1.587-3.686,2.461-5.906,2.461s-4.317-0.874-5.903-2.461c-1.587-1.589-2.462-3.687-2.462-5.905
		c0-2.223,0.874-4.32,2.462-5.906c1.585-1.586,3.683-2.46,5.903-2.46c2.223,0,4.32,0.874,5.906,2.461
		C154.049,20.438,154.923,22.535,154.923,24.758z"/>
	<path d="M177.482,28.8c0,1.402-0.476,2.478-1.411,3.195c-0.944,0.718-2.277,1.129-3.657,1.129c-1.414,0-2.746-0.41-3.657-1.128
		c-0.96-0.736-1.446-1.812-1.446-3.196V11.848h-4.543V28.8c0,1.468,0.297,2.806,0.881,3.976c0.537,1.108,1.321,2.06,2.329,2.824
		c1.72,1.332,4.006,2.065,6.438,2.065s4.718-0.733,6.438-2.067c0.972-0.765,1.752-1.711,2.329-2.826
		c0.583-1.242,0.878-2.58,0.878-3.972V11.848h-4.577L177.482,28.8L177.482,28.8z"/>
	<polygon points="190.244,11.848 185.702,11.848 185.702,37.665 200.78,37.665 200.78,33.5 190.244,33.5 	"/>
	<path d="M221.191,27.846c-0.387-1.58-1.342-2.979-2.762-4.043c-1.406-1.062-3.283-1.744-5.582-2.029
		c-2.161-0.255-3.618-1.144-3.996-2.435c-0.114-0.403-0.092-0.883,0.059-1.336c0.191-0.479,0.508-0.904,0.89-1.198
		c0.521-0.399,1.241-0.619,2.027-0.619c1.046,0,2.241,0.376,3.556,1.118l0.257,0.146l2.17-3.708l-0.258-0.152
		c-1.96-1.156-3.886-1.742-5.725-1.742c-1.738,0-3.353,0.526-4.669,1.523c-1.094,0.837-1.894,1.944-2.311,3.196
		c-0.467,1.296-0.528,2.652-0.178,3.917c0.383,1.418,1.276,2.708,2.594,3.732c1.34,0.986,3.045,1.611,5.068,1.859
		c2.607,0.325,4.3,1.343,4.639,2.79c0.283,1.253-0.43,2.683-1.775,3.559c-1.047,0.688-2.344,0.994-3.751,0.869
		c-1.865-0.166-3.763-0.959-5.799-2.424l-0.24-0.174l-2.562,3.47l0.24,0.179c2.605,1.932,5.299,3.036,8.026,3.286
		c0.149,0,0.307,0.009,0.463,0.017c0.168,0.01,0.335,0.019,0.491,0.019c1.999,0,3.912-0.558,5.536-1.612
		c1.354-0.902,2.425-2.146,3.098-3.596C221.374,30.96,221.545,29.366,221.191,27.846z"/>
</g>
</svg>
