<?xml version="1.0" encoding="utf-8"?>
<!-- Generator: Adobe Illustrator 22.1.0, SVG Export Plug-In . SVG Version: 6.00 Build 0)  -->
<svg version="1.1" id="Layer_1" xmlns="http://www.w3.org/2000/svg" xmlns:xlink="http://www.w3.org/1999/xlink" x="0px" y="0px"
	 viewBox="0 0 793.7 340.2" style="enable-background:new 0 0 793.7 340.2;" xml:space="preserve">
<style type="text/css">
	.st0{fill-rule:evenodd;clip-rule:evenodd;fill:#80BC00;}
</style>
<path class="st0" d="M647.2,189.8H604c-6.4,0-6.4,8.4,0,8.4c5.7,0,11.2-0.1,16.9-0.1c0.4,0,0.9,0,1.3,0h10.8
	c7.3,0,15.8,5.9,15.8,13.7v2.2c0,7.8-8.5,13.7-15.8,13.7h-2.4h-9.7v0h-1.1h-34v-10.6h44.7c6.7,0,6.5-8.4,0-8.4
	c-5.7,0-11.3,0.1-16.8,0.1c-0.4,0-0.8,0-1.2,0h-10.9c-7.3,0-15.8-5.9-15.8-13.7v-2.2c0-7.8,8.5-13.7,15.8-13.7h12.1h33.7V189.8
	L647.2,189.8z M486.4,198.2l28.9,0.1c6.4,0,6.4-8.4,0-8.4h-7.7h-11.1h-7.7c-2.5,0-4.6,1.8-5.1,4.2h0v4.4
	C484.6,198.3,485.5,198.2,486.4,198.2L486.4,198.2z M533.6,217.1h-44.7c-6.4,0-6.4-8.4,0-8.4c5.7,0,11.3,0.1,16.8,0.1
	c0.4,0,0.8,0,1.2,0h10.9c7.3,0,15.8-5.9,15.8-13.7v-2.2c0-7.8-8.5-13.7-15.8-13.7h-10.2h-1.9h-9.2h-10.2c-7.3,0-15.8,5.9-15.8,13.7
	v1.1v17.8v2.2c0,7.8,8.5,13.7,15.8,13.7c15.7,0,31.5,0,47.2,0V217.1L533.6,217.1z M714.6,219.9v5.1v2.8h-5.4h-12.1
	c-7.3,0-15.8-5.9-15.8-13.7v-14.2l0,0v-6.9v0v-30.5c0-6.6,5.3-11.9,11.9-11.9h1.5v29c0.8-0.1,1.6-0.2,2.4-0.2h12.1h1.7v10.6h-8.1
	h-8.1v8l0,0v0.1v4.7v6.5c0,4.5,3.7,8.1,8.1,8.1h11.8V219.9L714.6,219.9z M470.9,179.2c-5.9,0-14-0.8-18.2,6.2l-19.6,29.7l-19.6-29.7
	c-4-6.9-12.1-6.2-18.2-6.2l26.7,41.1c2.7,4.1,5.8,7,9.7,7.4c4.7,0.5,9-1.9,12.6-7.4C452.4,207.6,461.9,193,470.9,179.2L470.9,179.2z
	 M297.9,189.6c0-6,4.1-10.4,10.1-10.4l8.8,0c0.8,0,1.8,0.2,3.4,1.8l36.3,35.5v-28.9c0-6,4.1-8.4,10.1-8.4l8.8,0
	c-3.3,0.4-5.5,1.3-5.5,9.4v31.7c0,3-2.2,7.4-5.2,7.4h-9.1h-3c-2.9,0.1-5.3-2.6-7.3-4.6l-34-33.5c0,0.3,0,0.7,0,1v37.1h-13.4V189.6
	L297.9,189.6z M544,189.6c0-6,5.9-10.4,11.9-10.4h1.5h19.9v0h4.2v10.6h-4.2h-11.8c-4.5,0-8.1,3.6-8.1,8.1v29.8H544V189.6L544,189.6z
	 M782.1,264.6h-1.5c-6.6,0-11.9-5.3-11.9-11.9v-25.1v0c-0.8,0.1-1.6,0.2-2.4,0.2h-21.1h0h-10.8c-7.3,0-15.8-5.9-15.8-13.7v-21.1
	c0-6.8,6.6-12.2,13.1-13.4V195v10.8v6.2v0.1c0.1,2.8,2.4,5,5.2,5h26.9c2.4,0,4.5-1.7,5-4v0c0.1-0.4,0.1-0.7,0.1-1.1v-6.2v-5.9v-6.9
	c0-6.9,6.6-12.2,13.1-13.4V195v17.3h0v1.7l0,0L782.1,264.6L782.1,264.6z M658.4,189.6c0-6,5.9-10.4,11.9-10.4h1.5v48.5h-13.4V189.6
	L658.4,189.6z M237.9,179.5c-6.5,1.2-13.1,6.6-13.1,13.4V214c0,7.8,8.5,13.7,15.8,13.7h16h5.1l0,0h10.8c7.3,0,15.8-5.9,15.8-13.7
	c0-6.3,0-12.7,0-19v-15.5c-6.5,1.2-13.1,6.6-13.1,13.4c0,6.3,0,12.7,0,19c0,2.8-2.3,5.2-5.2,5.2h-13.5H243c-2.9,0-5.2-2.3-5.2-5.2
	v-3.8V195V179.5L237.9,179.5z M379.5,189.6c0-6,5.9-10.4,11.9-10.4h1.5v48.5h-13.4V189.6L379.5,189.6z M13,130.8
	c0-6,5.9-10.4,11.9-10.4h1.5v48.5H13V130.8L13,130.8z M153.4,128.8c0-6,4.1-8.4,10.1-8.4l8.8,0c-3.3,0.4-5.5,1.3-5.5,9.4v31.7
	c0,3-2.2,7.4-5.2,7.4h-12.1h0h0c-2.9,0.1-5.3-2.6-7.3-4.6L108,130.6v30.9c0,3-2.2,7.4-5.2,7.4H90.7h0h0c-2.9,0.1-5.3-2.6-7.3-4.6
	l-34-33.5v0c0,0.3,0,0.7,0,1v37.1H36v-38.1c0-6,4.1-10.4,10.1-10.4l8.8,0c0.8,0,1.8,0.2,3.4,1.8l36.3,35.5v-28.9
	c0-6,4.1-8.4,10.1-8.4l8.8,0l0,0l0.1,0c0.8,0,1.8,0.2,3.5,1.8l36.3,35.5V128.8L153.4,128.8z M532.3,131H489c-6.4,0-6.4,8.4,0,8.4
	c5.7,0,11.2-0.1,16.9-0.1c0.4,0,0.9,0,1.3,0H518c7.3,0,15.8,5.9,15.8,13.7v2.2c0,7.8-8.5,13.7-15.8,13.7h-2.4h-9.7v0h-1.1h-34v-10.6
	h44.7c6.7,0,6.5-8.4,0-8.4c-5.7,0-11.3,0.1-16.8,0.1c-0.4,0-0.8,0-1.2,0h-10.9c-7.3,0-15.8-5.9-15.8-13.7v-2.2
	c0-7.8,8.5-13.7,15.8-13.7h12.1h33.7V131L532.3,131z M446.4,130.8c0-6,5.9-10.4,11.9-10.4h1.5v48.5h-13.4V130.8L446.4,130.8z
	 M409.7,91.6v58.6c0,4.5,3.7,8.1,8.1,8.1h17.6v2.8v5.1v2.8h-11.3h-12.1c-7.3,0-15.8-5.9-15.8-13.7v-51.7c0-6.6,5.3-11.9,11.9-11.9
	H409.7L409.7,91.6z M224.5,168.9h-4.2h-6.6h-5.1h-0.4h-15.6c-7.3,0-15.8-5.9-15.8-13.7v-21.1c0-7.8,8.5-13.7,15.8-13.7h3.3h5h3.8
	h6.8h13.1c7.3,0,15.8,5.9,15.8,13.7v21.1C240.3,163,231.7,168.9,224.5,168.9L224.5,168.9z M227.2,153.1v-17c0-2.8-2.3-5.2-5.2-5.2
	h-26.9c-2.4,0-4.7,1.7-5.1,4.4l0,0c0,0.2-0.1,2.4-0.1,2.6v15c0,2.8,2.3,5.2,5.2,5.2h13.5H222C224.8,158.3,227.2,155.9,227.2,153.1
	L227.2,153.1z M297.7,168.9h-10.8h0h-0.2h-0.2h-0.2h-0.2h-0.2h-0.2h-0.2H285h-0.2h-0.2h-0.2h-0.2h-0.2h-0.2h-0.2h-0.2h-0.2h-17.2
	c-0.8,0-1.6-0.1-2.4-0.2v25.1c0,6.6-5.3,11.9-11.9,11.9h-1.5v-71.6c0-7.8,8.5-13.7,15.8-13.7h2.1h10h1.9h17.9
	c7.3,0,15.8,5.9,15.8,13.7v21.1C313.5,163,304.9,168.9,297.7,168.9L297.7,168.9z M300.3,153.3l0-1.8v-15.4c0-2.8-2.2-5.1-5-5.2h-0.2
	h-26.9c-2.8,0-5.2,2.3-5.2,5.2v17c0,2.8,2.3,5.2,5.2,5.2h26.9C297.9,158.3,300.2,156,300.3,153.3L300.3,153.3z M295.2,131L295.2,131
	l-27,0v0H295.2L295.2,131L295.2,131z M267.9,131c-0.2,0-0.4,0-0.6,0.1C267.5,131,267.7,131,267.9,131L267.9,131z M267.2,131.1
	c-0.3,0.1-0.5,0.1-0.8,0.2C266.6,131.2,266.9,131.1,267.2,131.1L267.2,131.1z M371.1,168.9h-4.2h-6.6h-5.1h-0.4h-15.6
	c-7.3,0-15.8-5.9-15.8-13.7v-21.1c0-7.8,8.5-13.7,15.8-13.7h3.3h5h3.8h6.8h13.1c7.3,0,15.8,5.9,15.8,13.7v21.1
	C386.9,163,378.4,168.9,371.1,168.9L371.1,168.9z M373.8,153.1v-17c0-2.8-2.3-5.2-5.2-5.2h-26.9c-2.4,0-4.7,1.7-5.1,4.4l0,0
	c0,0.2-0.1,2.4-0.1,2.6v15c0,2.8,2.3,5.2,5.2,5.2h13.5h13.5C371.5,158.3,373.8,155.9,373.8,153.1L373.8,153.1z"/>
</svg>
