<?xml version="1.0" encoding="utf-8"?>
<!-- Generator: Adobe Illustrator 22.1.0, SVG Export Plug-In . SVG Version: 6.00 Build 0)  -->
<svg version="1.1" id="Layer_1" xmlns="http://www.w3.org/2000/svg" xmlns:xlink="http://www.w3.org/1999/xlink" x="0px" y="0px"
	 viewBox="0 0 388.9 111.3" style="enable-background:new 0 0 388.9 111.3;" xml:space="preserve">
<style type="text/css">
	.st0{fill:#FFFFFF;}
	.st1{fill:#259738;}
</style>
<rect class="st0" width="388.9" height="111.3"/>
<g>
	<g>
		<g>
			<g>
				<g>
					<g>
						<path class="st1" d="M134,61.6l1,2c-3,1.9-7.1,3-11.3,3c-9.9,0-15.7-5.3-15.7-16.7c0-10.9,4.6-17.6,16.3-17.6
							c5.2,0,8.7,1.1,9.7,1.5c-0.1,2.2-0.1,4.7,0,6.9H132l-0.6-2.1c-0.8-2.5-2.2-4.2-6.7-4.2c-7.1,0-8.9,5.2-8.9,14.2
							c0,8.5,1.8,14.9,9.9,14.9C129.6,63.5,132,62.6,134,61.6z M149.4,35c-2.1,0-2.4,0.5-2.4,1.9v7.9h1.8c9.1,0,15.5,1,15.5,10.2
							c0,8.9-5,11.1-13.1,11.1h-13.3v-1c1.7-0.4,1.9-0.9,1.9-2.7V36.6c0-1.8-0.2-2.3-1.9-2.7v-1h24.7c-0.1,2.4-0.1,4.8,0,7.2h-1.8
							l-0.4-1.4c-1-3.4-2.2-3.7-6.5-3.7H149.4z M151,64c4.3,0,6-2.9,6-8.7c0-5.4-1.5-8.4-7.1-8.4h-2.9v14.2c0,2.1,0.6,2.9,2.9,2.9
							H151z M178.8,35c-1.4,0-1.7,0.4-1.7,1.5v10.3h4.4c1.8,0,4.7-0.2,5.9-1V50c-1.1-0.8-4-1-5.9-1h-4.4v12.4c0,2,0.8,2.7,5.2,2.7
							h0.9c4.3,0,5.4-0.3,6.4-4.4l0.3-1.2h2.1c-0.1,2.6-0.1,5.2,0,7.7h-23.9v-1c1.7-0.4,1.9-0.9,1.9-2.7V36.6c0-1.8-0.2-2.3-1.9-2.7
							v-1h23.1c-0.1,2.4-0.1,4.8,0,7.2h-1.8l-0.4-1.4c-1-3.4-2.2-3.7-6.5-3.7H178.8z M196.3,66.1v-1c1.7-0.4,1.9-0.9,1.9-2.7V36.6
							c0-1.8-0.2-2.3-1.9-2.7v-1H210c6.6,0,11.5,1.6,11.5,9.5c0,8.1-4.9,10.5-12.9,10.5h-3.3v9.4c0,1.8,0.2,2.3,1.9,2.7v1H196.3z
							 M208.7,50.9c4.4,0,5.4-3.6,5.4-8.7c0-4.4-1.5-7.2-6-7.2h-0.8c-1.4,0-2.1,0.2-2.1,1.8l0,14.1H208.7z M235.9,35
							c-2.1,0-2.4,0.5-2.4,1.9v7.9h1.8c9.1,0,15.5,1,15.5,10.2c0,8.9-5,11.1-13.1,11.1h-13.3v-1c1.7-0.4,1.9-0.9,1.9-2.7V36.6
							c0-1.8-0.2-2.3-1.9-2.7v-1h24.7c-0.1,2.4-0.1,4.8,0,7.2h-1.8l-0.4-1.4c-1-3.4-2.2-3.7-6.5-3.7H235.9z M237.5,64
							c4.3,0,6-2.9,6-8.7c0-5.4-1.5-8.4-7.1-8.4h-2.9v14.2c0,2.1,0.6,2.9,2.9,2.9H237.5z M275.1,66.1c-0.3-1.8-1.3-5.1-2.2-7.8
							l-1.4-4.2h-10.5c-1.1,3.3-1.9,6-2.3,7.9c-0.4,1.9-0.7,3.3-0.7,4.1h-6c0.8-1.3,2.3-4.2,4.6-9.8l6.1-15.1
							c1.4-3.4,1.6-4.4,1.6-5.4c0-0.7-0.2-1.6-1.9-1.9v-1h9.5c0.1,1,0.2,2.1,1.2,4.9l7,19.8c1.4,3.9,2.8,7.2,3.6,8.4H275.1z
							 M270.7,51.9l-4.5-13.4l-4.6,13.4H270.7z M307.8,49H295v13.4c0,1.8,0.2,2.3,1.9,2.7v1H286v-1c1.7-0.4,1.9-0.9,1.9-2.7V36.6
							c0-1.8-0.2-2.3-1.9-2.7v-1h10.9v1c-1.7,0.4-1.9,0.9-1.9,2.7v10.2h12.8V36.6c0-1.8-0.2-2.3-1.9-2.7v-1h10.9v1
							c-1.7,0.4-1.9,0.9-1.9,2.7v25.8c0,1.8,0.2,2.3,1.9,2.7v1h-10.9v-1c1.7-0.4,1.9-0.9,1.9-2.7V49z M324,36.6
							c0-1.8-0.2-2.3-1.9-2.7v-1H333v1c-1.7,0.4-1.9,0.9-1.9,2.7v25.8c0,1.8,0.2,2.3,1.9,2.7v1h-10.9v-1c1.7-0.4,1.9-0.9,1.9-2.7
							V36.6z M341.6,51.5c2.3,3.3,7.7,10.6,11.6,14.5h-11.1c-0.8-1.8-2-4.6-5.4-9.8l-5-7.5L336,43c2.6-3.4,6-7.9,6.9-10.1h7.8v0
							c-3.1,1.8-8.4,7.1-9.9,8.8l-3.5,3.7L341.6,51.5z"/>
					</g>
					<rect x="110.6" y="74.3" class="st1" width="242.6" height="3.3"/>
				</g>
			</g>
		</g>
		<path class="st1" d="M91.5,54c0,17.6-14.3,31.9-31.9,31.9C42,85.9,27.7,71.7,27.7,54c0-0.7,0-1.4,0.1-2.1L47.1,63L88,39.5
			C90.2,43.8,91.5,48.8,91.5,54z M47.1,55l-18-10.3c-0.4,1.1-0.6,2.3-0.9,3.5L47.1,59l39.2-22.5c-0.6-1-1.3-1.9-2.1-2.8L47.1,55z
			 M81.7,31c-0.9-0.9-1.8-1.7-2.8-2.4L47.1,47l-15.2-8.7c-0.6,1-1.1,2-1.6,3.1L47.1,51L81.7,31z M47.1,42.9l28.6-16.5
			c-1.2-0.7-2.4-1.3-3.7-1.9L47.1,38.9L36,32.6c-0.8,0.9-1.5,1.8-2.2,2.7L47.1,42.9z"/>
	</g>
</g>
</svg>
