<svg xmlns="http://www.w3.org/2000/svg" xmlns:xlink="http://www.w3.org/1999/xlink" viewBox="0 0 1024.29 278.56"><defs><style>.cls-1{fill:#292929;}.cls-2{fill:#575757;}.cls-3{fill:url(#Безымянный_градиент_335);}.cls-4{fill:url(#Безымянный_градиент_79);}.cls-5{fill:url(#Безымянный_градиент_332);}.cls-6{fill:url(#Безымянный_градиент_332-2);}.cls-7{fill:url(#Безымянный_градиент_331);}</style><linearGradient id="Безымянный_градиент_335" x1="0.03" y1="102.2" x2="280.76" y2="102.2" gradientTransform="matrix(1, 0, 0, -1, 0, 279.83)" gradientUnits="userSpaceOnUse"><stop offset="0" stop-color="#8a3d79"/><stop offset="0.25" stop-color="#824e88"/><stop offset="0.61" stop-color="#3a97ba"/><stop offset="0.74" stop-color="#2ab2c7"/><stop offset="1" stop-color="#7ee8fc"/></linearGradient><linearGradient id="Безымянный_градиент_79" x1="0.03" y1="178.87" x2="237.91" y2="178.87" gradientTransform="matrix(1, 0, 0, -1, 0, 279.83)" gradientUnits="userSpaceOnUse"><stop offset="0" stop-color="#b81f68"/><stop offset="0.25" stop-color="#ed1f55"/><stop offset="0.5" stop-color="#fc4844"/><stop offset="0.75" stop-color="#fc972b"/><stop offset="1" stop-color="#fbc325"/></linearGradient><radialGradient id="Безымянный_градиент_332" cx="35.64" cy="166.24" r="92.36" gradientTransform="matrix(1, 0, 0, -1, 0, 279.83)" gradientUnits="userSpaceOnUse"><stop offset="0" stop-color="#70025a"/><stop offset="1" stop-color="#070606" stop-opacity="0"/></radialGradient><radialGradient id="Безымянный_градиент_332-2" cx="35.64" cy="203.14" r="86.94" xlink:href="#Безымянный_градиент_332"/><linearGradient id="Безымянный_градиент_331" x1="111.43" y1="102.45" x2="-0.57" y2="207.78" gradientTransform="matrix(1, 0, 0, -1, 0, 279.83)" gradientUnits="userSpaceOnUse"><stop offset="0.37" stop-color="#5c2350" stop-opacity="0"/><stop offset="0.68" stop-color="#4f1744" stop-opacity="0.9"/></linearGradient></defs><title>visionlabs_logo_horizontal</title><g id="Слой_2" data-name="Слой 2"><g id="Слой_1-2" data-name="Слой 1"><g id="Слой_2-2" data-name="Слой 2"><g id="Layer_1" data-name="Layer 1"><g id="_Группа_" data-name=" Группа "><g id="_Группа_2" data-name=" Группа 2"><path id="_Составной_контур_" data-name=" Составной контур " class="cls-1" d="M387.25,151.31,352,60.09h22.16l25.3,70.16,25.16-70.16h22.16L411.6,151.31Z"/><path id="_Составной_контур_2" data-name=" Составной контур 2" class="cls-1" d="M453,67.75a10.39,10.39,0,1,1,10.4,10.39A10.39,10.39,0,0,1,453,67.75Zm1.78,83.56V85.25h17.37v66.06Z"/><path id="_Составной_контур_3" data-name=" Составной контур 3" class="cls-1" d="M483.67,142.69l7.52-12.17c4.79,4.51,14.63,9,22.84,9,7.52,0,11.08-3,11.08-7.11,0-10.94-39.25-2-39.25-28,0-11.08,9.71-20.79,27.08-20.79a42.11,42.11,0,0,1,26.67,9l-7,11.9c-4-4.24-11.49-7.66-19.56-7.66-6.29,0-10.39,2.87-10.39,6.56,0,9.85,39.11,1.64,39.11,28.31,0,12-10.26,21.2-28.58,21.2C501.72,152.92,490.64,149.12,483.67,142.69Z"/><path id="_Составной_контур_4" data-name=" Составной контур 4" class="cls-1" d="M552.87,67.75a10.39,10.39,0,1,1,10.39,10.39A10.39,10.39,0,0,1,552.87,67.75Zm1.78,83.56V85.25H572v66.06Z"/><path id="_Составной_контур_5" data-name=" Составной контур 5" class="cls-1" d="M585,118.21c0-18.74,13.13-34.6,34.88-34.6s35,15.86,35,34.6-13.14,34.71-35,34.71S585,137.09,585,118.21Zm51.83,0c0-10.26-6.16-19.15-17-19.15S603,107.92,603,118.21s6,19.28,16.82,19.28,17-8.88,17-19.28Z"/><path id="_Составной_контур_6" data-name=" Составной контур 6" class="cls-1" d="M712.34,151.31V111.38c0-9.16-4.79-12.31-12.17-12.31a18.79,18.79,0,0,0-15,7.8v44.45H667.75V85.25h17.37v8.62a30.24,30.24,0,0,1,23.11-10.26c14.5,0,21.47,8.21,21.47,21.06v46.64Z"/><path id="_Составной_контур_7" data-name=" Составной контур 7" class="cls-1" d="M747.35,151.31V60.09h19.42v74.13h38.57v17.1Z"/><path id="_Составной_контур_8" data-name=" Составной контур 8" class="cls-1" d="M857.17,151.31v-6.84c-4.51,5.33-12.31,8.48-20.92,8.48-10.53,0-23-7.11-23-21.88,0-15.45,12.45-21.34,23-21.34,8.75,0,16.55,2.87,20.92,8.07v-8.88c0-6.7-5.74-11.08-14.5-11.08a27.73,27.73,0,0,0-19.28,7.8L816.83,94a43.26,43.26,0,0,1,28.86-10.39c15,0,28.86,6,28.86,25v42.67Zm0-15.86v-8.21c-2.87-3.83-8.34-5.74-13.95-5.74-6.84,0-12.45,3.56-12.45,10,0,6.15,5.61,9.71,12.45,9.71C848.83,141.19,854.3,139.28,857.17,135.45Z"/><path id="_Составной_контур_9" data-name=" Составной контур 9" class="cls-1" d="M891.78,151.31V60.09h17.37V93.73a25.39,25.39,0,0,1,20.38-10.12c16.82,0,29.27,13.13,29.27,34.74,0,22-12.58,34.6-29.27,34.6a25.66,25.66,0,0,1-20.38-10.12v8.48ZM924,137.5c10.12,0,16.82-7.66,16.82-19.15S934.15,99.07,924,99.07c-5.61,0-12,3.28-14.91,7.66v23.39C912,134.35,918.44,137.5,924,137.5Z"/><path id="_Составной_контур_10" data-name=" Составной контур 10" class="cls-1" d="M966.18,142.69l7.52-12.17c4.79,4.51,14.63,9,22.84,9,7.52,0,11.08-3,11.08-7.11,0-10.94-39.25-2-39.25-28,0-11.08,9.71-20.79,27.08-20.79a42.11,42.11,0,0,1,26.67,9l-7,11.9c-4-4.24-11.49-7.66-19.56-7.66-6.29,0-10.39,2.87-10.39,6.56,0,9.85,39.12,1.64,39.12,28.31,0,12-10.26,21.2-28.58,21.2C984.23,152.92,973.15,149.12,966.18,142.69Z"/></g><g id="_Группа_3" data-name=" Группа 3"><path id="_Составной_контур_11" data-name=" Составной контур 11" class="cls-2" d="M406.48,227.92V204.55l-9.7,23.37h-2.37l-9.65-23.42v23.42h-5.53V196.41H387l8.56,20.77,8.61-20.77H412v31.51Z"/><path id="_Составной_контур_12" data-name=" Составной контур 12" class="cls-2" d="M454,227.92l-2.28-6H437.27l-2.31,6h-6.29L441,196.41h6.91l12.42,31.51Zm-9.56-26-5.68,15h11.35Z"/><path id="_Составной_контур_13" data-name=" Составной контур 13" class="cls-2" d="M474,212.21c0-9.7,7.24-16.32,16.56-16.32a14.26,14.26,0,0,1,12.68,7.1l-4.73,2.41a9.34,9.34,0,0,0-7.95-4.59c-6.24,0-10.88,4.78-10.88,11.4s4.64,11.4,10.88,11.4a9.29,9.29,0,0,0,7.95-4.59l4.73,2.41a14.35,14.35,0,0,1-12.68,7.1C481.22,228.53,474,221.92,474,212.21Z"/><path id="_Составной_контур_14" data-name=" Составной контур 14" class="cls-2" d="M542.85,227.92V214.2H526.43v13.72H520.9V196.41h5.53v12.91h16.41V196.41h5.53v31.51Z"/><path id="_Составной_контур_15" data-name=" Составной контур 15" class="cls-2" d="M568.34,227.92V196.41h5.53v31.51Z"/><path id="_Составной_контур_16" data-name=" Составной контур 16" class="cls-2" d="M615.83,227.92,599.37,205.4v22.52h-5.53V196.41h5.68l16.13,21.9v-21.9h5.54v31.51Z"/><path id="_Составной_контур_17" data-name=" Составной контур 17" class="cls-2" d="M641.14,227.92V196.41h21.62v4.87H646.67v8.18h15.75v4.87H646.67v8.75h16.08v4.84Z"/><path id="_Составной_контур_18" data-name=" Составной контур 18" class="cls-2" d="M679.64,223.52l3.07-4.26a13.63,13.63,0,0,0,10,4.35c4.54,0,6.34-2.22,6.34-4.3,0-6.62-18.4-2.51-18.4-14.14,0-5.2,4.59-9.22,11.49-9.22a16.39,16.39,0,0,1,11.83,4.4l-3.17,4.12a12.83,12.83,0,0,0-9.13-3.59c-3.26,0-5.34,1.56-5.34,3.93,0,5.87,18.35,2.22,18.35,14,0,5.25-3.69,9.74-12.2,9.74C686.64,228.53,682.43,226.5,679.64,223.52Z"/><path id="_Составной_контур_19" data-name=" Составной контур 19" class="cls-2" d="M747,212.21c0-9.7,7.24-16.32,16.56-16.32a14.26,14.26,0,0,1,12.68,7.1l-4.73,2.41a9.34,9.34,0,0,0-7.95-4.59c-6.24,0-10.88,4.78-10.88,11.4s4.64,11.4,10.88,11.4a9.29,9.29,0,0,0,7.95-4.59l4.73,2.41a14.35,14.35,0,0,1-12.68,7.1C754.23,228.53,747,221.92,747,212.21Z"/><path id="_Составной_контур_20" data-name=" Составной контур 20" class="cls-2" d="M815.77,227.92l-2.32-6H799l-2.32,6h-6.29l12.39-31.55h6.91L822,227.92Zm-9.55-26-5.68,15h11.35Z"/><path id="_Составной_контур_21" data-name=" Составной контур 21" class="cls-2" d="M860.75,227.92,844.29,205.4v22.52h-5.53V196.41h5.68l16.13,21.9v-21.9h5.53v31.51Z"/><path id="_Составной_контур_22" data-name=" Составной контур 22" class="cls-2" d="M909.42,223.52l3.07-4.26a13.63,13.63,0,0,0,10,4.35c4.54,0,6.34-2.22,6.34-4.3,0-6.62-18.4-2.51-18.4-14.14,0-5.2,4.59-9.22,11.49-9.22a16.39,16.39,0,0,1,11.83,4.4l-3.17,4.12a12.83,12.83,0,0,0-9.13-3.59c-3.26,0-5.34,1.56-5.34,3.93,0,5.87,18.35,2.22,18.35,14,0,5.25-3.69,9.74-12.2,9.74C916.42,228.53,912.21,226.5,909.42,223.52Z"/><path id="_Составной_контур_23" data-name=" Составной контур 23" class="cls-2" d="M952.8,227.92V196.41h21.62v4.87H958.33v8.18h15.75v4.87H958.33v8.75h16.08v4.84Z"/><path id="_Составной_контур_24" data-name=" Составной контур 24" class="cls-2" d="M993.33,227.92V196.41H1015v4.87H998.87v8.18h15.75v4.87H998.87v8.75H1015v4.84Z"/></g></g><g id="_Группа_4" data-name=" Группа 4"><path id="_Контур_" data-name=" Контур " class="cls-3" d="M280.76,139.38A140.37,140.37,0,0,1,0,139.38a.11.11,0,0,1,.08-.08A187.8,187.8,0,0,1,138.57,76.7a62.62,62.62,0,0,0,0,125.18h3.62a188,188,0,0,0,138.5-62.58S280.74,139.34,280.76,139.38Z"/><path id="_Контур_2" data-name=" Контур 2" class="cls-4" d="M280.76,139.2l-.07.1A188,188,0,0,1,142.2,201.92a62.62,62.62,0,0,0,0-125.18h-3.62A187.84,187.84,0,0,0,.11,139.29l-.08-.1a140.37,140.37,0,0,1,280.73,0Z"/><g id="_Группа_5" data-name=" Группа 5"><path id="_Контур_3" data-name=" Контур 3" class="cls-5" d="M128,77.92c4.92-.8,8.31-1.08,9.74-1.17A61.38,61.38,0,0,0,128,77.92Z"/><path id="_Контур_4" data-name=" Контур 4" class="cls-6" d="M138.58,76.7h0Z"/><path id="_Контур_5" data-name=" Контур 5" class="cls-6" d="M138.58,76.7h0Z"/></g></g><path class="cls-7" d="M132,77.21c.54-.06,2.12-.26,3.58-.37s2.93-.15,2.93-.15A189.47,189.47,0,0,0,76.92,87.63C27.44,105.26,0,139.36,0,139.36c-.56,21.94,7.61,45.77,7.61,45.77a145.57,145.57,0,0,0,25.93,45.23s32.11-81.6,49.73-116.89c3.11-6.17,10.23-20.55,28.73-30A61.93,61.93,0,0,1,132,77.21Z"/></g></g></g></g></svg>