<?xml version="1.0" encoding="utf-8"?>
<!-- Generator: Adobe Illustrator 22.1.0, SVG Export Plug-In . SVG Version: 6.00 Build 0)  -->
<svg version="1.1" id="Layer_1" xmlns="http://www.w3.org/2000/svg" xmlns:xlink="http://www.w3.org/1999/xlink" x="0px" y="0px"
	 viewBox="0 0 212.4 113.7" style="enable-background:new 0 0 212.4 113.7;" xml:space="preserve">
<style type="text/css">
	.st0{opacity:0.5;fill:#6EEA00;}
	.st1{opacity:0.6;fill:#6EEA00;}
	.st2{opacity:0.7;fill:#6EEA00;}
	.st3{opacity:0.8;fill:#6EEA00;}
	.st4{opacity:0.9;fill:#6EEA00;}
	.st5{fill:#6EEA00;}
</style>
<g id="XMLID_710_">
	<path id="XMLID_735_" class="st0" d="M69,82.1c-2.9,0-5.6-0.9-7.8-2.6c-1.3-1-2.9-1.5-4.5-1.5c-1.7,0-3.3,0.5-4.6,1.6l-0.1,0
		c-2.2,1.7-4.9,2.6-7.7,2.6c-7.1,0-12.9-5.8-12.9-12.9c0-2.9,0.9-5.6,2.6-7.8l0,0c1-1.3,1.5-2.9,1.5-4.5c0-1.7-0.5-3.3-1.6-4.6
		l-0.1-0.1c-1.7-2.2-2.5-4.9-2.5-7.7c0-7.1,5.8-12.9,12.9-12.9c2.9,0,5.6,0.9,7.8,2.6c1.3,1,2.9,1.5,4.5,1.5c1.7,0,3.3-0.5,4.6-1.6
		c2.3-1.7,5-2.6,7.8-2.6c7.1,0,12.9,5.8,12.9,12.9c0,2.9-0.9,5.6-2.6,7.8c-1,1.3-1.5,2.9-1.5,4.5c0,1.7,0.5,3.3,1.6,4.6l0,0
		c1.7,2.3,2.6,4.9,2.6,7.8C81.9,76.4,76.1,82.1,69,82.1z M56.6,76.3c2,0,3.9,0.6,5.5,1.9c2,1.5,4.4,2.3,6.9,2.3
		c6.2,0,11.3-5.1,11.3-11.3c0-2.5-0.8-4.8-2.3-6.8l0,0c-1.2-1.6-1.9-3.5-1.9-5.6c0-2,0.6-3.9,1.9-5.5c1.5-2,2.3-4.4,2.3-6.8
		c0-6.2-5.1-11.3-11.3-11.3c-2.5,0-4.8,0.8-6.8,2.3c-1.6,1.2-3.5,1.9-5.6,1.9c-2,0-3.9-0.6-5.5-1.9c-2-1.5-4.4-2.3-6.9-2.3
		c-6.2,0-11.3,5.1-11.3,11.3c0,2.5,0.8,4.8,2.3,6.8l0.1,0.1c1.2,1.6,1.9,3.5,1.9,5.5c0,2-0.6,3.9-1.9,5.5l0,0
		c-1.5,2-2.3,4.3-2.3,6.8c0,6.2,5.1,11.3,11.3,11.3c2.5,0,4.8-0.8,6.8-2.3l0,0C52.7,77,54.6,76.3,56.6,76.3z"/>
	<path id="XMLID_732_" class="st0" d="M70.5,85.1c-3.2,0-6.2-1-8.7-3c-1.5-1.1-3.3-1.7-5.2-1.7c-1.9,0-3.7,0.6-5.2,1.8
		c-2.5,1.9-5.5,2.9-8.7,2.9c-7.9,0-14.4-6.5-14.4-14.4c0-3.2,1-6.2,3-8.7v0c1.1-1.5,1.7-3.3,1.7-5.1c0-1.9-0.6-3.7-1.8-5.2l0-0.1
		c-1.9-2.5-2.9-5.5-2.9-8.6c0-7.9,6.5-14.4,14.4-14.4c3.2,0,6.2,1,8.7,3c1.5,1.1,3.3,1.7,5.2,1.7c1.9,0,3.7-0.6,5.2-1.8
		c2.5-1.9,5.5-2.9,8.7-2.9c7.9,0,14.4,6.5,14.4,14.4c0,3.2-1,6.2-2.9,8.7c-1.1,1.5-1.7,3.3-1.7,5.2c0,1.9,0.6,3.7,1.8,5.2l0,0
		c1.9,2.5,2.9,5.5,2.9,8.6C84.9,78.7,78.4,85.1,70.5,85.1z M56.6,78.8c2.2,0,4.4,0.7,6.1,2.1c2.3,1.7,4.9,2.6,7.8,2.6
		c7,0,12.8-5.7,12.8-12.8c0-2.8-0.9-5.4-2.6-7.7l0,0c-1.4-1.8-2.1-3.9-2.1-6.2c0-2.2,0.7-4.4,2.1-6.1c1.7-2.3,2.6-4.9,2.6-7.7
		c0-7-5.7-12.8-12.8-12.8c-2.8,0-5.5,0.9-7.7,2.6c-1.8,1.4-3.9,2.1-6.2,2.1c-2.2,0-4.4-0.7-6.1-2.1c-2.3-1.7-4.9-2.6-7.8-2.6
		c-7,0-12.8,5.7-12.8,12.8c0,2.8,0.9,5.5,2.6,7.7l0,0.1c1.4,1.8,2.1,3.9,2.1,6.2c0,2.2-0.7,4.4-2.1,6.1l0,0
		c-1.7,2.2-2.6,4.9-2.6,7.7c0,7,5.7,12.8,12.8,12.8c2.8,0,5.5-0.9,7.7-2.6C52.2,79.5,54.3,78.8,56.6,78.8z"/>
	<path id="XMLID_729_" class="st1" d="M67.5,79.2c-2.5,0-4.9-0.8-6.9-2.3c-2.3-1.8-5.6-1.7-7.9,0c-2,1.5-4.4,2.3-6.9,2.3
		c-6.3,0-11.4-5.1-11.4-11.4c0-2.5,0.8-4.9,2.3-6.9l0.1-0.1c0.8-1.1,1.3-2.4,1.3-3.8c0-1.4-0.5-2.8-1.4-4l-0.1-0.1
		c-1.5-2-2.2-4.3-2.2-6.8c0-6.3,5.1-11.4,11.4-11.4c2.5,0,4.9,0.8,6.9,2.3c2.3,1.8,5.6,1.7,7.9,0c2-1.5,4.4-2.3,6.9-2.3
		c6.3,0,11.4,5.1,11.4,11.4c0,2.5-0.8,4.9-2.3,6.9c-0.9,1.1-1.3,2.5-1.3,3.9c0,1.4,0.5,2.8,1.4,4l0,0c1.5,2,2.3,4.4,2.3,6.9
		C78.9,74,73.8,79.2,67.5,79.2z M56.6,73.9c1.8,0,3.5,0.6,4.9,1.7c1.7,1.3,3.8,2,6,2c5.4,0,9.8-4.4,9.8-9.8c0-2.1-0.7-4.2-2-5.9l0,0
		c-1.1-1.4-1.7-3.1-1.7-4.9c0-1.8,0.6-3.5,1.7-4.9c1.3-1.7,2-3.8,2-6c0-5.4-4.4-9.8-9.8-9.8c-2.2,0-4.2,0.7-5.9,2
		c-1.4,1.1-3.1,1.7-5,1.7c-1.8,0-3.5-0.6-4.9-1.7c-1.7-1.3-3.8-2-6-2c-5.4,0-9.8,4.4-9.8,9.8c0,2.1,0.7,4.2,2,5.9l0.1,0.1
		c1.1,1.4,1.6,3.1,1.6,4.9c0,0,0,0,0,0.1l0,0l0,0.1c0,1.8-0.6,3.4-1.7,4.8l-0.1,0.1c-1.3,1.7-1.9,3.7-1.9,5.8c0,5.4,4.4,9.8,9.8,9.8
		c2.2,0,4.2-0.7,5.9-2C53.1,74.4,54.8,73.9,56.6,73.9z"/>
	<path id="XMLID_726_" class="st2" d="M66.1,76.4c-2.2,0-4.4-0.7-6.1-2.1c-2-1.5-4.8-1.5-6.8,0c-1.8,1.3-3.9,2-6.1,2
		c-5.6,0-10.1-4.5-10.1-10.1c0-2.2,0.7-4.4,2.1-6.1h0c0.7-1,1.1-2.1,1.1-3.4c0-1.2-0.4-2.4-1.2-3.4L39,53.4c-1.3-1.8-2-3.8-2-6
		c0-5.6,4.5-10.1,10.1-10.1c2.2,0,4.4,0.7,6.1,2.1c2,1.5,4.8,1.5,6.8,0l0.1-0.1c1.7-1.3,3.8-2,6-2c5.6,0,10.1,4.5,10.1,10.1
		c0,2.2-0.7,4.3-2,6.1l0,0.1c-0.7,1-1.1,2.1-1.1,3.4c0,1.2,0.4,2.4,1.2,3.4l0,0c1.3,1.8,2,3.9,2,6.1C76.2,71.9,71.6,76.4,66.1,76.4z
		 M56.6,71.6c1.6,0,3.1,0.5,4.3,1.5c1.5,1.1,3.3,1.7,5.1,1.7c4.7,0,8.5-3.8,8.5-8.5c0-1.9-0.6-3.6-1.7-5.1l0,0
		c-1-1.3-1.5-2.8-1.5-4.4c0-1.6,0.5-3.1,1.4-4.3l0-0.1c1.1-1.5,1.7-3.3,1.7-5.1c0-4.7-3.8-8.5-8.5-8.5c-1.9,0-3.6,0.6-5.1,1.7l0,0
		c-1.3,1-2.8,1.5-4.4,1.5c-1.6,0-3.1-0.5-4.3-1.5c-1.5-1.1-3.3-1.7-5.1-1.7c-4.7,0-8.5,3.8-8.5,8.5c0,1.9,0.6,3.6,1.7,5.1l0,0.1
		c1,1.3,1.5,2.8,1.5,4.3c0,1.6-0.5,3.1-1.5,4.3v0c-1.1,1.5-1.7,3.3-1.7,5.1c0,4.7,3.8,8.5,8.5,8.5c1.9,0,3.6-0.6,5.1-1.7
		C53.5,72.1,55,71.6,56.6,71.6z"/>
	<path id="XMLID_723_" class="st3" d="M64.7,73.7c-1.9,0-3.8-0.6-5.3-1.8c-1.6-1.3-4-1.2-5.6,0L53.7,72c-1.5,1.1-3.3,1.7-5.2,1.7
		c-4.8,0-8.8-3.9-8.8-8.8c0-1.9,0.6-3.8,1.8-5.3l0,0c0.6-0.8,0.9-1.8,0.9-2.8c0-1-0.3-2-1-2.8c-1.2-1.5-1.8-3.4-1.8-5.3
		c0-4.8,3.9-8.8,8.8-8.8c1.9,0,3.8,0.6,5.3,1.8c1.6,1.3,4,1.2,5.6,0c1.5-1.2,3.4-1.8,5.3-1.8c4.8,0,8.8,3.9,8.8,8.8
		c0,1.9-0.6,3.8-1.8,5.3c-0.6,0.8-1,1.8-1,2.8c0,1,0.3,2,1,2.8l0,0c1.1,1.5,1.8,3.3,1.8,5.3C73.5,69.8,69.5,73.7,64.7,73.7z
		 M56.6,69.3c1.4,0,2.7,0.4,3.8,1.3c1.3,1,2.8,1.5,4.3,1.5c3.9,0,7.1-3.2,7.1-7.1c0-1.6-0.5-3-1.4-4.3l0,0c-0.9-1.1-1.3-2.4-1.3-3.8
		c0-1.4,0.4-2.7,1.3-3.8c1-1.3,1.5-2.7,1.5-4.3c0-3.9-3.2-7.1-7.1-7.1c-1.6,0-3,0.5-4.3,1.4c-2.2,1.7-5.4,1.7-7.6,0
		c-1.3-1-2.7-1.5-4.3-1.5c-3.9,0-7.1,3.2-7.1,7.1c0,1.6,0.5,3,1.4,4.3c0.9,1.1,1.3,2.4,1.3,3.8c0,1.4-0.4,2.7-1.3,3.8l0,0
		c-1,1.2-1.5,2.7-1.5,4.3c0,3.9,3.2,7.1,7.1,7.1c1.6,0,3-0.5,4.3-1.4C53.9,69.8,55.2,69.3,56.6,69.3z"/>
	<path id="XMLID_720_" class="st3" d="M63.3,71c-1.6,0-3.2-0.5-4.5-1.5c-1.3-1-3.2-1-4.5,0c-1.3,1-2.8,1.5-4.5,1.5
		c-4.1,0-7.4-3.3-7.4-7.4c0-1.6,0.5-3.2,1.5-4.5c0.5-0.6,0.8-1.4,0.8-2.2c0-0.8-0.3-1.6-0.8-2.3l-0.1-0.1c-0.9-1.3-1.4-2.8-1.4-4.4
		c0-4.1,3.3-7.4,7.4-7.4c1.6,0,3.2,0.5,4.5,1.5c1.3,1,3.2,1,4.5,0c1.3-1,2.8-1.5,4.5-1.5c4.1,0,7.4,3.3,7.4,7.4
		c0,1.6-0.5,3.2-1.5,4.5c-0.5,0.7-0.8,1.4-0.8,2.2c0,0.8,0.3,1.6,0.8,2.3l0,0c1,1.3,1.5,2.8,1.5,4.4C70.7,67.7,67.4,71,63.3,71z
		 M56.6,67.1c1.2,0,2.3,0.4,3.2,1.1c1,0.8,2.2,1.2,3.5,1.2c3.2,0,5.8-2.6,5.8-5.8c0-1.3-0.4-2.5-1.2-3.5c-0.7-1-1.1-2.1-1.1-3.3
		c0-1.2,0.4-2.3,1.1-3.2c0.8-1,1.2-2.2,1.2-3.5c0-3.2-2.6-5.8-5.8-5.8c-1.3,0-2.5,0.4-3.5,1.2c-1.9,1.4-4.6,1.5-6.5,0
		c-1-0.8-2.2-1.2-3.5-1.2c-3.2,0-5.8,2.6-5.8,5.8c0,1.3,0.4,2.5,1.2,3.5l0.1,0.1c0.7,0.9,1,2,1,3.2c0,1.2-0.4,2.3-1.1,3.2
		c-0.8,1-1.2,2.2-1.2,3.5c0,3.2,2.6,5.8,5.8,5.8c1.3,0,2.5-0.4,3.5-1.2C54.3,67.5,55.4,67.1,56.6,67.1z"/>
	<path id="XMLID_717_" class="st4" d="M62,68.3c-1.3,0-2.6-0.4-3.7-1.2c-1-0.8-2.4-0.7-3.4,0c-1.1,0.8-2.3,1.2-3.7,1.2
		c-3.3,0-6.1-2.7-6.1-6.1c0-1.3,0.4-2.6,1.2-3.7c0.4-0.5,0.6-1.1,0.6-1.7c0-0.6-0.2-1.2-0.6-1.7l-0.1-0.1c-0.8-1-1.2-2.3-1.2-3.6
		c0-3.3,2.7-6.1,6.1-6.1c1.3,0,2.6,0.4,3.7,1.2c1,0.8,2.4,0.7,3.4,0c1.1-0.8,2.3-1.2,3.7-1.2c3.3,0,6.1,2.7,6.1,6.1
		c0,1.3-0.4,2.6-1.2,3.6l-0.1,0.1c-0.4,0.5-0.6,1.1-0.6,1.7c0,0.6,0.2,1.2,0.6,1.7l0,0c0.8,1.1,1.2,2.3,1.2,3.6
		C68,65.6,65.3,68.3,62,68.3z M56.6,64.8c1,0,1.9,0.3,2.7,0.9c0.8,0.6,1.7,0.9,2.7,0.9c2.4,0,4.4-2,4.4-4.4c0-1-0.3-1.9-0.9-2.7l0,0
		c-0.6-0.7-0.9-1.7-0.9-2.7c0-0.9,0.3-1.8,0.9-2.6l0.1-0.1c0.6-0.8,0.9-1.7,0.9-2.7c0-2.4-2-4.4-4.4-4.4c-1,0-1.9,0.3-2.7,0.9
		c-1.5,1.2-3.8,1.2-5.4,0c-0.8-0.6-1.7-0.9-2.7-0.9c-2.4,0-4.4,2-4.4,4.4c0,1,0.3,1.9,0.9,2.7l0,0.1c0.6,0.8,0.9,1.7,0.9,2.6
		c0,1-0.3,1.9-0.9,2.7c-0.6,0.8-0.9,1.7-0.9,2.7c0,2.4,2,4.4,4.4,4.4c1,0,1.9-0.3,2.7-0.9C54.7,65.2,55.6,64.8,56.6,64.8z"/>
	<path id="XMLID_714_" class="st5" d="M60.6,65.6c-1,0-2-0.3-2.9-1l0,0c-0.7-0.5-1.6-0.5-2.2,0c-0.8,0.6-1.8,1-2.9,1
		c-2.6,0-4.7-2.1-4.7-4.7c0-1,0.3-2,1-2.9c0.2-0.3,0.4-0.7,0.4-1.1c0-0.4-0.1-0.8-0.4-1.1c-0.6-0.8-1-1.8-1-2.8
		c0-2.6,2.1-4.7,4.7-4.7c1,0,2,0.3,2.9,1c0.7,0.5,1.6,0.5,2.3,0l0.1-0.1c0.8-0.6,1.8-0.9,2.8-0.9c2.6,0,4.7,2.1,4.7,4.7
		c0,1-0.3,2-1,2.9c-0.3,0.3-0.4,0.7-0.4,1.1c0,0.4,0.1,0.8,0.4,1.1l0,0c0.6,0.8,0.9,1.8,0.9,2.8C65.3,63.4,63.2,65.6,60.6,65.6z
		 M58.7,63.3c0.5,0.4,1.2,0.6,1.8,0.6c1.7,0,3.1-1.4,3.1-3.1c0-0.7-0.2-1.3-0.6-1.9l0,0c-0.5-0.6-0.7-1.4-0.7-2.1
		c0-0.8,0.2-1.5,0.7-2.1c0.4-0.5,0.6-1.2,0.6-1.9c0-1.7-1.4-3.1-3.1-3.1c-0.7,0-1.3,0.2-1.9,0.6l-0.1,0c-1.2,0.9-3,0.9-4.2,0
		c-0.5-0.4-1.2-0.6-1.9-0.6c-1.7,0-3.1,1.4-3.1,3.1c0,0.7,0.2,1.3,0.6,1.9c0.5,0.6,0.7,1.3,0.7,2.1c0,0.8-0.2,1.5-0.7,2.1
		c-0.4,0.5-0.6,1.2-0.6,1.9c0,1.7,1.4,3.1,3.1,3.1c0.7,0,1.3-0.2,1.9-0.6C55.7,62.4,57.5,62.4,58.7,63.3L58.7,63.3z"/>
	<path id="XMLID_711_" class="st5" d="M59.2,62.8c-0.7,0-1.5-0.2-2-0.7l0,0c-0.3-0.2-0.8-0.2-1.1,0c-0.6,0.5-1.3,0.7-2,0.7
		c-1.9,0-3.4-1.5-3.4-3.4c0-0.7,0.2-1.5,0.7-2c0.1-0.2,0.2-0.4,0.2-0.6c0-0.3-0.1-0.5-0.2-0.6l-0.1-0.1c-0.4-0.6-0.6-1.3-0.6-2
		c0-1.9,1.5-3.4,3.4-3.4c0.7,0,1.5,0.2,2,0.7c0.3,0.3,0.8,0.3,1.1,0c0.6-0.5,1.3-0.7,2-0.7c1.9,0,3.4,1.5,3.4,3.4
		c0,0.7-0.2,1.5-0.7,2c-0.1,0.2-0.2,0.4-0.2,0.6c0,0.2,0.1,0.4,0.2,0.6l0,0c0.4,0.6,0.7,1.3,0.7,2C62.6,61.3,61.1,62.8,59.2,62.8z
		 M58.2,60.9c0.3,0.2,0.7,0.3,1,0.3c1,0,1.7-0.8,1.7-1.7c0-0.4-0.1-0.7-0.3-1l0,0c-0.3-0.4-0.5-1-0.5-1.6c0-0.6,0.2-1.1,0.5-1.6
		c0.2-0.3,0.4-0.7,0.4-1.1c0-1-0.8-1.7-1.7-1.7c-0.4,0-0.7,0.1-1,0.4c-0.9,0.7-2.2,0.7-3.1,0c-0.3-0.2-0.7-0.4-1.1-0.4
		c-1,0-1.7,0.8-1.7,1.7c0,0.4,0.1,0.7,0.3,1l0,0.1c0.3,0.4,0.5,1,0.5,1.5c0,0.6-0.2,1.1-0.5,1.6c-0.2,0.3-0.4,0.7-0.4,1.1
		c0,1,0.8,1.7,1.7,1.7c0.4,0,0.7-0.1,1-0.4C55.9,60.2,57.2,60.2,58.2,60.9L58.2,60.9z"/>
</g>
<g id="XMLID_691_">
	<g id="XMLID_705_">
		<g id="XMLID_706_">
			<path id="XMLID_707_" d="M111.2,70.5h3.3l12.1-21.3h-3.3l-4.9,8.7l-5.2-8.7h-3.4l6.8,11.6L111.2,70.5z"/>
		</g>
	</g>
	<g id="XMLID_702_">
		<path id="XMLID_703_" d="M95.2,64.3h12.7v-2.7h-8.8l8.6-10.1v-2.4H95.5V52h8.5l-8.8,10.1V64.3z"/>
	</g>
	<g id="XMLID_698_">
		<g id="XMLID_699_">
			<path id="XMLID_700_" d="M141,64.4h3V56c0-2.4,1.4-4.1,3.5-4.1c0.8,0,1.7,0.2,2.3,0.5l0.4,0.2l0.7-3l-0.3-0.1
				c-0.8-0.4-1.7-0.5-2.8-0.5c-1.3,0-2.9,0.9-3.6,1.8l-0.3,0.4v-1.9h-3L141,64.4z"/>
		</g>
	</g>
	<path id="XMLID_695_" d="M164.2,49.3l0,2l-0.3-0.3c-1.4-1.3-2.9-2-4.7-2c-4.3,0-7.6,3.4-7.6,7.8c0,4.5,3.3,7.8,7.6,7.8
		c1.7,0,3.4-0.7,4.7-2l0.3-0.3l0,2h3V49.3H164.2z M159.5,61.6c-2.7,0-4.6-2-4.6-4.8c0-2.8,1.9-4.8,4.6-4.8c2.6,0,4.6,2,4.6,4.8
		C164.1,59.6,162.2,61.6,159.5,61.6z"/>
	<g id="XMLID_692_">
		<path id="XMLID_693_" d="M128.9,64.4h3l0-12.3h5.8v-2.8h-5.8l0-1.9c0.1-1.6,1.4-2.9,3-2.9c0.8,0,1.5,0.4,2.1,0.8
			c0.1,0,0.2,0.1,0.2,0.1l1.1-2.5c-1.1-0.7-2.2-1.2-3.8-1.2c-4,0-5.5,3.2-5.6,6.2V64.4z"/>
	</g>
</g>
</svg>
