<?xml version="1.0" encoding="utf-8"?>
<!-- Generator: Adobe Illustrator 16.0.0, SVG Export Plug-In . SVG Version: 6.00 Build 0)  -->
<!DOCTYPE svg PUBLIC "-//W3C//DTD SVG 1.1//EN" "http://www.w3.org/Graphics/SVG/1.1/DTD/svg11.dtd">
<svg version="1.1" id="Layer_1" xmlns="http://www.w3.org/2000/svg" xmlns:xlink="http://www.w3.org/1999/xlink" x="0px" y="0px"
	 width="200px" height="200px" viewBox="0 0 200 200" enable-background="new 0 0 200 200" xml:space="preserve">
<polygon opacity="0.33" fill="#FFFFFF" points="16.681,146.58 50.928,125.863 50.926,72.244 16.681,51.527 "/>
<polygon opacity="0.5" fill="#FFFFFF" points="181.319,146.58 147.08,125.863 147.074,72.344 181.318,51.626 "/>
<polygon opacity="0.33" fill="#FFFFFF" points="16.681,51.527 50.926,72.244 99.002,44.489 99.003,4 "/>
<polygon opacity="0.5" fill="#FFFFFF" points="181.322,51.527 147.078,72.244 99.002,44.489 99,4 "/>
<polygon opacity="0.5" fill="#FFFFFF" points="16.683,146.58 50.928,125.863 99.004,153.619 99.005,194.107 "/>
<polygon opacity="0.33" fill="#FFFFFF" points="181.324,146.58 147.08,125.863 99.004,153.619 99.002,194.107 "/>
<polygon fill="#FFFFFF" points="163.636,61.74 163.636,136.368 99.005,173.682 34.375,136.368 34.375,61.74 99.009,24.426 "/>
</svg>
