<?xml version="1.0" encoding="utf-8"?>
<!-- Generator: Adobe Illustrator 16.0.0, SVG Export Plug-In . SVG Version: 6.00 Build 0)  -->
<!DOCTYPE svg PUBLIC "-//W3C//DTD SVG 1.1//EN" "http://www.w3.org/Graphics/SVG/1.1/DTD/svg11.dtd">
<svg version="1.1" xmlns="http://www.w3.org/2000/svg" xmlns:xlink="http://www.w3.org/1999/xlink" x="0px" y="0px"
	 width="175.748px" height="122.667px" viewBox="0 7.071 175.748 122.667" enable-background="new 0 7.071 175.748 122.667"
	 xml:space="preserve">
<g id="Layer_5">
	<g id="Layer_6" display="none">
		<rect x="-16.376" y="3.904" display="inline" fill="#D30060" width="234.5" height="175.5"/>
	</g>
	<polygon fill="#FFFFFF" stroke="#FFFFFF" stroke-width="8" points="121.399,18.751 54.35,18.751 13.101,54.999 87.874,118.398 
		162.647,54.999 	"/>
	<polygon display="none" fill="#FFFFFF" points="123.85,12.24 51.899,12.24 3.154,55.076 87.874,126.907 172.595,55.076 	"/>
</g>
<g id="Layer_3_1_">
	<g>
		<path d="M42.189,47.824h4.914c1.344,0,2.46,0.21,3.35,0.63c0.889,0.42,1.599,0.98,2.131,1.68c0.532,0.7,0.907,1.499,1.124,2.394
			c0.217,0.896,0.326,1.82,0.326,2.772c0,1.064-0.137,2.055-0.41,2.972s-0.696,1.711-1.271,2.383s-1.298,1.201-2.173,1.585
			c-0.875,0.385-1.915,0.578-3.119,0.578h-4.872V47.824z M47.145,62.021c0.7,0,1.404-0.108,2.111-0.326
			c0.707-0.217,1.347-0.581,1.921-1.092c0.574-0.511,1.04-1.197,1.396-2.058s0.536-1.942,0.536-3.245
			c0-1.021-0.102-1.897-0.305-2.625c-0.203-0.728-0.469-1.34-0.798-1.837c-0.329-0.497-0.707-0.889-1.134-1.176
			c-0.427-0.287-0.868-0.507-1.323-0.661c-0.455-0.154-0.91-0.255-1.365-0.305c-0.455-0.049-0.864-0.073-1.229-0.073h-3.843v13.398
			H47.145z"/>
		<path d="M63.63,60.677h-0.042c-0.126,0.322-0.308,0.627-0.546,0.914c-0.238,0.287-0.529,0.543-0.872,0.767
			c-0.343,0.224-0.731,0.399-1.166,0.525s-0.91,0.189-1.428,0.189c-1.148,0-2.037-0.249-2.667-0.746
			c-0.63-0.497-0.945-1.263-0.945-2.299c0-0.63,0.126-1.145,0.378-1.543s0.57-0.714,0.956-0.945
			c0.385-0.231,0.812-0.395,1.281-0.493c0.469-0.098,0.92-0.168,1.354-0.21l1.239-0.105c0.574-0.042,1.025-0.108,1.354-0.2
			c0.329-0.091,0.578-0.217,0.746-0.378c0.168-0.161,0.273-0.368,0.315-0.62s0.063-0.567,0.063-0.945
			c0-0.294-0.056-0.567-0.168-0.819c-0.112-0.252-0.287-0.476-0.525-0.672c-0.238-0.196-0.546-0.35-0.924-0.462
			c-0.378-0.112-0.84-0.168-1.386-0.168c-0.966,0-1.747,0.238-2.341,0.714c-0.595,0.476-0.921,1.197-0.977,2.163h-0.798
			c0.056-1.19,0.438-2.082,1.145-2.677s1.712-0.893,3.014-0.893c1.302,0,2.25,0.255,2.846,0.767
			c0.595,0.511,0.892,1.179,0.892,2.005v6.279c0,0.154,0.003,0.308,0.011,0.462c0.007,0.154,0.031,0.294,0.074,0.42
			c0.042,0.126,0.112,0.228,0.21,0.304c0.098,0.077,0.238,0.116,0.42,0.116c0.14,0,0.336-0.021,0.588-0.063v0.672
			c-0.21,0.056-0.427,0.084-0.651,0.084c-0.322,0-0.578-0.042-0.767-0.126s-0.333-0.196-0.431-0.336
			c-0.098-0.14-0.165-0.305-0.199-0.494c-0.035-0.189-0.053-0.396-0.053-0.62V60.677z M63.63,56.687
			c-0.196,0.238-0.494,0.399-0.893,0.483s-0.843,0.147-1.333,0.189l-1.344,0.126c-0.392,0.042-0.784,0.102-1.176,0.179
			c-0.392,0.077-0.745,0.207-1.061,0.388c-0.315,0.182-0.57,0.431-0.766,0.746c-0.196,0.315-0.294,0.725-0.294,1.229
			c0,0.798,0.252,1.39,0.756,1.774c0.504,0.385,1.197,0.578,2.079,0.578c0.91,0,1.63-0.165,2.163-0.494
			c0.532-0.329,0.938-0.707,1.218-1.134c0.28-0.427,0.458-0.84,0.536-1.239c0.077-0.399,0.115-0.668,0.115-0.809V56.687z"/>
		<path d="M71.358,52.718h-2.352v7.539c0,0.434,0.049,0.777,0.147,1.029c0.098,0.252,0.249,0.445,0.452,0.578
			c0.203,0.133,0.448,0.214,0.735,0.242c0.287,0.028,0.62,0.035,0.998,0.021v0.693c-0.406,0.028-0.802,0.024-1.187-0.011
			c-0.385-0.035-0.725-0.14-1.019-0.315c-0.294-0.175-0.528-0.437-0.704-0.787s-0.249-0.833-0.22-1.449v-7.539h-1.995v-0.693h1.995
			v-3.36h0.798v3.36h2.352V52.718z"/>
		<path d="M80.409,60.677h-0.042c-0.126,0.322-0.308,0.627-0.546,0.914c-0.238,0.287-0.529,0.543-0.872,0.767
			c-0.343,0.224-0.731,0.399-1.166,0.525s-0.91,0.189-1.428,0.189c-1.148,0-2.037-0.249-2.667-0.746
			c-0.63-0.497-0.945-1.263-0.945-2.299c0-0.63,0.126-1.145,0.378-1.543s0.57-0.714,0.956-0.945
			c0.385-0.231,0.812-0.395,1.281-0.493c0.469-0.098,0.92-0.168,1.354-0.21l1.239-0.105c0.574-0.042,1.025-0.108,1.354-0.2
			c0.329-0.091,0.578-0.217,0.746-0.378c0.168-0.161,0.273-0.368,0.315-0.62s0.063-0.567,0.063-0.945
			c0-0.294-0.056-0.567-0.168-0.819c-0.112-0.252-0.287-0.476-0.525-0.672c-0.238-0.196-0.546-0.35-0.924-0.462
			c-0.378-0.112-0.84-0.168-1.386-0.168c-0.966,0-1.747,0.238-2.341,0.714c-0.595,0.476-0.921,1.197-0.977,2.163h-0.798
			c0.056-1.19,0.438-2.082,1.145-2.677s1.712-0.893,3.014-0.893c1.302,0,2.25,0.255,2.846,0.767
			c0.595,0.511,0.892,1.179,0.892,2.005v6.279c0,0.154,0.003,0.308,0.011,0.462c0.007,0.154,0.031,0.294,0.074,0.42
			c0.042,0.126,0.112,0.228,0.21,0.304c0.098,0.077,0.238,0.116,0.42,0.116c0.14,0,0.336-0.021,0.588-0.063v0.672
			c-0.21,0.056-0.427,0.084-0.651,0.084c-0.322,0-0.578-0.042-0.767-0.126s-0.333-0.196-0.431-0.336
			c-0.098-0.14-0.165-0.305-0.199-0.494c-0.035-0.189-0.053-0.396-0.053-0.62V60.677z M80.409,56.687
			c-0.196,0.238-0.494,0.399-0.893,0.483s-0.843,0.147-1.333,0.189l-1.344,0.126c-0.392,0.042-0.784,0.102-1.176,0.179
			c-0.392,0.077-0.745,0.207-1.061,0.388c-0.315,0.182-0.57,0.431-0.766,0.746c-0.196,0.315-0.294,0.725-0.294,1.229
			c0,0.798,0.252,1.39,0.756,1.774c0.504,0.385,1.197,0.578,2.079,0.578c0.91,0,1.63-0.165,2.163-0.494
			c0.532-0.329,0.938-0.707,1.218-1.134c0.28-0.427,0.458-0.84,0.536-1.239c0.077-0.399,0.115-0.668,0.115-0.809V56.687z"/>
		<path d="M90.573,47.824h9.408v0.798h-8.484v6.006h7.644v0.798h-7.644v7.392h-0.924V47.824z"/>
		<path d="M101.345,57.527v0.126c0,0.63,0.084,1.232,0.253,1.806c0.168,0.574,0.417,1.078,0.747,1.512
			c0.33,0.434,0.744,0.777,1.243,1.029c0.498,0.252,1.077,0.378,1.736,0.378c1.081,0,1.938-0.284,2.569-0.851
			s1.066-1.354,1.306-2.362h0.798c-0.238,1.26-0.753,2.226-1.544,2.898c-0.791,0.672-1.837,1.008-3.139,1.008
			c-0.799,0-1.495-0.144-2.09-0.431c-0.596-0.287-1.092-0.679-1.491-1.176c-0.398-0.497-0.696-1.085-0.893-1.764
			c-0.196-0.679-0.294-1.41-0.294-2.194c0-0.756,0.102-1.48,0.305-2.173c0.203-0.693,0.507-1.302,0.913-1.827
			s0.914-0.945,1.522-1.26c0.609-0.315,1.327-0.472,2.153-0.472c0.756,0,1.424,0.14,2.005,0.42c0.581,0.28,1.067,0.662,1.46,1.145
			c0.392,0.483,0.689,1.043,0.893,1.68c0.202,0.637,0.304,1.319,0.304,2.047c0,0.07-0.003,0.15-0.01,0.241
			c-0.008,0.091-0.011,0.165-0.011,0.221H101.345z M109.283,56.834c-0.028-0.588-0.127-1.145-0.295-1.669
			c-0.169-0.525-0.418-0.987-0.747-1.386c-0.33-0.399-0.73-0.717-1.2-0.956c-0.471-0.238-1.008-0.357-1.611-0.357
			c-0.646,0-1.214,0.123-1.705,0.368c-0.492,0.245-0.906,0.567-1.242,0.966c-0.338,0.399-0.597,0.865-0.779,1.396
			c-0.183,0.532-0.295,1.078-0.337,1.638H109.283z"/>
		<path d="M112.749,59.228c0.028,0.504,0.14,0.948,0.336,1.333s0.452,0.714,0.767,0.987c0.315,0.273,0.683,0.479,1.103,0.62
			s0.875,0.21,1.365,0.21c0.35,0,0.725-0.032,1.123-0.095c0.399-0.063,0.771-0.178,1.113-0.346s0.627-0.402,0.851-0.704
			c0.224-0.301,0.336-0.683,0.336-1.145c0-0.602-0.182-1.057-0.546-1.365c-0.364-0.308-0.822-0.546-1.375-0.714
			c-0.554-0.168-1.148-0.304-1.785-0.409c-0.638-0.105-1.232-0.263-1.785-0.473c-0.554-0.21-1.012-0.507-1.376-0.893
			c-0.364-0.385-0.546-0.948-0.546-1.69c0-0.532,0.119-0.977,0.357-1.333c0.237-0.357,0.542-0.641,0.913-0.851
			s0.788-0.36,1.25-0.452c0.462-0.091,0.924-0.136,1.386-0.136c0.56,0,1.085,0.063,1.575,0.189c0.489,0.126,0.913,0.329,1.271,0.609
			c0.356,0.28,0.637,0.637,0.84,1.071s0.305,0.959,0.305,1.575h-0.798c0-0.49-0.081-0.91-0.242-1.26s-0.385-0.633-0.672-0.851
			c-0.287-0.217-0.627-0.378-1.019-0.483s-0.812-0.158-1.26-0.158c-0.364,0-0.731,0.035-1.103,0.105
			c-0.371,0.07-0.703,0.189-0.997,0.357s-0.536,0.385-0.725,0.651c-0.189,0.266-0.284,0.588-0.284,0.966
			c0,0.434,0.105,0.784,0.315,1.05c0.21,0.266,0.486,0.48,0.829,0.641c0.343,0.161,0.729,0.291,1.155,0.389s0.857,0.196,1.292,0.294
			c0.531,0.098,1.032,0.213,1.501,0.346c0.469,0.133,0.875,0.315,1.218,0.546s0.612,0.528,0.809,0.892
			c0.196,0.364,0.294,0.827,0.294,1.386c0,0.588-0.133,1.071-0.398,1.449c-0.267,0.378-0.603,0.682-1.008,0.913
			c-0.406,0.231-0.858,0.392-1.354,0.483c-0.498,0.091-0.984,0.136-1.46,0.136c-0.616,0-1.187-0.081-1.712-0.241
			c-0.524-0.161-0.983-0.406-1.375-0.735c-0.393-0.329-0.7-0.731-0.924-1.208c-0.225-0.476-0.344-1.029-0.357-1.659H112.749z"/>
		<path d="M126.86,52.718h-2.352v7.539c0,0.434,0.049,0.777,0.147,1.029c0.098,0.252,0.248,0.445,0.451,0.578
			c0.203,0.133,0.448,0.214,0.735,0.242c0.286,0.028,0.619,0.035,0.997,0.021v0.693c-0.406,0.028-0.802,0.024-1.187-0.011
			c-0.385-0.035-0.725-0.14-1.019-0.315c-0.294-0.175-0.528-0.437-0.703-0.787c-0.176-0.35-0.249-0.833-0.221-1.449v-7.539h-1.995
			v-0.693h1.995v-3.36h0.798v3.36h2.352V52.718z"/>
		<path d="M128.964,54.185c0.11,0.245,0.259,0.455,0.447,0.63c0.188,0.176,0.407,0.311,0.661,0.404
			c0.252,0.094,0.526,0.141,0.819,0.141c0.335,0,0.633-0.063,0.895-0.189c0.261-0.126,0.485-0.298,0.673-0.515
			c0.188-0.216,0.331-0.465,0.429-0.747s0.146-0.577,0.146-0.888c0-0.318-0.055-0.612-0.165-0.881
			c-0.11-0.27-0.261-0.504-0.453-0.704c-0.191-0.2-0.422-0.357-0.691-0.471s-0.563-0.171-0.882-0.171
			c-0.392,0-0.755,0.088-1.089,0.263c-0.335,0.175-0.608,0.426-0.82,0.753h-0.661l0.832-4.444h4.285v0.71h-3.746l-0.551,2.84
			l0.024,0.025c0.212-0.253,0.481-0.449,0.808-0.588c0.326-0.139,0.661-0.208,1.004-0.208c0.44,0,0.839,0.073,1.193,0.22
			c0.355,0.147,0.657,0.351,0.906,0.612s0.44,0.573,0.575,0.937s0.202,0.761,0.202,1.194c0,0.416-0.077,0.802-0.232,1.157
			s-0.367,0.661-0.637,0.918c-0.27,0.257-0.586,0.457-0.948,0.6c-0.363,0.143-0.749,0.214-1.157,0.214
			c-0.4,0-0.77-0.059-1.108-0.178c-0.339-0.118-0.633-0.29-0.881-0.514c-0.249-0.224-0.447-0.5-0.594-0.826
			c-0.147-0.326-0.225-0.694-0.233-1.102h0.771C128.794,53.671,128.854,53.941,128.964,54.185z"/>
	</g>
	<g>
		<path d="M67.918,35.432c0.005-0.277,0.053-0.522,0.144-0.736c0.09-0.213,0.21-0.405,0.36-0.576
			c0.149-0.17,0.317-0.327,0.504-0.468c0.187-0.142,0.379-0.277,0.576-0.408s0.393-0.264,0.588-0.4
			c0.195-0.136,0.369-0.281,0.524-0.436s0.271-0.313,0.348-0.476c0.077-0.163,0.116-0.356,0.116-0.58c0-0.181-0.034-0.343-0.1-0.484
			c-0.067-0.141-0.158-0.261-0.272-0.36c-0.115-0.099-0.248-0.173-0.4-0.224c-0.152-0.051-0.313-0.076-0.484-0.076
			c-0.229,0-0.425,0.043-0.588,0.128c-0.163,0.085-0.295,0.2-0.396,0.344c-0.102,0.144-0.175,0.31-0.22,0.496
			s-0.065,0.384-0.06,0.592h-0.504c-0.005-0.288,0.028-0.553,0.1-0.796c0.072-0.243,0.183-0.452,0.332-0.628
			c0.149-0.176,0.337-0.313,0.564-0.412s0.492-0.148,0.796-0.148c0.246,0,0.474,0.033,0.684,0.1
			c0.211,0.066,0.395,0.165,0.552,0.296c0.157,0.131,0.28,0.295,0.368,0.492c0.088,0.197,0.132,0.427,0.132,0.688
			c0,0.234-0.039,0.448-0.116,0.64s-0.181,0.368-0.312,0.528c-0.131,0.16-0.28,0.308-0.448,0.444
			c-0.168,0.136-0.346,0.263-0.532,0.38c-0.133,0.091-0.291,0.191-0.472,0.3c-0.181,0.109-0.356,0.23-0.524,0.364
			s-0.316,0.279-0.444,0.436s-0.208,0.33-0.24,0.516h3.112v0.464H67.918z"/>
		<path d="M75.759,31.964c-0.16,0.216-0.384,0.367-0.672,0.452v0.016c0.368,0.075,0.651,0.236,0.848,0.484s0.296,0.564,0.296,0.948
			c0,0.283-0.051,0.529-0.152,0.74c-0.102,0.211-0.24,0.386-0.416,0.524c-0.176,0.139-0.38,0.243-0.612,0.312
			c-0.232,0.069-0.481,0.104-0.748,0.104c-0.262,0-0.509-0.035-0.744-0.104c-0.235-0.069-0.44-0.173-0.616-0.312
			c-0.176-0.138-0.314-0.313-0.416-0.524c-0.102-0.21-0.152-0.457-0.152-0.74c0.011-0.368,0.115-0.683,0.312-0.944
			c0.197-0.261,0.472-0.424,0.824-0.488v-0.016c-0.293-0.09-0.519-0.241-0.676-0.452c-0.157-0.211-0.236-0.471-0.236-0.78
			c0-0.24,0.049-0.448,0.148-0.624c0.099-0.176,0.228-0.321,0.388-0.436c0.16-0.115,0.341-0.2,0.544-0.256s0.408-0.084,0.616-0.084
			s0.414,0.028,0.616,0.084s0.385,0.141,0.548,0.256s0.293,0.26,0.392,0.436c0.099,0.176,0.148,0.384,0.148,0.624
			C75.999,31.488,75.918,31.748,75.759,31.964z M74.858,35.052c0.173-0.051,0.324-0.128,0.452-0.232s0.229-0.236,0.304-0.396
			c0.075-0.16,0.112-0.347,0.112-0.56c0-0.203-0.039-0.38-0.116-0.532c-0.078-0.152-0.182-0.28-0.312-0.384
			c-0.131-0.104-0.283-0.181-0.456-0.232c-0.173-0.051-0.354-0.073-0.54-0.068c-0.192-0.005-0.375,0.016-0.548,0.064
			c-0.173,0.048-0.324,0.124-0.452,0.228s-0.231,0.233-0.308,0.388s-0.116,0.333-0.116,0.536c0,0.208,0.038,0.392,0.112,0.552
			c0.075,0.16,0.176,0.292,0.304,0.396c0.128,0.104,0.279,0.183,0.452,0.236s0.359,0.08,0.556,0.08S74.685,35.103,74.858,35.052z
			 M74.75,32.172c0.144-0.04,0.271-0.103,0.38-0.188c0.109-0.085,0.197-0.194,0.264-0.328s0.1-0.291,0.1-0.472
			c0-0.16-0.031-0.301-0.092-0.424c-0.062-0.123-0.146-0.224-0.252-0.304c-0.106-0.08-0.232-0.141-0.376-0.184
			c-0.144-0.042-0.301-0.064-0.472-0.064c-0.155,0-0.304,0.021-0.448,0.064c-0.144,0.043-0.272,0.104-0.384,0.184
			c-0.112,0.08-0.202,0.182-0.268,0.304c-0.067,0.123-0.1,0.264-0.1,0.424c0,0.187,0.035,0.347,0.104,0.48s0.16,0.243,0.272,0.328
			c0.112,0.085,0.24,0.146,0.384,0.184c0.144,0.037,0.291,0.053,0.44,0.048C74.457,32.229,74.606,32.212,74.75,32.172z"/>
		<path d="M80.391,35.544c-0.192,0-0.372-0.022-0.54-0.068s-0.315-0.117-0.44-0.216c-0.125-0.099-0.224-0.224-0.296-0.376
			c-0.072-0.152-0.108-0.332-0.108-0.54c0-0.288,0.064-0.513,0.192-0.676c0.128-0.163,0.297-0.287,0.508-0.372
			c0.21-0.085,0.448-0.145,0.712-0.18s0.532-0.068,0.804-0.1c0.101-0.011,0.193-0.024,0.276-0.04
			c0.083-0.016,0.15-0.044,0.204-0.084c0.053-0.04,0.094-0.095,0.124-0.164c0.029-0.069,0.044-0.16,0.044-0.272
			c0-0.17-0.028-0.311-0.084-0.42c-0.056-0.109-0.133-0.196-0.232-0.26c-0.099-0.064-0.213-0.108-0.344-0.132
			s-0.271-0.036-0.42-0.036c-0.32,0-0.582,0.076-0.784,0.228c-0.203,0.152-0.309,0.396-0.32,0.732h-0.504
			c0.032-0.485,0.199-0.837,0.5-1.056s0.692-0.328,1.172-0.328c0.181,0,0.363,0.018,0.544,0.052s0.344,0.1,0.488,0.196
			c0.144,0.096,0.261,0.231,0.352,0.404c0.091,0.173,0.136,0.399,0.136,0.676v2.192c0,0.203,0.099,0.304,0.296,0.304
			c0.064,0,0.117-0.011,0.16-0.032V35.4c-0.059,0.011-0.111,0.019-0.156,0.024s-0.103,0.008-0.172,0.008
			c-0.128,0-0.23-0.017-0.308-0.052c-0.077-0.035-0.137-0.084-0.18-0.148c-0.043-0.064-0.071-0.14-0.084-0.228
			c-0.014-0.088-0.02-0.185-0.02-0.292h-0.016c-0.091,0.134-0.183,0.252-0.276,0.356c-0.094,0.104-0.198,0.19-0.312,0.26
			c-0.115,0.069-0.247,0.123-0.396,0.16C80.762,35.525,80.588,35.544,80.391,35.544z M80.431,35.12c0.192,0,0.376-0.029,0.552-0.087
			c0.176-0.059,0.329-0.144,0.46-0.255c0.131-0.112,0.235-0.247,0.312-0.407c0.077-0.159,0.116-0.34,0.116-0.542v-0.653h-0.016
			c-0.032,0.059-0.093,0.101-0.184,0.127s-0.171,0.045-0.24,0.056c-0.213,0.037-0.434,0.07-0.66,0.1s-0.434,0.073-0.62,0.131
			c-0.187,0.059-0.34,0.144-0.46,0.255c-0.12,0.112-0.18,0.266-0.18,0.462c0,0.127,0.025,0.24,0.076,0.338s0.119,0.184,0.204,0.255
			c0.085,0.071,0.183,0.126,0.292,0.163S80.308,35.12,80.431,35.12z"/>
		<path d="M83.375,31.304h3.296v4.128h-0.504v-3.704h-2.288v3.704h-0.504V31.304z"/>
		<path d="M87.623,31.304h0.464v0.784h0.016c0.117-0.288,0.308-0.51,0.572-0.668c0.264-0.157,0.564-0.236,0.9-0.236
			c0.314,0,0.588,0.059,0.82,0.176c0.232,0.117,0.426,0.276,0.58,0.476c0.154,0.2,0.27,0.432,0.344,0.696
			c0.074,0.264,0.111,0.542,0.111,0.836c0,0.299-0.037,0.579-0.111,0.84c-0.074,0.262-0.189,0.492-0.344,0.692
			c-0.154,0.2-0.348,0.357-0.58,0.472s-0.506,0.172-0.82,0.172c-0.154,0-0.306-0.019-0.452-0.056
			c-0.147-0.038-0.284-0.093-0.412-0.168s-0.241-0.168-0.34-0.28c-0.099-0.112-0.175-0.243-0.228-0.392h-0.016v2.304h-0.504V31.304z
			 M89.575,35.12c0.24,0,0.445-0.052,0.615-0.156c0.172-0.104,0.311-0.238,0.42-0.403s0.189-0.353,0.24-0.563
			c0.051-0.21,0.076-0.421,0.076-0.634s-0.025-0.424-0.076-0.635c-0.051-0.21-0.131-0.397-0.24-0.562s-0.248-0.299-0.42-0.403
			c-0.17-0.104-0.375-0.156-0.615-0.156c-0.283,0-0.516,0.048-0.7,0.144s-0.332,0.224-0.444,0.383
			c-0.112,0.16-0.19,0.346-0.236,0.559c-0.045,0.213-0.068,0.436-0.068,0.67c0,0.213,0.025,0.424,0.076,0.634
			c0.051,0.21,0.133,0.398,0.248,0.563c0.114,0.165,0.264,0.299,0.448,0.403C89.083,35.068,89.308,35.12,89.575,35.12z"/>
		<path d="M93.87,35.544c-0.33,0-0.613-0.057-0.848-0.172S92.597,35.1,92.446,34.9c-0.148-0.2-0.26-0.43-0.332-0.692
			c-0.072-0.261-0.107-0.541-0.107-0.84c0-0.272,0.035-0.539,0.107-0.8c0.072-0.262,0.184-0.495,0.332-0.7
			c0.15-0.205,0.342-0.371,0.576-0.496c0.234-0.125,0.518-0.188,0.848-0.188c0.332,0,0.613,0.067,0.85,0.2
			c0.234,0.133,0.424,0.308,0.57,0.524c0.146,0.216,0.252,0.464,0.316,0.744c0.064,0.28,0.092,0.564,0.08,0.852h-3.176
			c0,0.186,0.025,0.375,0.076,0.565s0.133,0.364,0.244,0.518s0.254,0.281,0.424,0.382c0.17,0.101,0.377,0.151,0.615,0.151
			c0.369,0,0.656-0.095,0.865-0.286c0.207-0.19,0.352-0.445,0.432-0.762h0.504c-0.107,0.469-0.303,0.832-0.588,1.088
			S94.394,35.544,93.87,35.544z M95.183,33.08c-0.006-0.192-0.039-0.376-0.1-0.552c-0.061-0.176-0.148-0.332-0.26-0.468
			c-0.113-0.136-0.248-0.245-0.408-0.328c-0.16-0.083-0.342-0.124-0.545-0.124c-0.207,0-0.391,0.042-0.551,0.124
			c-0.16,0.083-0.297,0.192-0.408,0.328c-0.111,0.136-0.201,0.293-0.268,0.472c-0.068,0.179-0.111,0.361-0.133,0.548H95.183z"/>
		<path d="M96.319,35.472c-0.027,0-0.059-0.003-0.096-0.008c-0.037-0.005-0.076-0.011-0.117-0.016
			c-0.039-0.005-0.076-0.012-0.111-0.02c-0.035-0.008-0.061-0.015-0.076-0.02v-0.44c0.043,0.016,0.107,0.029,0.191,0.04
			c0.086,0.011,0.158,0.016,0.217,0.016c0.053,0,0.111-0.008,0.176-0.024s0.129-0.06,0.191-0.132
			c0.064-0.072,0.127-0.185,0.186-0.34s0.109-0.37,0.15-0.644c0.043-0.275,0.078-0.622,0.105-1.04
			c0.025-0.419,0.039-0.932,0.039-1.54h2.76v4.128h-0.504v-3.704h-1.768c0,0.598-0.018,1.104-0.053,1.52
			c-0.033,0.416-0.084,0.763-0.146,1.04c-0.064,0.277-0.139,0.496-0.225,0.656c-0.086,0.16-0.178,0.278-0.275,0.356
			c-0.1,0.077-0.203,0.125-0.312,0.144C96.542,35.463,96.431,35.472,96.319,35.472z"/>
		<path d="M101.935,33.76c-0.367-0.027-0.66-0.148-0.875-0.364c-0.217-0.216-0.324-0.502-0.324-0.86c0-0.181,0.029-0.348,0.088-0.5
			s0.141-0.281,0.248-0.388c0.105-0.106,0.236-0.19,0.391-0.252c0.156-0.061,0.328-0.092,0.521-0.092h2v4.128h-0.504v-1.64h-0.977
			l-1.416,1.64h-0.656L101.935,33.76z M103.479,33.368v-1.64h-1.377c-0.277,0-0.49,0.076-0.641,0.228
			c-0.148,0.152-0.223,0.348-0.223,0.588c0,0.24,0.074,0.438,0.223,0.592c0.15,0.155,0.363,0.232,0.641,0.232H103.479z"/>
	</g>
	<g>
		<path d="M74.416,76.404h0.8l1.976,5.008l1.968-5.008h0.8v5.712h-0.544v-4.937h-0.016l-1.952,4.937h-0.512l-1.96-4.937h-0.016
			v4.937h-0.544V76.404z"/>
		<path d="M82.744,82.228c-0.315,0-0.593-0.058-0.836-0.172c-0.243-0.115-0.447-0.271-0.612-0.469
			c-0.165-0.197-0.291-0.428-0.376-0.691s-0.128-0.545-0.128-0.844c0-0.294,0.042-0.574,0.128-0.84
			c0.085-0.268,0.211-0.5,0.376-0.697c0.166-0.197,0.369-0.354,0.612-0.471c0.243-0.118,0.521-0.177,0.836-0.177
			c0.314,0,0.593,0.059,0.836,0.177c0.243,0.117,0.447,0.273,0.612,0.471c0.166,0.197,0.291,0.43,0.376,0.697
			c0.085,0.266,0.128,0.546,0.128,0.84c0,0.299-0.042,0.58-0.128,0.844s-0.21,0.494-0.376,0.691
			c-0.165,0.197-0.369,0.354-0.612,0.469C83.337,82.17,83.058,82.228,82.744,82.228z M82.744,81.804c0.24,0,0.451-0.051,0.632-0.152
			c0.181-0.101,0.332-0.234,0.452-0.398c0.12-0.166,0.21-0.354,0.272-0.562c0.061-0.211,0.092-0.425,0.092-0.643
			c0-0.219-0.031-0.434-0.092-0.643c-0.062-0.211-0.152-0.398-0.272-0.563s-0.271-0.298-0.452-0.399
			c-0.181-0.101-0.392-0.151-0.632-0.151c-0.24,0-0.451,0.051-0.632,0.151c-0.181,0.102-0.332,0.234-0.452,0.399
			c-0.12,0.165-0.211,0.353-0.272,0.563c-0.062,0.209-0.092,0.424-0.092,0.643c0,0.218,0.031,0.432,0.092,0.643
			c0.061,0.209,0.152,0.396,0.272,0.562c0.12,0.164,0.271,0.298,0.452,0.398C82.293,81.753,82.503,81.804,82.744,81.804z"/>
		<path d="M87.191,82.228c-0.315,0-0.593-0.058-0.836-0.172c-0.243-0.115-0.447-0.271-0.612-0.469
			c-0.165-0.197-0.291-0.428-0.376-0.691s-0.128-0.545-0.128-0.844c0-0.294,0.042-0.574,0.128-0.84
			c0.085-0.268,0.211-0.5,0.376-0.697c0.166-0.197,0.369-0.354,0.612-0.471c0.243-0.118,0.521-0.177,0.836-0.177
			c0.442,0,0.817,0.117,1.124,0.353c0.307,0.234,0.489,0.589,0.548,1.063h-0.504c-0.069-0.31-0.197-0.552-0.384-0.728
			c-0.187-0.176-0.448-0.265-0.784-0.265c-0.24,0-0.451,0.051-0.632,0.151c-0.181,0.102-0.332,0.234-0.452,0.399
			c-0.12,0.165-0.211,0.353-0.272,0.563c-0.062,0.209-0.092,0.424-0.092,0.643c0,0.218,0.031,0.432,0.092,0.643
			c0.061,0.209,0.152,0.396,0.272,0.562c0.12,0.164,0.271,0.298,0.452,0.398c0.182,0.102,0.392,0.152,0.632,0.152
			c0.154,0,0.301-0.029,0.44-0.088s0.261-0.141,0.368-0.244c0.106-0.104,0.194-0.229,0.264-0.373
			c0.069-0.144,0.113-0.301,0.128-0.471h0.504c-0.07,0.5-0.254,0.893-0.552,1.176C88.044,82.086,87.661,82.228,87.191,82.228z"/>
		<path d="M89.599,77.988h0.504v2.12l2.289-2.12h0.672l-1.752,1.615l1.855,2.513h-0.631l-1.593-2.168l-0.841,0.776v1.392h-0.504
			V77.988z"/>
		<path d="M93.575,77.988h1.889c0.42,0,0.746,0.082,0.975,0.248c0.23,0.165,0.344,0.408,0.344,0.729c0,0.244-0.062,0.45-0.188,0.615
			c-0.125,0.166-0.299,0.28-0.523,0.344v0.017c0.271,0.048,0.484,0.154,0.641,0.319c0.154,0.166,0.23,0.4,0.23,0.705
			c0,0.373-0.125,0.658-0.375,0.855c-0.252,0.197-0.619,0.296-1.104,0.296h-1.889V77.988z M95.407,79.771
			c0.287,0,0.506-0.061,0.652-0.184c0.146-0.122,0.219-0.287,0.219-0.496c0-0.453-0.291-0.68-0.871-0.68h-1.328v1.359H95.407z
			 M95.407,81.692c0.352,0,0.611-0.065,0.779-0.196s0.252-0.326,0.252-0.588c0-0.24-0.084-0.424-0.252-0.552
			s-0.428-0.192-0.779-0.192h-1.328v1.528H95.407z"/>
		<path d="M98.878,82.228c-0.191,0-0.371-0.023-0.539-0.068s-0.314-0.117-0.439-0.216c-0.127-0.099-0.225-0.224-0.297-0.376
			s-0.107-0.332-0.107-0.54c0-0.288,0.064-0.513,0.191-0.677c0.129-0.162,0.297-0.286,0.508-0.371
			c0.211-0.086,0.449-0.146,0.713-0.18c0.264-0.035,0.531-0.068,0.803-0.101c0.102-0.011,0.193-0.024,0.277-0.04
			c0.082-0.016,0.15-0.044,0.203-0.084s0.096-0.095,0.125-0.164s0.043-0.16,0.043-0.271c0-0.171-0.027-0.311-0.084-0.42
			c-0.055-0.109-0.133-0.196-0.232-0.26c-0.098-0.064-0.213-0.109-0.344-0.133s-0.27-0.036-0.42-0.036
			c-0.32,0-0.58,0.076-0.783,0.228c-0.203,0.152-0.311,0.396-0.32,0.732h-0.504c0.031-0.484,0.199-0.837,0.5-1.056
			s0.691-0.328,1.172-0.328c0.182,0,0.363,0.018,0.545,0.052c0.18,0.035,0.344,0.1,0.486,0.196c0.145,0.097,0.262,0.231,0.354,0.403
			c0.09,0.174,0.135,0.399,0.135,0.677v2.192c0,0.202,0.1,0.304,0.297,0.304c0.064,0,0.117-0.011,0.16-0.032v0.424
			c-0.059,0.011-0.111,0.02-0.156,0.024s-0.104,0.008-0.172,0.008c-0.129,0-0.23-0.017-0.309-0.052s-0.137-0.084-0.18-0.148
			s-0.07-0.14-0.084-0.229c-0.014-0.088-0.02-0.185-0.02-0.291h-0.018c-0.09,0.133-0.182,0.252-0.275,0.355
			c-0.094,0.104-0.197,0.191-0.312,0.26c-0.113,0.07-0.246,0.123-0.395,0.16C99.249,82.208,99.075,82.228,98.878,82.228z
			 M98.919,81.804c0.191,0,0.375-0.029,0.553-0.088c0.176-0.059,0.328-0.144,0.459-0.255c0.131-0.112,0.234-0.247,0.312-0.407
			c0.076-0.158,0.115-0.34,0.115-0.541V79.86h-0.016c-0.031,0.059-0.094,0.101-0.184,0.128c-0.092,0.025-0.172,0.045-0.24,0.055
			c-0.213,0.037-0.434,0.07-0.66,0.1s-0.434,0.074-0.619,0.132c-0.188,0.059-0.342,0.144-0.461,0.255s-0.18,0.266-0.18,0.463
			c0,0.127,0.025,0.24,0.076,0.338s0.119,0.184,0.203,0.256c0.086,0.07,0.184,0.125,0.293,0.162S98.796,81.804,98.919,81.804z"/>
		<path d="M76.412,86.003v0.465h-3.08v2.063h2.736v0.464h-2.736v2.721h-0.544v-5.713H76.412z"/>
		<path d="M77.628,86.003v5.248h3.2v0.465h-3.744v-5.713H77.628z"/>
		<path d="M83.66,86.003l2.24,5.713h-0.584L84.62,89.94h-2.6l-0.688,1.776h-0.576l2.296-5.713H83.66z M84.436,89.476l-1.104-2.928
			l-1.144,2.928H84.436z"/>
		<path d="M90.36,87.144c-0.109-0.174-0.243-0.318-0.4-0.436c-0.158-0.118-0.331-0.207-0.52-0.269
			c-0.189-0.062-0.389-0.093-0.597-0.093c-0.379,0-0.704,0.072-0.976,0.217s-0.495,0.334-0.668,0.572
			c-0.173,0.236-0.301,0.505-0.384,0.804c-0.083,0.299-0.124,0.605-0.124,0.92c0,0.31,0.041,0.614,0.124,0.916
			c0.083,0.302,0.21,0.571,0.384,0.808c0.173,0.238,0.396,0.428,0.668,0.572s0.597,0.216,0.976,0.216
			c0.267,0,0.507-0.048,0.72-0.144s0.397-0.227,0.553-0.393c0.154-0.165,0.279-0.358,0.375-0.58
			c0.097-0.221,0.158-0.459,0.185-0.715h0.544c-0.037,0.352-0.12,0.668-0.248,0.951s-0.293,0.523-0.496,0.721
			s-0.441,0.349-0.716,0.455c-0.274,0.107-0.58,0.16-0.916,0.16c-0.448,0-0.841-0.081-1.18-0.244
			c-0.338-0.162-0.62-0.38-0.844-0.652c-0.224-0.271-0.392-0.586-0.504-0.943c-0.112-0.357-0.168-0.733-0.168-1.128
			s0.056-0.771,0.168-1.128c0.112-0.357,0.28-0.674,0.504-0.948s0.505-0.493,0.844-0.655c0.339-0.163,0.732-0.244,1.18-0.244
			c0.272,0,0.537,0.039,0.796,0.119s0.493,0.199,0.704,0.356c0.21,0.157,0.387,0.351,0.528,0.58c0.141,0.229,0.23,0.493,0.268,0.792
			h-0.544C90.548,87.513,90.47,87.318,90.36,87.144z"/>
		<path d="M91.915,87.732c0.113-0.357,0.281-0.674,0.504-0.948c0.225-0.274,0.506-0.493,0.846-0.655
			c0.338-0.163,0.73-0.244,1.18-0.244c0.447,0,0.84,0.081,1.176,0.244c0.336,0.162,0.615,0.381,0.84,0.655s0.393,0.591,0.504,0.948
			s0.168,0.733,0.168,1.128s-0.057,0.771-0.168,1.128s-0.279,0.672-0.504,0.943c-0.225,0.272-0.504,0.49-0.84,0.652
			c-0.336,0.163-0.729,0.244-1.176,0.244c-0.449,0-0.842-0.081-1.18-0.244c-0.34-0.162-0.621-0.38-0.846-0.652
			c-0.223-0.271-0.391-0.586-0.504-0.943c-0.111-0.357-0.168-0.733-0.168-1.128S91.804,88.089,91.915,87.732z M92.415,89.776
			c0.084,0.302,0.211,0.571,0.385,0.808c0.174,0.238,0.396,0.428,0.668,0.572s0.598,0.216,0.977,0.216s0.703-0.071,0.973-0.216
			c0.268-0.145,0.49-0.334,0.662-0.572c0.174-0.236,0.303-0.506,0.385-0.808s0.125-0.606,0.125-0.916
			c0-0.314-0.043-0.621-0.125-0.92s-0.211-0.567-0.385-0.804c-0.172-0.238-0.395-0.428-0.662-0.572
			c-0.27-0.145-0.594-0.217-0.973-0.217s-0.705,0.072-0.977,0.217s-0.494,0.334-0.668,0.572c-0.174,0.236-0.301,0.505-0.385,0.804
			c-0.082,0.299-0.123,0.605-0.123,0.92C92.292,89.169,92.333,89.474,92.415,89.776z"/>
		<path d="M98.579,86.003l3.328,4.832h0.016v-4.832h0.545v5.713h-0.607l-3.328-4.832h-0.016v4.832h-0.545v-5.713H98.579z"/>
	</g>
</g>
</svg>
