<?xml version="1.0" encoding="utf-8"?>
<!-- Generator: Adobe Illustrator 22.1.0, SVG Export Plug-In . SVG Version: 6.00 Build 0)  -->
<svg version="1.1" id="Layer_1" xmlns="http://www.w3.org/2000/svg" xmlns:xlink="http://www.w3.org/1999/xlink" x="0px" y="0px"
	 viewBox="0 0 620 170.1" style="enable-background:new 0 0 620 170.1;" xml:space="preserve">
<style type="text/css">
	.st0{fill:url(#SVGID_1_);}
	.st1{fill:#F7931E;}
	.st2{fill:#FBB03B;}
	.st3{fill:#4C7BFF;}
	.st4{fill:#F9CB31;}
	.st5{fill:#EB1E6F;}
	.st6{fill:#FA1E57;}
	.st7{fill:#4C7BFB;}
</style>
<path d="M28,96.8c-0.1-0.1-0.1-0.2-0.2-0.3C27.9,96.6,28,96.7,28,96.8z"/>
<linearGradient id="SVGID_1_" gradientUnits="userSpaceOnUse" x1="50.3231" y1="32.8959" x2="112.4856" y2="140.5646">
	<stop  offset="0" style="stop-color:#EF645E"/>
	<stop  offset="1" style="stop-color:#EB1E6F"/>
</linearGradient>
<path class="st0" d="M144.2,122.2c4.7-9.2,7.4-19.7,7.4-30.8c0-37.3-30.2-67.6-67.6-67.6S16.5,54.1,16.5,91.4
	c0,21.4,10,40.6,25.6,52.9c1.4-12,2.3-22.6,1.9-24.4c-2.4-11.2-9.1-12.4-4.5-32C48.8,47.2,79.2,42,95.6,45.8
	c12.8,3,22.6,13,28.3,29.9c5.6,16.8,4.3,25.5,2.2,31.1c-0.6,1.7-0.5,1.6,8.2,7.9C137.9,117.3,141.2,119.7,144.2,122.2"/>
<path d="M42.1,146.1c-0.4,0-0.8-0.1-1.1-0.4c-16.7-13.2-26.2-33-26.2-54.3c0-38.2,31.1-69.3,69.3-69.3s69.3,31.1,69.3,69.3
	c0,11.1-2.6,21.8-7.6,31.6c-0.2,0.5-0.7,0.8-1.2,0.9c-0.5,0.1-1,0-1.5-0.4c-2.7-2.2-5.6-4.3-8.7-6.6l-3.3-2.4
	c-3.5-2.5-5.1-3.7-5.9-4.6c-1.4-1.5-1.1-2.7-0.7-3.8c1.8-4.8,3.4-13.1-2.2-30c-5.3-15.9-14.7-25.8-27-28.7
	c-3.9-0.9-17.7-3.2-31.5,5.4c-11.1,7-18.7,18.9-22.5,35.4c-3,13-0.9,17.4,1.4,22.5c1.1,2.4,2.3,5.1,3.1,8.8c0.6,2.7-1.1,18.4-1.8,25
	c-0.1,0.6-0.5,1.2-1.1,1.4C42.6,146,42.4,146.1,42.1,146.1z M84.1,25.6c-36.3,0-65.8,29.5-65.8,65.8c0,19.1,8.1,37,22.5,49.5
	c1.3-12.1,1.8-19.5,1.5-20.7c-0.7-3.3-1.8-5.7-2.9-8c-2.5-5.5-4.9-10.6-1.6-24.7c4-17.5,12.1-30.1,24.1-37.6
	c10.1-6.3,22.8-8.4,34.2-5.8c13.6,3.2,23.8,13.9,29.5,31c6,18,4.1,27,2.2,32.3c0,0,0,0.1,0,0.1c0.6,0.6,2.6,2.1,5.5,4.2l3.3,2.4
	c2.5,1.8,4.9,3.6,7.2,5.4c4.2-8.8,6.3-18.3,6.3-28.1C149.9,55.1,120.4,25.6,84.1,25.6z"/>
<path d="M90.4,106.6c-1.7,0-3.3-1.6-5.1-5.1c-1.4-2.9-2.9-6.8-4.1-11.3C80,85.5,79.5,81,79.6,76c0.1-5.5,1.5-7.4,1.9-7.8
	c0,0,0,0,0,0c0.2-0.2,5-4.9,13.4-3.4c8.3,1.5,8.5,6,8.7,8.7c0,0.2,0,0.5,0,0.7c0.5,6.1-4.6,25.1-9.7,30.6
	C92.8,106,91.6,106.6,90.4,106.6C90.4,106.6,90.4,106.6,90.4,106.6z M84.1,70.5c-0.2,0.3-0.9,1.7-1,5.6c-0.1,4.7,0.4,8.9,1.5,13.2
	c2.4,9,5,13.1,5.9,13.9c0.9-0.4,3.4-3.5,6.2-11.8c2.2-6.6,3.7-13.9,3.5-16.8c0-0.3,0-0.5-0.1-0.8c-0.1-2.4-0.3-4.4-5.8-5.5
	C88.2,67.1,84.7,70,84.1,70.5z M84.1,70.5C84.1,70.6,84,70.6,84.1,70.5C84,70.6,84.1,70.6,84.1,70.5z M84.1,70.5L84.1,70.5
	L84.1,70.5z"/>
<path d="M72.5,130.3C72.5,130.3,72.5,130.3,72.5,130.3c-14.2-0.6-24.5-5.2-30.6-13.6c-6.5-9-6.6-20.2-4.6-27.1
	c0.3-0.9,1.2-1.5,2.2-1.2c0.9,0.3,1.5,1.2,1.2,2.2c-1.4,4.9-2.1,15.6,4.1,24.1c5.5,7.5,14.8,11.6,27.8,12.2c1,0,1.7,0.9,1.7,1.8
	C74.2,129.6,73.4,130.3,72.5,130.3z"/>
<g>
	<g>
		<g>
			<path class="st1" d="M86.2,28.2l-25.2,0.5c0,0,7.3-21.7,23.6-22.5c16.3-0.8,24.7,21.8,24.7,21.8L86.2,28.2z"/>
			<path d="M58.4,30.5l0.8-2.3c0.1-0.2,2-5.7,5.9-11.4c5.4-7.7,12.1-12,19.3-12.3c7.3-0.3,14.2,3.6,20,11.3
				c4.2,5.7,6.4,11.4,6.5,11.6l0.9,2.3l-25.6,0.2L58.4,30.5z M85.3,7.9c-0.2,0-0.5,0-0.7,0C72.8,8.5,65.9,21.6,63.6,27l22.6-0.5
				l20.4-0.1C104,21,96.8,7.9,85.3,7.9z"/>
		</g>
		<g>
			<path class="st2" d="M91.5,47.6c-3.2,0-4.5,0-4.7,0c-3,0.1-35.2,1.5-53.3,5.3c0,0-15.3,3.2-17.2,9L7.1,42.3c0,0,25-14.7,79-14.7
				c72.7,0,77.3,14.4,77.3,14.4l0,0l-10.1,18.7C153.3,60.7,148.8,48.4,91.5,47.6z"/>
			<path d="M16,62.6c-0.8,0.1-1.5-0.3-1.8-0.9L5.5,43c-0.4-0.8-0.1-1.7,0.7-2.2h0c1-0.6,26.1-14.9,79.8-14.9c0,0,0.1,0,0.1,0
				c71.9,0,78.5,14,79,15.6l0,0.1c0.1,0.4,0.1,0.8-0.1,1.2l-8.6,17.5c-0.9,2.2-4.4,2.2-4.8,0.8l0.1,0.5c-0.1-0.2-0.2-0.9-0.3-1
				C150,58.7,140.6,50,91.4,49.3c-2.7,0-4.1,0-4.5,0l-0.3,0c-8.3,0.4-36.5,1.9-52.7,5.2c-5.2,1.1-13.6,3.9-15.6,7.2
				c-0.3,0.4-0.7,0.7-1.2,0.8L16,62.6z M151.6,61.3L151.6,61.3L151.6,61.3z M10.1,44.4c1.3,2.7,4.2,8.9,5.7,12.1
				c0.4,0.9,1.6,1.2,2.5,0.6c5.1-3.7,13.7-5.6,15-5.8c16-3.3,42.6-4.8,53.3-5.3l0.3,0c0.6,0,2.1-0.1,4.8,0l0,0
				c39.1,0.6,54.3,6.4,60,10.5c0.8,0.6,1.9,0.3,2.4-0.5l6.9-12.8c0.3-0.6,0.2-1.4-0.3-1.9c-3.9-3.4-19.1-11.8-74.4-11.8
				c0,0-0.1,0-0.1,0c-42.8,0-67.3,9.4-75.1,13C10.1,42.7,9.7,43.6,10.1,44.4z"/>
		</g>
		<g>
			<path class="st1" d="M54.3,71.5c0,0-35.3-3-38-9.6c-2.5-6.1,34.5-16.2,69.2-15.3c40.5,1,63.3,6.3,67.8,14.1
				c0,0-16.3,10.5-36.3,10.8c0,0,2.5-10.2,0.7-11.4c-1.8-1.2-20.8-5.7-39.6-4.8c-18.8,1-25.4,4.6-25.4,4.6L54.3,71.5z"/>
			<path d="M56.3,73.4l-2.2-0.2c-0.1,0-9-0.8-18.1-2.3c-17.3-3-20.5-6.2-21.3-8.3c-0.3-0.8-0.5-2.1,0.6-3.5
				c5.1-6.9,39.2-14.9,70.3-14.1c28.1,0.7,62.9,3.9,69.4,15l0.6,1.1c0.1,0.2,0,0.4-0.1,0.5l-1,0.7c-0.7,0.4-17,10.8-37.3,11.1
				l-2.3,0l0.5-2.2c1-4.1,1.6-8.5,1.2-9.7c-2.5-1.1-20.4-5.3-38.2-4.3c-14,0.7-21.1,2.9-23.5,3.9L56.3,73.4z M83.6,53.5
				c8.2,0,15.8,0.9,21,1.7c5.8,0.9,12.6,2.4,14.2,3.5c0.7,0.4,2.5,1.7,0.5,11c14.7-0.8,27.1-7.1,31.4-9.5
				c-3.9-4-17.5-10.7-65.3-11.9c-15-0.4-31.9,1.3-46.5,4.6c-15.5,3.5-20.9,7.2-21,8.4c0.2,0.5,2.1,3.3,18.6,6.2
				c6.3,1.1,12.4,1.8,15.6,2.1L50.8,59l1-0.6c0.3-0.2,7.2-3.9,26.2-4.8C79.9,53.5,81.8,53.5,83.6,53.5z"/>
		</g>
	</g>
	<polygon points="13.2,53 18.4,56.1 19.6,46.3 26.6,52.8 28.8,42.9 35.3,50.1 38.3,40.5 44.4,48.2 47.9,38.6 53.6,46.7 57.5,37.4 
		62.9,45.7 67.1,36.5 72.3,45.1 76.8,36 81.8,44.8 86.5,35.9 91.3,44.8 96.3,36 100.8,45 106,36.4 110.3,45.6 115.7,37.1 
		119.7,46.5 125.4,38.3 129,47.8 135.1,40 138.1,49.6 144.6,42.4 146.9,52.2 153.9,45.9 154.8,55.4 157.6,54.1 160.1,49.2 
		157.4,50.4 156.3,39.2 148.7,46.1 146.2,35.7 139.4,43.3 136.2,33.2 129.9,41.3 126.2,31.5 120.4,39.9 116.2,30.4 110.7,39 
		106.3,29.6 101.1,38.4 96.4,29.2 91.4,38.1 86.5,29.1 81.7,38.1 76.7,29.2 72.1,38.5 66.8,29.7 62.5,39.1 56.9,30.5 52.9,40.2 
		47,31.8 43.4,41.7 37.1,33.7 34,43.8 27.2,36.2 24.8,46.6 17.3,39.7 15.9,50.7 10.9,47.6 	"/>
</g>
<path d="M31.8,60.6h110.3c0,0-9.7,16.9-25.7,18.1c-8.9,0.7-15.6-7.2-19.3-10.5c-2.8-2.4-5.4-3-11.5,0c-4.1,2-4,6-13.6,9.4
	C71,78,54.7,82.3,44,74.7c-1.6-1.1-6.5-4.2-9.8-8.6C30.9,61.8,31.8,60.7,31.8,60.6"/>
<path class="st3" d="M102.1,144.8l-2.7-1.7l1.4,0.9l-1.4-0.9c0.5-0.8,1.7-3.4,1.2-5.3c-0.3-0.9-0.9-1.6-2-2.1
	c-1-0.5-2.1-0.9-3.2-1.3c-2.7-1-5.2-1.9-5.6-4.2c-0.4-2.2,1.4-4.6,6.1-8.3c0.7-0.6,1.3-1.1,1.7-1.5c-0.9,0.2-2.3,0.5-4.2,1.1
	c-3.4,1-7-0.6-8.4-3.7c-1-2.3-1.2-5.9,4.1-9.6l1.9,2.6c-4.2,3-3.3,4.9-3,5.6c0.7,1.7,2.7,2.5,4.5,1.9c5.9-1.8,8.4-1.8,9.3-0.1
	c0.9,1.8-0.8,3.7-3.8,6.1c-5,4-4.9,5.2-4.9,5.3c0.1,0.5,2.4,1.3,3.5,1.7c1.1,0.4,2.3,0.8,3.5,1.4c1.9,0.9,3.2,2.4,3.7,4.2
	C104.7,140.5,102.4,144.4,102.1,144.8z"/>
<g>
	<g>
		<path class="st1" d="M127,127c-5.9-5.6-10.6-8-13.8-9c-2.5-0.8-5.1,0.6-6,3.1L95,156.8c-0.7,2-0.1,4.2,1.5,5.4
			c0.8,0.6,1.8,1,3.2,0.8c4.3-0.5,38.4-19.8,38.4-19.8C139.6,142.4,138.4,138,127,127z"/>
		<path d="M99.1,165.5c-1.5,0-2.9-0.5-4-1.4c-2.4-1.9-3.3-5.1-2.3-8.1l12.3-35.7c1.3-3.7,5.2-5.7,8.9-4.6c4.7,1.4,9.6,4.7,14.7,9.6
			c13,12.5,12.5,16.2,12.3,17.4c-0.1,1.1-0.7,2-1.7,2.5c-8.1,4.6-34.9,19.6-39.3,20.1C99.7,165.4,99.4,165.5,99.1,165.5z
			 M111.8,120.2c-1,0-2,0.7-2.3,1.7l-12.3,35.7c-0.4,1-0.1,2.2,0.7,2.8c0.4,0.3,0.9,0.4,1.5,0.3c2.5-0.4,20.5-9.9,36.7-19
			c-0.5-1.3-2.5-5-10.8-12.9l0,0c-5.7-5.5-10.1-7.6-12.8-8.5C112.3,120.2,112.1,120.2,111.8,120.2z M137,141.2
			C137,141.2,137,141.2,137,141.2C137,141.2,137,141.2,137,141.2z"/>
	</g>
	<g>
		<g>
			<path class="st1" d="M127.7,127c-6.6-6.2-11.8-8.5-15.1-9.3c-1.7-0.4-3,1.4-2.1,2.9c6.8,11.3,19.5,18.4,25.4,21.3
				c1.7,0.8,3.5-1.1,2.5-2.7C136.9,136.5,133.6,132.6,127.7,127z"/>
			<path d="M136.8,143.8c-0.5,0-1.1-0.1-1.6-0.4c-6.8-3.3-19.3-10.5-26.1-21.9c-0.8-1.3-0.7-2.9,0.2-4.1c0.9-1.2,2.4-1.7,3.8-1.4
				c3.4,0.8,8.9,3.2,15.8,9.7h0c5.4,5.1,9.1,9.3,11,12.5c0.8,1.4,0.7,3.1-0.4,4.3C138.7,143.4,137.8,143.8,136.8,143.8z
				 M112.2,119.4c0,0-0.1,0-0.2,0.1c-0.1,0.1,0,0.2,0,0.2c6.6,11,19.5,18.1,24.7,20.6c0.1,0,0.1,0.1,0.2-0.1c0.1-0.1,0.1-0.2,0-0.2
				c-1.2-2-4-5.6-10.4-11.7h0C120.1,122.3,115.2,120.1,112.2,119.4C112.2,119.4,112.2,119.4,112.2,119.4z"/>
		</g>
	</g>
	<path class="st4" d="M108.9,118.9l-13.1,37.3c-0.5,1.5-0.3,3.2,0.8,4.4c0.8,0.9,2,1.6,3.8,1.4c4.1-0.5,37-18.7,37-18.7
		S116.4,135,108.9,118.9z"/>
	<g>
		<path class="st5" d="M97.9,150.2l-1.7,4.9c0,0,2.4,5.5,6.2,6.4l3.7-1.6C106.1,159.8,98.7,155.8,97.9,150.2z"/>
		<path class="st5" d="M101.9,138.7l-2.1,6.1c0,0,4.4,9.2,10.6,12.9l5.5-2.8C115.8,155,106.8,149,101.9,138.7z"/>
		<path class="st5" d="M106.1,127l-2,5.7c0,0,11,15.7,20.7,17.6l4.8-2.6C129.6,147.6,114.6,140.5,106.1,127z"/>
	</g>
</g>
<path class="st6" d="M120.7,123.7l-3.5-1.1c0-0.1,4.4-14.5-4.4-22.8l2.5-2.7c4.3,4.1,6.6,10.1,6.6,17.2
	C122,119.5,120.7,123.6,120.7,123.7z"/>
<path class="st3" d="M129.8,133.1l-1.5-2.9c0.6-0.3,14.1-7.4,28.8-4.5l-0.6,3.2C142.9,126.3,130,133.1,129.8,133.1z"/>
<path class="st4" d="M132.2,119.8c-0.1-0.4-1.2-3.7,0.6-6c1.2-1.4,3-1.9,5.5-1.5c0.3,0,0.6,0.1,0.9,0.1c2.2,0.3,5.3,0.8,5.9,0.1
	c0.1-0.1,0.7-1-0.5-4.8c-0.3-1-1.3-4.2,0.6-6.2c1.2-1.3,3.1-1.6,5.6-1c1.1,0.3,2.2,0.1,3.2-0.6c0.9-0.6,1.5-1.5,1.7-2.6
	c0.2-1.2,0-2.3-0.5-3.1l3.2-1.9c1,1.6,1.3,3.5,1,5.6c-0.3,2.1-1.6,3.9-3.3,5.1c-1.8,1.2-4,1.6-6.1,1.1c-1.4-0.3-2-0.2-2-0.1
	c0,0-0.3,0.5,0.3,2.5c0.8,2.7,1.6,6.2-0.3,8.3c-1.9,2.2-5.3,1.7-9.2,1.1c-0.3,0-0.6-0.1-0.9-0.1c-1.3-0.2-1.9,0-2.1,0.2
	c-0.4,0.5-0.2,1.8,0,2.4L132.2,119.8z"/>
<path class="st6" d="M95.4,143l-3.2-1c-0.3-0.1-0.4-0.4-0.3-0.6l1-3.2c0.1-0.3,0.4-0.4,0.6-0.3l3.2,1c0.3,0.1,0.4,0.4,0.3,0.6
	l-1,3.2C96,143,95.7,143.1,95.4,143z"/>
<path class="st4" d="M113.4,113.4l-3.2-1c-0.3-0.1-0.4-0.4-0.3-0.6l1-3.2c0.1-0.3,0.4-0.4,0.6-0.3l3.2,1c0.3,0.1,0.4,0.4,0.3,0.6
	l-1,3.2C114,113.3,113.7,113.5,113.4,113.4z"/>
<path class="st4" d="M104.5,116.3L104.5,116.3c-1.2,0-2.2-1-2.2-2.2v0c0-1.2,1-2.2,2.2-2.2h0c1.2,0,2.2,1,2.2,2.2v0
	C106.7,115.3,105.7,116.3,104.5,116.3z"/>
<path class="st4" d="M147.7,141l-3.3,0.6c-0.3,0.1-0.5-0.1-0.6-0.4l-0.6-3.3c-0.1-0.3,0.1-0.5,0.4-0.6l3.3-0.6
	c0.3-0.1,0.5,0.1,0.6,0.4l0.6,3.3C148.1,140.7,148,141,147.7,141z"/>
<path class="st4" d="M150.4,153.1l-3.2,1.1c-0.3,0.1-0.6,0-0.6-0.3l-1.1-3.2c-0.1-0.3,0-0.6,0.3-0.6l3.2-1.1c0.3-0.1,0.6,0,0.6,0.3
	l1.1,3.2C150.8,152.7,150.7,153,150.4,153.1z"/>
<path class="st4" d="M155.7,146.5l-3.4-0.2c-0.3,0-0.5-0.3-0.5-0.5l0.2-3.4c0-0.3,0.3-0.5,0.5-0.5l3.4,0.2c0.3,0,0.5,0.3,0.5,0.5
	l-0.2,3.4C156.2,146.3,156,146.5,155.7,146.5z"/>
<path class="st6" d="M148.6,168.1l-3-1.5c-0.2-0.1-0.4-0.4-0.2-0.7l1.5-3c0.1-0.2,0.4-0.4,0.7-0.2l3,1.5c0.2,0.1,0.4,0.4,0.2,0.7
	l-1.5,3C149.2,168.2,148.9,168.3,148.6,168.1z"/>
<path class="st6" d="M147.5,96.2l-2.4,2.4c-0.2,0.2-0.5,0.2-0.7,0l-2.4-2.4c-0.2-0.2-0.2-0.5,0-0.7l2.4-2.4c0.2-0.2,0.5-0.2,0.7,0
	l2.4,2.4C147.7,95.7,147.7,96,147.5,96.2z"/>
<path class="st7" d="M122.9,102.4l-2.4-2.4c-0.2-0.2-0.2-0.5,0-0.7l2.4-2.4c0.2-0.2,0.5-0.2,0.7,0l2.4,2.4c0.2,0.2,0.2,0.5,0,0.7
	l-2.4,2.4C123.4,102.6,123.1,102.6,122.9,102.4z"/>
<path class="st7" d="M127.8,116.7l-3.2-1c-0.3-0.1-0.4-0.4-0.3-0.6l1-3.2c0.1-0.3,0.4-0.4,0.6-0.3l3.2,1c0.3,0.1,0.4,0.4,0.3,0.6
	l-1,3.2C128.4,116.6,128.1,116.8,127.8,116.7z"/>
<path class="st7" d="M130,156.4l-3.2-1c-0.3-0.1-0.4-0.4-0.3-0.6l1-3.2c0.1-0.3,0.4-0.4,0.6-0.3l3.2,1c0.3,0.1,0.4,0.4,0.3,0.6
	l-1,3.2C130.6,156.4,130.3,156.5,130,156.4z"/>
<g>
	<path d="M250.5,95.8c0,11.6-3,20.4-9.1,26.4c-6.1,6-15,8.9-26.9,8.9h-16.6V61.9h18.7c11.1,0,19.5,2.9,25.2,8.7
		S250.5,84.8,250.5,95.8z M245.3,96c0-9.9-2.5-17.4-7.6-22.4c-5-5-12.4-7.5-22.2-7.5h-12.7v60.7h11.5
		C234.9,126.9,245.3,116.6,245.3,96z"/>
	<path d="M296.5,131.1l-1.2-8.1h-0.4c-2.6,3.3-5.2,5.7-8,7c-2.7,1.4-6,2.1-9.7,2.1c-5.1,0-9-1.3-11.8-3.9c-2.8-2.6-4.2-6.2-4.2-10.8
		c0-5,2.1-8.9,6.3-11.7c4.2-2.8,10.2-4.2,18.2-4.4l9.8-0.3v-3.4c0-4.9-1-8.6-3-11.1c-2-2.5-5.2-3.7-9.6-3.7c-4.8,0-9.7,1.3-14.8,4
		l-1.8-4.1c5.7-2.7,11.2-4,16.8-4c5.7,0,9.9,1.5,12.7,4.4c2.8,2.9,4.2,7.5,4.2,13.7v34.2H296.5z M277.6,127.8c5.5,0,9.8-1.6,13-4.7
		c3.2-3.1,4.8-7.5,4.8-13.1v-5.1l-9,0.4c-7.2,0.3-12.4,1.5-15.5,3.4c-3.1,1.9-4.6,4.9-4.6,8.9c0,3.2,1,5.7,3,7.5
		C271.2,126.9,274,127.8,277.6,127.8z"/>
	<path d="M330.2,127.9c3,0,5.6-0.3,7.8-0.8v3.8c-2.3,0.8-4.9,1.1-7.9,1.1c-4.5,0-7.9-1.2-10.1-3.6c-2.2-2.4-3.2-6.3-3.2-11.5V83.7
		h-7.6V81l7.6-2.1l2.4-11.7h2.4v12.5h15.1v4.1h-15.1v32.6c0,3.9,0.7,6.9,2.1,8.8C325.1,127,327.3,127.9,330.2,127.9z"/>
	<path d="M380.4,131.1l-1.2-8.1h-0.4c-2.6,3.3-5.2,5.7-8,7c-2.7,1.4-6,2.1-9.7,2.1c-5.1,0-9-1.3-11.8-3.9c-2.8-2.6-4.2-6.2-4.2-10.8
		c0-5,2.1-8.9,6.3-11.7c4.2-2.8,10.2-4.2,18.2-4.4l9.8-0.3v-3.4c0-4.9-1-8.6-3-11.1c-2-2.5-5.2-3.7-9.6-3.7c-4.8,0-9.7,1.3-14.8,4
		l-1.8-4.1c5.7-2.7,11.2-4,16.8-4c5.7,0,9.9,1.5,12.7,4.4c2.8,2.9,4.2,7.5,4.2,13.7v34.2H380.4z M361.4,127.8c5.5,0,9.8-1.6,13-4.7
		c3.2-3.1,4.8-7.5,4.8-13.1v-5.1l-9,0.4c-7.2,0.3-12.4,1.5-15.5,3.4c-3.1,1.9-4.6,4.9-4.6,8.9c0,3.2,1,5.7,3,7.5
		C355,126.9,357.8,127.8,361.4,127.8z"/>
	<path d="M431.7,131.1h-4.8V61.9h37.9v4.5h-33.1v29.4H463v4.5h-31.3V131.1z"/>
	<path d="M495.2,132.1c-7.5,0-13.3-2.3-17.5-6.9c-4.2-4.6-6.3-11.1-6.3-19.4c0-8.2,2-14.8,6.1-19.7c4-4.9,9.5-7.4,16.3-7.4
		c6.1,0,10.8,2.1,14.4,6.3c3.5,4.2,5.3,10,5.3,17.2v3.8h-37.1c0.1,7.1,1.7,12.5,4.9,16.2c3.2,3.7,7.9,5.6,13.9,5.6
		c2.9,0,5.5-0.2,7.7-0.6c2.2-0.4,5-1.3,8.5-2.7v4.3c-2.9,1.3-5.6,2.1-8.1,2.6S498.2,132.1,495.2,132.1z M493.8,82.8
		c-5,0-8.9,1.6-11.9,4.9c-3,3.3-4.8,8-5.3,14.1h31.8c0-6-1.3-10.6-3.9-14C502,84.5,498.4,82.8,493.8,82.8z"/>
	<path d="M559.6,117.7c0,4.6-1.8,8.2-5.3,10.6c-3.5,2.5-8.5,3.7-14.9,3.7c-6.9,0-12.3-1.1-16.4-3.2v-5.1c5.2,2.6,10.6,3.9,16.4,3.9
		c5.1,0,8.9-0.8,11.6-2.5c2.6-1.7,4-3.9,4-6.7c0-2.6-1-4.8-3.1-6.5c-2.1-1.8-5.5-3.5-10.3-5.2c-5.1-1.9-8.8-3.5-10.8-4.8
		c-2.1-1.3-3.7-2.9-4.7-4.5c-1.1-1.7-1.6-3.7-1.6-6.2c0-3.9,1.6-6.9,4.9-9.1c3.2-2.2,7.8-3.4,13.6-3.4c5.6,0,10.8,1,15.8,3.1
		l-1.8,4.3c-5.1-2.1-9.7-3.1-14.1-3.1c-4.2,0-7.5,0.7-10,2.1c-2.5,1.4-3.7,3.3-3.7,5.8c0,2.7,1,4.8,2.9,6.4
		c1.9,1.6,5.6,3.4,11.2,5.4c4.6,1.7,8,3.2,10.1,4.5c2.1,1.3,3.7,2.9,4.8,4.6S559.6,115.4,559.6,117.7z"/>
	<path d="M586.4,127.9c3,0,5.6-0.3,7.8-0.8v3.8c-2.3,0.8-4.9,1.1-7.9,1.1c-4.5,0-7.9-1.2-10.1-3.6c-2.2-2.4-3.2-6.3-3.2-11.5V83.7
		h-7.6V81l7.6-2.1l2.4-11.7h2.4v12.5h15.1v4.1h-15.1v32.6c0,3.9,0.7,6.9,2.1,8.8C581.3,127,583.4,127.9,586.4,127.9z"/>
</g>
</svg>
