<?xml version="1.0" encoding="utf-8"?>
<!-- Generator: Adobe Illustrator 22.1.0, SVG Export Plug-In . SVG Version: 6.00 Build 0)  -->
<svg version="1.1" id="Layer_1" xmlns="http://www.w3.org/2000/svg" xmlns:xlink="http://www.w3.org/1999/xlink" x="0px" y="0px"
	 viewBox="0 0 396.9 396.9" style="enable-background:new 0 0 396.9 396.9;" xml:space="preserve">
<style type="text/css">
	.st0{fill:url(#SVGID_1_);}
	.st1{fill:#F7931E;}
	.st2{fill:#FBB03B;}
	.st3{fill:#4C7BFF;}
	.st4{fill:#F7931E;stroke:#000000;stroke-width:11;stroke-miterlimit:10;}
	.st5{fill:#F7931E;stroke:#000000;stroke-width:8;stroke-miterlimit:10;}
	.st6{fill:#F9CB31;}
	.st7{fill:#EB1E6F;}
	.st8{fill:#FA1E57;}
	.st9{fill:#4C7BFB;}
</style>
<path d="M65.6,223.5c-0.2-0.2-0.3-0.4-0.4-0.7C65.3,223.1,65.4,223.3,65.6,223.5z"/>
<linearGradient id="SVGID_1_" gradientUnits="userSpaceOnUse" x1="117.2642" y1="75.5147" x2="261.3568" y2="325.0905">
	<stop  offset="0" style="stop-color:#EF645E"/>
	<stop  offset="1" style="stop-color:#EB1E6F"/>
</linearGradient>
<path class="st0" d="M335,282.6c11-21.4,17.2-45.7,17.2-71.4c0-86.5-70.1-156.6-156.6-156.6S39,124.7,39,211.2
	c0,49.7,23.2,94,59.3,122.7c3.2-27.8,5.2-52.4,4.3-56.6c-5.5-25.9-21-28.6-10.5-74.2c21.7-94.3,92.1-106.5,130.1-97.6
	c29.7,6.9,52.5,30.1,65.6,69.2c13,38.9,10,59.1,5.2,72.2c-1.4,3.9-1.2,3.6,18.9,18.3C320.2,271.3,327.8,276.8,335,282.6"/>
<path d="M98.3,337.9c-0.9,0-1.8-0.3-2.5-0.9c-38.6-30.7-60.8-76.6-60.8-125.9c0-88.6,72.1-160.6,160.6-160.6s160.6,72.1,160.6,160.6
	c0,25.8-5.9,50.5-17.7,73.3c-0.6,1.1-1.6,1.9-2.8,2.1c-1.2,0.2-2.4,0-3.4-0.8c-6.3-5.1-13-10-20.2-15.3l-7.6-5.5
	c-8.1-5.9-11.7-8.6-13.8-10.7c-3.3-3.4-2.6-6.2-1.7-8.7c4.1-11,8-30.3-5.2-69.5c-12.4-36.9-34-59.9-62.7-66.6
	c-9.1-2.1-41.1-7.5-73.1,12.4c-25.8,16.1-43.4,43.7-52.2,82.1c-6.9,30-2.2,40.3,3.3,52.1c2.5,5.5,5.4,11.8,7.2,20.3
	c1.3,6.3-2.5,42.6-4.3,57.9c-0.2,1.5-1.1,2.7-2.5,3.3C99.3,337.8,98.8,337.9,98.3,337.9z M195.6,58.6C111.5,58.6,43,127,43,211.2
	c0,44.3,18.9,85.8,52.1,114.8c3.1-28.1,4.1-45.2,3.6-47.9c-1.6-7.6-4.2-13.2-6.7-18.6c-5.8-12.7-11.4-24.6-3.8-57.3
	c9.3-40.6,28.1-69.9,55.8-87.2c23.3-14.5,52.9-19.6,79.2-13.4c31.5,7.4,55.2,32.2,68.5,71.9c14,41.7,9.6,62.7,5.1,74.9
	c0,0.1-0.1,0.2-0.1,0.3c1.3,1.5,6,4.9,12.7,9.8l7.6,5.5c5.8,4.2,11.3,8.3,16.6,12.4c9.7-20.4,14.6-42.3,14.6-65.2
	C348.1,127,279.7,58.6,195.6,58.6z"/>
<path d="M210.2,246.3c-4,0-7.7-3.8-11.7-11.9c-3.4-6.7-6.6-15.8-9.5-26.3c-2.9-10.7-4.1-21.1-3.8-32.8c0.3-12.8,3.5-17.1,4.5-18.1
	c0,0,0,0,0.1-0.1c0.5-0.5,11.5-11.4,31-7.9c19.2,3.5,19.8,13.9,20.2,20.1c0,0.5,0.1,1.1,0.1,1.6c1.2,14-10.8,58.1-22.5,70.9
	C215.7,244.9,213,246.3,210.2,246.3C210.2,246.3,210.2,246.3,210.2,246.3z M195.6,162.7c-0.4,0.6-2.1,4-2.3,12.9
	c-0.3,10.9,0.9,20.6,3.5,30.5c5.6,20.9,11.5,30.4,13.7,32.1c2.1-0.9,7.9-8.1,14.3-27.4c5.2-15.4,8.6-32.2,8-39
	c0-0.6-0.1-1.2-0.1-1.8c-0.3-5.5-0.6-10.3-13.5-12.6C205.1,154.7,196.9,161.5,195.6,162.7z M195.5,162.8
	C195.5,162.8,195.4,162.9,195.5,162.8C195.4,162.9,195.5,162.8,195.5,162.8z M195.5,162.8L195.5,162.8L195.5,162.8z"/>
<path d="M168.7,301.3c-0.1,0-0.1,0-0.2,0c-32.7-1.4-56.5-12-70.7-31.6c-15.1-20.9-15.2-46.9-10.7-62.9c0.6-2.1,2.8-3.4,5-2.8
	c2.1,0.6,3.4,2.8,2.8,5c-3.2,11.5-4.9,36.1,9.5,56c12.6,17.5,34.3,27,64.5,28.3c2.2,0.1,4,2,3.9,4.2
	C172.6,299.6,170.8,301.3,168.7,301.3z"/>
<g>
	<g>
		<g>
			<path class="st1" d="M200.3,64.7l-58.5,1.2c0,0,17-50.4,54.8-52.1c37.8-1.8,57.3,50.6,57.3,50.6L200.3,64.7z"/>
			<path d="M136.1,70l1.8-5.3c0.2-0.5,4.5-13.3,13.7-26.4c12.5-17.9,28-27.7,44.8-28.5c16.9-0.8,33,8.3,46.4,26.3
				c9.8,13.2,14.8,26.4,15,26.9l2,5.3l-59.4,0.4L136.1,70z M198.4,17.7c-0.5,0-1.1,0-1.6,0c-27.4,1.3-43.4,31.5-48.8,44l52.3-1.1
				l47.3-0.3C241.8,47.9,224.9,17.7,198.4,17.7z"/>
		</g>
		<g>
			<path class="st2" d="M212.6,109.6c-7.3-0.1-10.4,0.1-10.8,0.1c-7,0.3-81.7,3.6-123.5,12.2c0,0-35.5,7.4-39.9,20.9L17.1,97.2
				c0,0,58.1-34,183.1-34c168.5,0.1,179.2,33.4,179.2,33.4l0,0l-23.4,43.3C356.1,139.9,345.5,111.6,212.6,109.6z"/>
			<path d="M37.8,144.4c-2,0.2-3.5-0.7-4.2-2.1L13.3,98.9c-0.9-1.8-0.2-4,1.6-5h0c2.4-1.4,60.4-34.6,185-34.6c0.1,0,0.2,0,0.2,0
				c166.7,0.1,182,32.5,183.2,36.2l0.1,0.2c0.3,0.9,0.2,1.9-0.3,2.7l-20,40.5c-2,5.1-10.3,5.1-11.2,1.9l0.2,1.2
				c-0.1-0.4-0.5-2-0.8-2.4c-3.2-4.2-25.1-24.2-138.9-25.9c-6.3-0.1-9.4,0-10.5,0.1l-0.7,0c-19.2,0.9-84.7,4.4-122.2,12.1
				c-12,2.5-31.4,9.1-36.1,16.6c-0.6,1-1.7,1.7-2.9,1.8L37.8,144.4z M352.1,141.2L352.1,141.2L352.1,141.2z M24,102.1
				c3,6.3,9.7,20.7,13.1,28c1,2.1,3.8,2.8,5.7,1.4c11.9-8.5,31.8-12.9,34.7-13.5c37.1-7.6,98.7-11.1,123.5-12.2l0.7,0
				c1.5-0.1,4.8-0.2,11-0.1l0,0c90.7,1.3,125.8,14.9,139.2,24.3c1.9,1.3,4.5,0.7,5.5-1.3l16-29.6c0.8-1.4,0.4-3.2-0.8-4.3
				c-9-7.9-44.2-27.4-172.4-27.4c-0.1,0-0.2,0-0.2,0C100.8,67.3,44,89,25.8,97.4C23.9,98.3,23.1,100.3,24,102.1z"/>
		</g>
		<g>
			<path class="st1" d="M126.4,164.9c0,0-81.8-6.8-88-22.2c-5.7-14.1,80-37.6,160.3-35.6c93.9,2.4,146.7,14.6,157.3,32.7
				c0,0-37.8,24.4-84.1,25c0,0,5.9-23.6,1.6-26.4c-4.2-2.9-48.2-13.2-91.7-11c-43.5,2.2-58.9,10.6-58.9,10.6L126.4,164.9z"/>
			<path d="M131.2,169.3l-5.1-0.4c-0.2,0-20.9-1.8-42-5.4c-40.1-6.9-47.5-14.3-49.5-19.3c-0.8-1.9-1.1-4.8,1.4-8.2
				c11.8-16,90.9-34.6,163-32.8c65.1,1.6,145.8,9,160.8,34.8l1.4,2.5c0.2,0.4,0.1,1-0.3,1.2l-2.4,1.6c-1.6,1-39.3,25.1-86.4,25.7
				l-5.4,0.1l1.2-5c2.4-9.5,3.6-19.7,2.8-22.5c-5.9-2.6-47.2-12.2-88.6-10.1c-32.3,1.6-48.8,6.8-54.6,9.1L131.2,169.3z M194.3,123.2
				c19.1,0,36.6,2.1,48.8,4c13.5,2.1,29.2,5.6,32.9,8.1c1.5,1,5.9,4,1.2,25.5c34.1-1.8,62.9-16.4,72.8-22
				c-9-9.2-40.5-24.8-151.3-27.6c-34.7-0.9-73.9,3.1-107.7,10.8c-35.8,8.2-48.4,16.8-48.7,19.4c0.5,1.2,5,7.7,43.1,14.3
				c14.5,2.5,28.8,4.1,36.2,4.8l-3.2-24.5l2.4-1.3c0.7-0.4,16.8-8.9,60.7-11.2C185.9,123.3,190.2,123.2,194.3,123.2z"/>
		</g>
	</g>
	<polygon points="31.3,122 43.3,129.2 46,106.7 62.2,121.6 67.4,98.8 82.5,115.5 89.4,93 103.5,110.9 111.5,88.8 124.9,107.5 
		133.9,85.8 146.5,105.2 156.3,83.9 168.3,103.8 178.7,82.8 190.2,103.1 201.2,82.4 212.2,103 223.7,82.7 234.3,103.6 246.3,83.6 
		256.3,104.9 268.8,85.4 278.1,107 291.3,88.1 299.7,110 313.7,92 320.8,114.3 335.8,97.5 341.1,120.2 357.3,105.6 359.4,127.6 
		366,124.6 371.8,113.3 365.5,116.1 363,90.1 345.3,106.1 339.5,81.9 323.8,99.6 316.3,76.3 301.8,95 293.2,72.4 279.6,91.8 
		270.1,69.7 257.3,89.6 247,67.9 234.8,88.3 224.1,67 212.4,87.7 201.2,66.7 190,87.7 178.3,67 167.7,88.4 155.4,68.1 145.4,89.9 
		132.5,70.1 123.2,92.3 109.5,73.1 101.2,95.9 86.5,77.4 79.4,100.7 63.6,83.2 58,107.3 40.6,91.3 37.6,116.7 25.8,109.6 	"/>
</g>
<path d="M74.2,139.8h255.7c0,0-22.6,39.2-59.5,42c-20.7,1.6-36.1-16.7-44.8-24.2c-6.5-5.7-12.6-6.9-26.6,0
	c-9.5,4.7-9.2,14-31.5,21.8c-2.5,0.9-40.2,10.7-64.9-6.8c-3.6-2.6-15-9.6-22.8-19.9C72.3,142.6,74.4,140,74.2,139.8"/>
<path class="st3" d="M237.3,334.9l-6.3-4l3.2,2l-3.2-2c1.2-1.9,4-7.8,2.7-12.2c-0.6-2.1-2.1-3.7-4.7-4.9c-2.4-1.2-5-2.1-7.4-3
	c-6.2-2.3-12.1-4.4-13-9.8c-0.8-5.1,3.2-10.7,14-19.3c1.7-1.4,3-2.5,4-3.4c-2.1,0.4-5.2,1.1-9.8,2.5c-7.8,2.4-16.1-1.3-19.4-8.6
	c-2.4-5.4-2.7-13.6,9.6-22.2l4.3,6.1c-9.8,6.9-7.7,11.5-7.1,13c1.7,3.8,6.2,5.8,10.4,4.5c13.6-4.2,19.4-4.2,21.5-0.2
	c2.2,4.1-1.8,8.5-8.9,14.2c-11.6,9.3-11.3,12.1-11.3,12.2c0.2,1.1,5.6,3,8.1,4c2.5,0.9,5.4,1.9,8.1,3.3c4.5,2.1,7.4,5.5,8.6,9.6
	C243.4,325.1,237.9,333.9,237.3,334.9z"/>
<g>
	<path class="st4" d="M295.1,293.7c-13.6-13.1-24.5-18.6-32-20.9c-5.7-1.8-11.8,1.4-13.8,7.1l-28.4,82.8c-1.6,4.5-0.3,9.7,3.5,12.6
		c1.8,1.4,4.3,2.3,7.5,1.9c10-1.3,89.1-45.9,89.1-45.9C324.3,329.4,321.4,319.1,295.1,293.7z"/>
	<g>
		<path class="st5" d="M296.6,293.7c-15.3-14.4-27.3-19.7-34.9-21.6c-3.9-1-7,3.2-5,6.7c15.7,26.1,45.1,42.6,58.9,49.3
			c4,1.9,8.1-2.5,5.8-6.3C317.8,315.7,310.3,306.7,296.6,293.7z"/>
	</g>
	<path class="st6" d="M253.1,274.9l-30.3,86.5c-1.2,3.5-0.6,7.5,1.9,10.3c1.9,2.1,4.7,3.8,8.8,3.3c9.6-1.2,85.9-43.4,85.9-43.4
		S270.3,312.3,253.1,274.9z"/>
	<g>
		<path class="st7" d="M227.6,347.5l-3.9,11.3c0,0,5.5,12.7,14.3,14.7l8.6-3.8C246.5,369.7,229.3,360.4,227.6,347.5z"/>
		<path class="st7" d="M236.8,320.9l-5,14.2c0,0,10.2,21.4,24.5,29.8l12.7-6.4C269,358.5,248.3,344.7,236.8,320.9z"/>
		<path class="st7" d="M246.5,293.6l-4.6,13.1c0,0,25.6,36.5,47.9,40.7l11.2-6C301,341.4,266.2,325,246.5,293.6z"/>
	</g>
</g>
<path class="st8" d="M280.3,286.1l-8.2-2.6c0.1-0.3,10.1-33.7-10.1-53l5.9-6.2c10.1,9.6,15.4,23.3,15.4,39.8
	C283.3,276.3,280.5,285.7,280.3,286.1z"/>
<path class="st3" d="M301.6,307.9l-3.5-6.6c1.3-0.7,32.6-17.1,66.7-10.5l-1.4,7.4C331.9,292,301.9,307.7,301.6,307.9z"/>
<path class="st6" d="M307,277c-0.3-0.9-2.8-8.6,1.5-13.8c2.7-3.2,7-4.4,12.8-3.6c0.7,0.1,1.4,0.2,2,0.3c5.2,0.8,12.3,1.9,13.6,0.2
	c0.3-0.3,1.6-2.4-1.1-11.1c-0.7-2.4-3-9.7,1.3-14.3c2.7-2.9,7.1-3.7,13-2.3c2.5,0.6,5.2,0.1,7.4-1.3c2.1-1.4,3.6-3.6,4-6.1
	c0.5-2.8,0.1-5.2-1.1-7.3l7.3-4.4c2.3,3.8,3,8.2,2.2,13.1c-0.8,4.8-3.6,9.1-7.7,11.8c-4.1,2.7-9.3,3.6-14.1,2.5
	c-3.2-0.8-4.6-0.4-4.7-0.2c0,0-0.8,1.3,0.6,5.9c2,6.4,3.7,14.3-0.6,19.2c-4.5,5.2-12.3,4-21.4,2.6c-0.7-0.1-1.3-0.2-2-0.3
	c-3-0.4-4.5,0-5,0.6c-0.9,1.1-0.5,4.2,0,5.6L307,277z"/>
<path class="st8" d="M221.8,330.8l-7.5-2.3c-0.6-0.2-1-0.8-0.8-1.5l2.3-7.5c0.2-0.6,0.8-1,1.5-0.8l7.5,2.3c0.6,0.2,1,0.8,0.8,1.5
	l-2.3,7.5C223.1,330.7,222.4,331,221.8,330.8z"/>
<path class="st6" d="M263.5,262.1l-7.5-2.3c-0.6-0.2-1-0.8-0.8-1.5l2.3-7.5c0.2-0.6,0.8-1,1.5-0.8l7.5,2.3c0.6,0.2,1,0.8,0.8,1.5
	l-2.3,7.5C264.8,262,264.1,262.3,263.5,262.1z"/>
<path class="st6" d="M242.8,268.8L242.8,268.8c-2.8,0-5.1-2.3-5.1-5.1v0c0-2.8,2.3-5.1,5.1-5.1l0,0c2.8,0,5.1,2.3,5.1,5.1v0
	C247.9,266.6,245.6,268.8,242.8,268.8z"/>
<path class="st6" d="M343,326.2l-7.7,1.5c-0.6,0.1-1.3-0.3-1.4-0.9l-1.5-7.7c-0.1-0.6,0.3-1.3,0.9-1.4l7.7-1.5
	c0.6-0.1,1.3,0.3,1.4,0.9l1.5,7.7C344,325.5,343.6,326.1,343,326.2z"/>
<path class="st6" d="M349.3,354.1l-7.4,2.6c-0.6,0.2-1.3-0.1-1.5-0.7l-2.6-7.4c-0.2-0.6,0.1-1.3,0.7-1.5l7.4-2.6
	c0.6-0.2,1.3,0.1,1.5,0.7l2.6,7.4C350.2,353.3,349.9,353.9,349.3,354.1z"/>
<path class="st6" d="M361.5,338.9l-7.8-0.4c-0.6,0-1.1-0.6-1.1-1.2l0.4-7.8c0-0.6,0.6-1.1,1.2-1.1l7.8,0.4c0.6,0,1.1,0.6,1.1,1.2
	l-0.4,7.8C362.7,338.5,362.2,338.9,361.5,338.9z"/>
<path class="st8" d="M345.1,389l-7-3.5c-0.6-0.3-0.8-1-0.5-1.6l3.5-7c0.3-0.6,1-0.8,1.6-0.5l7,3.5c0.6,0.3,0.8,1,0.5,1.6l-3.5,7
	C346.4,389.1,345.7,389.3,345.1,389z"/>
<path class="st8" d="M342.6,222.3l-5.5,5.5c-0.5,0.5-1.2,0.5-1.7,0l-5.5-5.5c-0.5-0.5-0.5-1.2,0-1.7l5.5-5.5c0.5-0.5,1.2-0.5,1.7,0
	l5.5,5.5C343,221.1,343,221.8,342.6,222.3z"/>
<path class="st9" d="M285.4,236.6l-5.5-5.5c-0.5-0.5-0.5-1.2,0-1.7l5.5-5.5c0.5-0.5,1.2-0.5,1.7,0l5.5,5.5c0.5,0.5,0.5,1.2,0,1.7
	l-5.5,5.5C286.6,237.1,285.9,237.1,285.4,236.6z"/>
<path class="st9" d="M296.9,269.8l-7.5-2.3c-0.6-0.2-1-0.8-0.8-1.5l2.3-7.5c0.2-0.6,0.8-1,1.5-0.8l7.5,2.3c0.6,0.2,1,0.8,0.8,1.5
	l-2.3,7.5C298.2,269.6,297.5,270,296.9,269.8z"/>
<path class="st9" d="M302.1,361.9l-7.5-2.3c-0.6-0.2-1-0.8-0.8-1.5l2.3-7.5c0.2-0.6,0.8-1,1.5-0.8l7.5,2.3c0.6,0.2,1,0.8,0.8,1.5
	l-2.3,7.5C303.3,361.7,302.7,362.1,302.1,361.9z"/>
</svg>
