<?xml version="1.0" encoding="utf-8"?>
<!-- Generator: Adobe Illustrator 16.0.0, SVG Export Plug-In . SVG Version: 6.00 Build 0)  -->
<!DOCTYPE svg PUBLIC "-//W3C//DTD SVG 1.1//EN" "http://www.w3.org/Graphics/SVG/1.1/DTD/svg11.dtd">
<svg version="1.1" xmlns="http://www.w3.org/2000/svg" xmlns:xlink="http://www.w3.org/1999/xlink" x="0px" y="0px" width="400px"
	 height="120px" viewBox="0 0 400 120" enable-background="new 0 0 400 120" xml:space="preserve">
<g id="Layer_1" display="none">
</g>
<g id="Layer_3">
	<g>
		<path d="M18.481,27.999h20.358c5.568,0,10.193,0.87,13.876,2.61c3.683,1.74,6.626,4.06,8.831,6.96
			c2.204,2.901,3.755,6.207,4.655,9.918c0.898,3.712,1.348,7.541,1.348,11.484c0,4.409-0.565,8.512-1.696,12.31
			c-1.131,3.8-2.886,7.091-5.264,9.875c-2.379,2.784-5.38,4.975-9.004,6.568c-3.625,1.596-7.932,2.393-12.919,2.393H18.481V27.999z
			 M39.013,86.811c2.899,0,5.814-0.447,8.743-1.348c2.928-0.898,5.582-2.406,7.96-4.524c2.378-2.116,4.307-4.959,5.786-8.526
			c1.479-3.566,2.219-8.047,2.219-13.441c0-4.233-0.421-7.858-1.262-10.875c-0.841-3.015-1.944-5.553-3.306-7.612
			c-1.363-2.058-2.929-3.683-4.698-4.872c-1.77-1.188-3.597-2.102-5.481-2.741c-1.886-0.638-3.771-1.058-5.655-1.261
			c-1.885-0.203-3.582-0.305-5.089-0.305H22.309v55.505H39.013z"/>
		<path d="M105.567,81.243h-0.174c-0.522,1.335-1.277,2.597-2.262,3.784c-0.987,1.189-2.19,2.248-3.61,3.176
			c-1.422,0.929-3.032,1.653-4.829,2.175c-1.798,0.522-3.771,0.783-5.916,0.783c-4.756,0-8.439-1.03-11.049-3.089
			c-2.61-2.058-3.915-5.233-3.915-9.525c0-2.611,0.522-4.742,1.566-6.395c1.044-1.654,2.362-2.959,3.958-3.916
			c1.594-0.957,3.363-1.638,5.307-2.044c1.942-0.405,3.813-0.696,5.611-0.87l5.133-0.436c2.377-0.174,4.248-0.448,5.612-0.826
			c1.362-0.377,2.392-0.898,3.088-1.566c0.696-0.666,1.131-1.522,1.305-2.566c0.174-1.044,0.261-2.349,0.261-3.915
			c0-1.218-0.232-2.349-0.696-3.393c-0.465-1.044-1.189-1.971-2.175-2.784c-0.987-0.812-2.262-1.449-3.828-1.914
			c-1.566-0.464-3.48-0.696-5.742-0.696c-4.002,0-7.236,0.987-9.701,2.958c-2.466,1.973-3.814,4.959-4.045,8.961h-3.306
			c0.231-4.929,1.812-8.626,4.742-11.092c2.928-2.464,7.09-3.698,12.484-3.698s9.323,1.059,11.789,3.176
			c2.464,2.118,3.698,4.887,3.698,8.309v26.012c0,0.64,0.013,1.277,0.043,1.914c0.028,0.64,0.13,1.219,0.304,1.74
			c0.174,0.522,0.464,0.943,0.87,1.262c0.405,0.319,0.985,0.479,1.74,0.479c0.579,0,1.392-0.087,2.436-0.261v2.784
			c-0.87,0.232-1.77,0.348-2.697,0.348c-1.335,0-2.393-0.174-3.175-0.522c-0.783-0.348-1.378-0.812-1.784-1.392
			c-0.406-0.579-0.683-1.262-0.827-2.045c-0.146-0.783-0.217-1.638-0.217-2.566V81.243z M105.567,64.713
			c-0.813,0.987-2.044,1.653-3.698,2.002c-1.653,0.348-3.495,0.608-5.524,0.782l-5.568,0.522c-1.625,0.174-3.249,0.421-4.872,0.739
			c-1.625,0.319-3.088,0.856-4.394,1.609c-1.305,0.755-2.364,1.784-3.175,3.089c-0.813,1.305-1.218,3.001-1.218,5.09
			c0,3.305,1.044,5.756,3.132,7.351c2.088,1.597,4.959,2.393,8.613,2.393c3.77,0,6.756-0.681,8.961-2.044
			c2.204-1.362,3.885-2.929,5.046-4.698c1.16-1.769,1.899-3.479,2.219-5.134c0.318-1.652,0.479-2.769,0.479-3.349V64.713z"/>
		<path d="M135.843,48.27h-9.744v31.234c0,1.798,0.203,3.219,0.609,4.262c0.405,1.045,1.029,1.842,1.87,2.393
			c0.84,0.553,1.856,0.885,3.045,1.001c1.188,0.116,2.566,0.146,4.132,0.087v2.871c-1.683,0.115-3.321,0.101-4.916-0.044
			c-1.596-0.144-3.001-0.579-4.22-1.305c-1.218-0.725-2.19-1.812-2.914-3.263c-0.726-1.449-1.031-3.449-0.914-6.002V48.27h-8.265
			v-2.871h8.265v-13.92h3.306v13.92h9.744V48.27z"/>
		<path d="M171.599,81.243h-0.174c-0.522,1.335-1.277,2.597-2.262,3.784c-0.987,1.189-2.19,2.248-3.61,3.176
			c-1.422,0.929-3.032,1.653-4.829,2.175c-1.798,0.522-3.771,0.783-5.916,0.783c-4.756,0-8.439-1.03-11.049-3.089
			c-2.61-2.058-3.915-5.233-3.915-9.525c0-2.611,0.522-4.742,1.566-6.395c1.044-1.654,2.362-2.959,3.958-3.916
			c1.594-0.957,3.363-1.638,5.307-2.044c1.942-0.405,3.813-0.696,5.611-0.87l5.133-0.436c2.377-0.174,4.248-0.448,5.612-0.826
			c1.362-0.377,2.392-0.898,3.088-1.566c0.696-0.666,1.131-1.522,1.305-2.566c0.174-1.044,0.261-2.349,0.261-3.915
			c0-1.218-0.232-2.349-0.696-3.393c-0.465-1.044-1.189-1.971-2.175-2.784c-0.987-0.812-2.262-1.449-3.828-1.914
			c-1.566-0.464-3.48-0.696-5.742-0.696c-4.002,0-7.236,0.987-9.701,2.958c-2.466,1.973-3.814,4.959-4.045,8.961h-3.306
			c0.231-4.929,1.812-8.626,4.742-11.092c2.928-2.464,7.09-3.698,12.484-3.698s9.323,1.059,11.789,3.176
			c2.464,2.118,3.698,4.887,3.698,8.309v26.012c0,0.64,0.013,1.277,0.043,1.914c0.028,0.64,0.13,1.219,0.304,1.74
			c0.174,0.522,0.464,0.943,0.87,1.262c0.405,0.319,0.985,0.479,1.74,0.479c0.579,0,1.392-0.087,2.436-0.261v2.784
			c-0.87,0.232-1.77,0.348-2.697,0.348c-1.335,0-2.393-0.174-3.175-0.522c-0.783-0.348-1.378-0.812-1.784-1.392
			c-0.406-0.579-0.683-1.262-0.827-2.045c-0.146-0.783-0.217-1.638-0.217-2.566V81.243z M171.599,64.713
			c-0.813,0.987-2.044,1.653-3.698,2.002c-1.653,0.348-3.495,0.608-5.524,0.782l-5.568,0.522c-1.625,0.174-3.249,0.421-4.872,0.739
			c-1.625,0.319-3.088,0.856-4.394,1.609c-1.305,0.755-2.364,1.784-3.175,3.089c-0.813,1.305-1.218,3.001-1.218,5.09
			c0,3.305,1.044,5.756,3.132,7.351c2.088,1.597,4.959,2.393,8.613,2.393c3.77,0,6.756-0.681,8.961-2.044
			c2.204-1.362,3.885-2.929,5.046-4.698c1.16-1.769,1.899-3.479,2.219-5.134c0.318-1.652,0.479-2.769,0.479-3.349V64.713z"/>
		<path d="M210.228,27.999h38.976v3.306h-35.148v24.882h31.668v3.306h-31.668v30.624h-3.827V27.999z"/>
		<path d="M253.118,68.193v0.521c0,2.61,0.349,5.105,1.047,7.482c0.697,2.379,1.729,4.467,3.097,6.264
			c1.366,1.799,3.082,3.219,5.146,4.264c2.063,1.043,4.463,1.565,7.196,1.565c4.479,0,8.026-1.175,10.643-3.523
			c2.617-2.349,4.42-5.611,5.409-9.788h3.306c-0.986,5.221-3.118,9.223-6.395,12.007c-3.277,2.784-7.612,4.176-13.006,4.176
			c-3.307,0-6.192-0.596-8.656-1.783c-2.467-1.188-4.524-2.813-6.178-4.872c-1.652-2.059-2.886-4.494-3.697-7.309
			c-0.812-2.812-1.218-5.842-1.218-9.092c0-3.131,0.42-6.133,1.262-9.004c0.84-2.871,2.102-5.394,3.784-7.569
			c1.682-2.175,3.784-3.915,6.308-5.22c2.522-1.305,5.494-1.958,8.917-1.958c3.132,0,5.901,0.581,8.309,1.74
			c2.406,1.161,4.422,2.74,6.047,4.742c1.623,2.001,2.855,4.321,3.697,6.96c0.84,2.64,1.262,5.467,1.262,8.482
			c0,0.291-0.015,0.624-0.044,1c-0.029,0.379-0.043,0.683-0.043,0.914H253.118z M286.004,65.322
			c-0.116-2.436-0.522-4.742-1.221-6.917c-0.698-2.175-1.73-4.089-3.097-5.742c-1.367-1.653-3.024-2.972-4.973-3.958
			c-1.949-0.985-4.173-1.479-6.673-1.479c-2.675,0-5.031,0.508-7.065,1.522c-2.037,1.016-3.752,2.349-5.147,4.002
			c-1.396,1.653-2.471,3.582-3.227,5.786c-0.756,2.205-1.223,4.467-1.396,6.786H286.004z"/>
		<path d="M298.619,75.24c0.115,2.088,0.579,3.93,1.392,5.524c0.812,1.596,1.87,2.958,3.176,4.089
			c1.305,1.131,2.827,1.988,4.567,2.566c1.74,0.58,3.624,0.87,5.654,0.87c1.449,0,3.002-0.13,4.655-0.392
			c1.652-0.261,3.188-0.739,4.61-1.436c1.421-0.695,2.596-1.666,3.523-2.914c0.928-1.246,1.393-2.828,1.393-4.742
			c0-2.492-0.755-4.378-2.262-5.654c-1.51-1.275-3.408-2.262-5.699-2.958c-2.292-0.696-4.756-1.262-7.395-1.696
			c-2.64-0.436-5.104-1.088-7.396-1.958c-2.292-0.87-4.19-2.102-5.698-3.697c-1.509-1.595-2.262-3.929-2.262-7.003
			c0-2.204,0.492-4.046,1.479-5.525c0.985-1.479,2.247-2.653,3.785-3.523c1.536-0.87,3.262-1.492,5.176-1.87
			c1.914-0.377,3.828-0.566,5.742-0.566c2.319,0,4.494,0.261,6.525,0.783c2.029,0.522,3.784,1.363,5.264,2.523
			c1.479,1.161,2.638,2.64,3.479,4.437c0.84,1.798,1.262,3.974,1.262,6.525h-3.307c0-2.029-0.334-3.77-1-5.22
			c-0.667-1.449-1.596-2.624-2.784-3.523c-1.189-0.899-2.597-1.566-4.22-2.001c-1.624-0.435-3.364-0.653-5.22-0.653
			c-1.509,0-3.031,0.146-4.567,0.435c-1.537,0.291-2.914,0.783-4.133,1.479c-1.218,0.696-2.218,1.596-3.001,2.697
			c-0.783,1.102-1.175,2.436-1.175,4.002c0,1.798,0.436,3.249,1.305,4.35c0.87,1.102,2.015,1.988,3.437,2.654
			c1.421,0.667,3.016,1.204,4.785,1.609c1.769,0.406,3.553,0.813,5.351,1.218c2.204,0.406,4.276,0.885,6.221,1.436
			c1.942,0.553,3.624,1.305,5.046,2.262c1.421,0.957,2.537,2.19,3.35,3.698c0.812,1.509,1.218,3.423,1.218,5.741
			c0,2.437-0.552,4.438-1.653,6.004c-1.102,1.565-2.494,2.827-4.176,3.784c-1.683,0.957-3.553,1.623-5.611,2.001
			c-2.06,0.377-4.075,0.565-6.047,0.565c-2.553,0-4.915-0.334-7.09-1c-2.175-0.667-4.075-1.683-5.698-3.046
			c-1.625-1.361-2.901-3.029-3.828-5.002c-0.929-1.971-1.422-4.264-1.479-6.873H298.619z"/>
		<path d="M355.342,48.27h-9.744v31.234c0,1.798,0.202,3.219,0.608,4.262c0.405,1.045,1.029,1.842,1.871,2.393
			c0.84,0.553,1.855,0.885,3.045,1.001c1.188,0.116,2.566,0.146,4.132,0.087v2.871c-1.683,0.115-3.32,0.101-4.915-0.044
			c-1.596-0.144-3.002-0.579-4.22-1.305c-1.218-0.725-2.189-1.812-2.914-3.263c-0.727-1.449-1.03-3.449-0.914-6.002V48.27h-8.265
			v-2.871h8.265v-13.92h3.307v13.92h9.744V48.27z"/>
		<path d="M369.608,34.785h2.697c2.088,0,3.958-0.565,5.611-1.696c1.653-1.131,2.479-2.885,2.479-5.264
			c0-2.377-0.696-4.176-2.088-5.394c-1.392-1.218-3.336-1.827-5.829-1.827c-2.958,0-5.163,0.798-6.612,2.393
			c-1.45,1.596-2.233,3.756-2.349,6.481h-2.958c0.058-3.421,1.116-6.19,3.176-8.308c2.058-2.117,5.002-3.176,8.83-3.176
			c3.307,0,5.93,0.87,7.874,2.61c1.942,1.74,2.914,4.119,2.914,7.134c0,2.031-0.609,3.771-1.827,5.22
			c-1.218,1.451-2.842,2.436-4.872,2.958c2.61,0.348,4.625,1.364,6.047,3.045c1.421,1.683,2.132,3.741,2.132,6.177
			c0,1.857-0.335,3.48-1.001,4.872c-0.667,1.392-1.565,2.553-2.697,3.48c-1.131,0.928-2.479,1.639-4.045,2.131
			c-1.566,0.494-3.219,0.74-4.959,0.74c-3.887,0-6.932-1.058-9.135-3.176c-2.205-2.116-3.307-5.089-3.307-8.917h2.958
			c0,3.132,0.826,5.496,2.479,7.091c1.653,1.596,3.959,2.392,6.917,2.392c2.726,0,5.046-0.696,6.96-2.088s2.871-3.537,2.871-6.438
			c0-2.436-0.842-4.335-2.523-5.698c-1.683-1.362-4.032-2.044-7.047-2.044h-2.697V34.785z"/>
	</g>
</g>
</svg>
