<?xml version="1.0" encoding="UTF-8" standalone="no"?>
<svg width="377px" height="142px" viewBox="0 0 377 142" version="1.1" xmlns="http://www.w3.org/2000/svg" xmlns:xlink="http://www.w3.org/1999/xlink">
    <!-- Generator: Sketch 46.1 (44463) - http://www.bohemiancoding.com/sketch -->
    <title>Logo Horizontal</title>
    <desc>Created with Sketch.</desc>
    <defs></defs>
    <g id="Actual" stroke="none" stroke-width="1" fill="none" fill-rule="evenodd">
        <g id="Main-v2-Copy" transform="translate(-223.000000, -249.000000)">
            <g id="Logo-Horizontal" transform="translate(223.000000, 249.000000)">
                <g id="Untitled-1-Copy" fill-rule="nonzero">
                    <path d="M60.0271451,142 C26.9143449,142 0,115.035222 0,81.9272588 C0,69.6408882 3.69732415,57.7894334 10.6569931,47.7320061 C16.8010759,38.9249617 25.0656829,31.9663093 34.6896002,27.4540582 C35.2333243,20.9303216 37.4625933,14.7871363 41.105545,9.89433384 C45.7272002,3.69678407 52.1431451,0.217457887 59.1571865,0 C59.2115589,0 59.3203037,0 59.3746761,0 C59.5377934,0 59.6465382,0 59.8096554,0 L60.1902623,0 C62.8001382,0.163093415 65.3012692,0.706738132 67.6392831,1.57656968 L67.9111451,0.761102603 C69.1073382,0.97856049 70.1404141,1.19601838 71.1191176,1.46784074 C84.1684969,4.94716692 93.0312004,13.9716692 95.477959,26.1493109 C95.9673108,28.6500766 96.0760556,31.1508423 95.6954487,33.5972435 C110.919725,44.9050536 119.999918,62.8996937 119.999918,81.8728943 C120.05429,115.089587 93.1399452,142 60.0271451,142 Z M52.3606347,37.6745789 C53.6112002,40.1209801 55.5142347,41.9693721 57.7978761,42.5673813 C58.2872278,42.7304747 58.830952,42.7848392 59.3746761,42.7848392 L59.5377934,42.7848392 C59.9184003,42.7848392 60.3533796,42.7304747 60.7339865,42.6217458 L60.2446347,41.5888208 C59.4290485,41.5888208 58.6134623,41.4257274 57.7978761,41.2082695 C55.5686071,40.6102603 53.7199451,39.305513 52.3606347,37.6745789 Z" id="Shape" fill="#FFFFFF"></path>
                    <path d="M65.7654382,31.582331 C66.5253984,28.8324347 64.8969124,26.0286188 62.1284861,25.2737453 C59.3600598,24.5188718 56.5373506,26.1903774 55.8316733,28.8863542 C55.0717131,31.6362505 56.7001992,34.4400664 59.4686255,35.1949399 C62.2370518,35.9498134 65.059761,34.3322273 65.7654382,31.582331 Z M60.2828685,28.7245956 C59.1972112,29.0481128 58.002988,29.6412277 57.8944223,28.8863542 C57.7315737,28.1314807 58.6000996,27.1609291 59.6314741,26.9452509 C60.6628486,26.5138946 62.1284861,27.2148486 62.2370518,27.861883 C62.2913347,28.5089175 61.2599602,28.5089175 60.2828685,28.7245956 Z M92.2011952,36.920365 C91.9297809,37.621319 91.6040837,38.3761925 91.1698207,39.1310659 C90.7355578,39.939859 90.1384462,40.8025715 89.5956175,41.557445 C101.646414,50.4541684 109.463147,64.7428453 109.463147,80.8647864 C109.463147,95.5309 102.949203,108.687267 92.689741,117.691829 C97.7923307,99.9523019 104.306275,77.4678557 104.740538,75.9581087 C105.446215,73.47781 103.980578,72.7768561 103.980578,72.7768561 L91.0069721,70.1347988 C90.5727092,70.0808793 90.1927291,70.0269598 89.8670319,70.0269598 C89.9755976,70.5122356 89.8670319,70.9435919 89.8670319,70.9435919 C89.8670319,70.9435919 85.252988,87.4429697 79.9332669,106.422646 L88.1842629,94.9377852 C89.1070717,94.2907507 87.9128486,96.3396931 87.9128486,96.3396931 C87.9128486,96.3396931 81.12749,106.045209 80.6389442,106.692244 C80.1503984,107.339278 79.3361554,109.064703 79.3361554,109.064703 L88.5099602,96.231854 L88.6728088,96.6632103 C88.6728088,96.6632103 88.6185259,97.5259229 89.3784861,98.0651182 C90.1384462,98.6043136 89.2156375,99.4131066 88.6728088,100.16798 C88.1299801,100.922854 86.6100598,103.349233 85.7958167,104.265865 C85.0358566,105.182497 75.7534861,118.7163 75.373506,119.363335 C74.9935259,119.95645 71.5737052,124.108254 70.9765936,125.078805 C70.4337649,125.995438 69.2395418,127.127748 67.3396414,129.23061 C67.0139442,129.284529 66.6339641,129.338449 66.2539841,129.392368 C66.2539841,129.392368 66.2539841,129.392368 66.2539841,129.392368 C66.688247,128.637495 67.1767928,128.206139 66.8510956,127.235587 C66.5253984,126.265035 65.4940239,127.666943 65.059761,128.260058 C64.9511952,128.421817 64.5712151,128.961012 64.1369522,129.608046 C63.9741036,129.608046 63.811255,129.608046 63.6484064,129.661966 C64.8426295,127.666943 66.2539841,125.456242 66.2539841,125.456242 L78.1962151,108.849025 C83.6787849,89.2223144 88.6728088,71.5906263 88.6728088,71.5906263 C88.6728088,71.5906263 89.2156375,69.5956035 86.8271912,68.9485691 C76.2420319,66.1447532 42.6409363,57.6793861 42.6409363,57.6793861 C42.6409363,57.6793861 39.9810757,56.7088345 39.438247,59.4048113 C39.1125498,60.9684778 31.4586653,90.7859809 25.2161355,114.888013 C24.6190239,114.240979 23.9676295,113.593944 23.4248008,112.94691 C24.7818725,111.059726 25.9760956,107.339278 25.9760956,107.339278 L27.9302789,98.1190377 L20.0049801,108.579428 C14.5224104,100.707175 11.3197211,91.1094981 11.3197211,80.8108669 C11.3197211,60.6449606 23.5876494,43.3367897 41.1210159,35.8419743 C42.9666335,45.3857321 49.1005976,52.8805475 56.7001992,54.8755703 C57.2430279,55.0373289 57.7858566,55.145168 58.3286853,55.1990875 C58.6543825,55.3608461 58.9800797,55.4686852 59.251494,55.5765243 C60.5,55.953961 62.1284861,55.953961 61.9656375,57.0862713 C61.8027888,58.272501 61.3685259,59.8900871 61.3685259,59.8900871 C61.3685259,59.8900871 60.8256972,61.184156 62.997012,61.8311904 C65.1683267,62.4782248 78.8476096,65.7673165 80.313247,66.0369141 C81.8331673,66.3065118 82.7559761,65.9829946 82.8645418,64.6889258 C82.9731076,63.3948569 85.3072709,48.9983409 85.3072709,48.9983409 C85.3072709,48.9983409 85.5786853,46.9493986 83.190239,49.2679386 C80.8017928,51.5864786 76.2963147,53.5815015 78.684761,49.9688926 C79.2818725,49.10618 79.7161355,48.297387 79.9875498,47.6503526 C86.935757,42.5279967 92.309761,35.1949399 90.5727092,26.6217337 C88.2928287,15.5143094 79.9332669,8.88220655 70.1623506,6.29406885 C69.2938247,6.07839071 68.3710159,5.86271257 67.4482072,5.70095396 C75.9706175,9.96059726 79.2818725,16.7005392 79.7161355,23.3326421 C77.7076693,15.4064703 72.3336653,5.86271257 60.2828685,5 C60.1200199,5 59.9571713,5 59.7943227,5 C48.8291833,5.32351721 40.3067729,16.6466197 40.5239044,30.3961012 C20.3306773,38.3222729 6,57.8950643 6,80.8108669 C6,110.736209 30.373008,135 60.5,135 C90.5727092,135 115,110.736209 115,80.8108669 C114.782869,62.7478225 105.880478,46.7337204 92.2011952,36.920365 Z M59.0343625,14.058482 C60.1743028,14.0045624 61.2599602,14.166321 62.3456175,14.4359187 C68.3710159,16.0535048 73.0393426,22.4699295 73.2564741,30.2882621 C73.5278884,39.5085027 67.5567729,47.1111572 59.9571713,47.3268353 C58.8172311,47.3807549 57.7315737,47.2189963 56.6459163,46.9493986 C50.6205179,45.3318125 45.9521912,38.9153878 45.7350598,31.0970552 C45.4636454,21.9307341 51.434761,14.2741601 59.0343625,14.058482 Z M69.185259,81.6196599 C68.9138446,80.9187059 68.5881474,80.217752 68.2624502,79.5707175 C68.5881474,80.217752 68.9138446,80.9187059 69.185259,81.6196599 Z M56.1573705,78.9236831 C56.3202191,78.708005 57.6772908,75.7963501 58.6543825,74.178764 C59.1429283,73.369971 60.2285857,73.1003733 61.1513944,73.0464538 C60.9342629,72.9386147 60.7171315,72.8307756 60.4457171,72.7768561 C60.7171315,72.8846951 60.9342629,72.9386147 61.1513944,73.0464538 C61.1513944,73.0464538 61.1513944,73.0464538 61.0971116,73.0464538 C63.8655378,74.178764 66.1454183,76.1737868 67.7196215,78.7619245 C66.4711155,79.0315222 64.625498,81.3500622 63.7026892,81.8892576 C62.6713147,82.4823725 61.0428287,83.1833264 61.0428287,83.1833264 L59.4143426,83.9921195 C59.4143426,83.9921195 59.4143426,83.9921195 59.4143426,83.9921195 C58.5458167,82.3206139 57.188745,81.0804645 55.4516932,80.5951887 C55.3431275,80.5951887 55.2345618,80.5412692 55.1802789,80.5412692 C55.9945219,80.0559934 55.9945219,79.1393613 56.1573705,78.9236831 Z M52.9546813,83.1294069 C52.9546813,83.1294069 55.4516932,83.6686022 56.2116534,85.2322688 C56.9173307,86.7959353 56.9173307,87.6047283 56.9173307,87.6047283 C56.9173307,87.6047283 55.8316733,87.8204065 55.2345618,87.7125674 C55.5059761,87.3351307 56.0488048,87.1194525 55.6145418,86.7420158 C55.2345618,86.364579 53.6060757,86.0949813 53.6060757,86.0949813 L55.4516932,85.7714641 C55.4516932,85.7714641 55.7231076,85.2861883 55.3974104,84.9626711 C55.0717131,84.6391539 53.8232072,83.7225218 52.9003984,83.6146827 C51.9775896,83.5068436 50.5662351,83.237246 50.5662351,83.237246 L52.9546813,83.1294069 Z M49.8605578,84.5852343 C51.7604582,85.0705102 52.7918327,87.2812111 52.1947211,89.4919121 C51.9775896,90.192866 51.6518924,90.8399005 51.2176295,91.3790958 C51.4890438,91.0016591 51.6518924,90.5703028 51.814741,90.085027 C52.4118526,87.874326 51.3261952,85.7175446 49.4805777,85.1783492 C48.6120518,84.9087516 48.6663347,84.2617171 49.8605578,84.5852343 Z M49.5891434,85.7175446 C50.5662351,86.0410618 50.7833665,86.364579 51.000498,87.6586479 C50.4576693,86.8498548 49.8605578,86.2567399 49.1005976,85.9871423 C48.5577689,85.8253837 48.5034861,85.5018664 49.5891434,85.7175446 Z M49.1548805,86.6880962 C49.9148406,86.9037744 50.0776892,87.2272916 50.2405378,88.1978432 C49.8062749,87.5508088 49.372012,87.1194525 48.7749004,86.9037744 C48.3406375,86.7959353 48.3406375,86.5263376 49.1548805,86.6880962 Z M50.3491036,107.17752 C43.9437251,105.452095 39.8182271,99.1974285 39.6553785,91.9182912 C39.6553785,91.9182912 39.6553785,91.9182912 39.6553785,91.9182912 C39.6553785,91.8643716 39.6553785,91.8104521 39.6553785,91.8104521 C39.6553785,91.8643716 39.6553785,91.9182912 39.6553785,91.9182912 C40.3067729,91.2173372 41.500996,90.4085442 43.8351594,90.7320614 C44.2151394,92.2418084 45.1922311,93.4819577 46.4950199,94.0750726 C47.3092629,96.0700954 48.7749004,97.5798424 50.7833665,98.1190377 C53.8232072,98.9278308 57.1344622,97.0945666 58.9257968,93.8593944 C60.8256972,94.6681875 63.7569721,96.1240149 67.6110558,98.6582331 C67.7196215,98.4964745 67.8281873,98.2807964 67.936753,98.1190377 C67.8281873,98.2807964 67.7196215,98.4964745 67.6110558,98.6582331 C67.6110558,98.6582331 67.6110558,98.6582331 67.6110558,98.6582331 C63.9198207,105.236416 56.9716135,108.956864 50.3491036,107.17752 Z M73.7993028,127.882621 C73.4193227,127.99046 73.0393426,128.098299 72.6050797,128.206139 C72.6050797,128.152219 72.6593625,128.098299 72.6593625,128.04438 L74.5592629,125.186645 C74.3421315,126.103277 74.0707171,126.965989 73.7993028,127.882621 Z M78.8476096,126.157196 C79.2275896,125.941518 79.6075697,125.779759 79.9875498,125.67192 C79.6075697,125.833679 79.2275896,125.995438 78.8476096,126.157196 Z M89.1070717,85.9871423 C89.4327689,84.7469929 90.247012,83.7764413 90.8441235,83.9921195 C91.2241036,84.1538781 90.6812749,84.4234757 90.5184263,84.4773953 C89.9755976,84.6930734 89.4327689,85.4479469 89.2156375,86.4184985 C88.998506,87.065533 88.998506,87.7125674 89.0527888,88.1978432 C88.8899402,87.7664869 88.8899402,86.9037744 89.1070717,85.9871423 Z M89.4870518,93.3201991 L88.4013944,92.6731647 L93.0697211,85.8253837 L94.1553785,86.4724181 C94.4810757,86.6880962 94.5353586,87.065533 94.37251,87.3351307 L90.3555777,93.21236 C90.1927291,93.4819577 89.812749,93.5358772 89.4870518,93.3201991 Z M91.1155378,93.6437163 L95.5124502,87.065533 C95.5124502,87.065533 96.2724104,87.2272916 96.8695219,87.6047283 C97.4123506,87.9821651 97.7923307,88.57528 97.7923307,88.57528 L93.3954183,95.1534633 C93.3954183,95.1534633 93.0697211,94.6142679 92.5268924,94.2368312 C91.9297809,93.8054749 91.1155378,93.6437163 91.1155378,93.6437163 Z M47.3092629,26.1903774 C47.2549801,26.2982165 47.2549801,26.4599751 47.2006972,26.5678142 C48.6663347,20.2592285 53.2803785,15.5143094 58.8715139,15.2986313 C59.9028884,15.2447117 60.8799801,15.3525508 61.8570717,15.6221485 C67.3396414,17.0779759 71.4651394,23.0091248 71.627988,30.2343426 C71.7908367,37.2978017 68.0453187,43.3907092 62.8341633,45.3857321 C64.1912351,44.7386976 65.439741,43.8220655 66.5253984,42.6358358 C67.7196215,41.3417669 68.750996,39.7781004 69.565239,38.0526752 C69.7823705,37.621319 69.9452191,37.1360431 70.1080677,36.7046869 C70.1623506,36.4890087 70.2709163,36.219411 70.3251992,36.0037329 C70.3794821,35.7880547 70.4880478,35.5184571 70.5423307,35.3027789 C70.813745,34.3322273 70.9765936,33.3077561 71.0308765,32.2832849 C71.627988,25.2198258 68.2081673,18.7494815 62.9427291,16.5927001 C62.7255976,16.4848611 62.4541833,16.4309415 62.2370518,16.3231024 C62.1284861,16.2691829 62.0199203,16.2691829 61.8570717,16.2152634 C61.748506,16.1613438 61.6399402,16.1613438 61.4770916,16.1074243 C60.9885458,15.9995852 60.5,15.8917462 59.9571713,15.8917462 C56.4830677,15.6221485 53.2260956,17.2397345 50.7833665,20.0435504 C49.5891434,21.4454583 48.5577689,23.0630444 47.7978088,24.8423891 C47.6349602,25.2737453 47.4721116,25.7051016 47.3092629,26.1903774 Z" id="Shape" fill="#101429"></path>
                </g>
                <path d="M165.081055,52.2626953 L159.306641,52.2626953 L158.304688,46.9892578 C157.636715,46.5673807 156.661139,46.1982438 155.37793,45.8818359 C154.09472,45.5654281 152.732429,45.4072266 151.291016,45.4072266 C149.18163,45.4072266 147.551275,45.8510698 146.399902,46.7387695 C145.248529,47.6264693 144.672852,48.7734305 144.672852,50.1796875 C144.672852,51.4804753 145.274896,52.5483357 146.479004,53.3833008 C147.683111,54.2182659 149.761704,55.1015578 152.714844,56.0332031 C156.951193,57.2109434 160.163563,58.7665919 162.352051,60.7001953 C164.540538,62.6337987 165.634766,65.1738124 165.634766,68.3203125 C165.634766,71.6074383 164.333997,74.2001858 161.732422,76.0986328 C159.130846,77.9970798 155.703146,78.9462891 151.449219,78.9462891 C148.408188,78.9462891 145.661633,78.4628955 143.209473,77.4960938 C140.757312,76.529292 138.713875,75.1933679 137.079102,73.4882812 L137.079102,65.4726562 L143.038086,65.4726562 L143.855469,70.9306641 C144.62891,71.5634797 145.679193,72.0864237 147.006348,72.4995117 C148.333503,72.9125997 149.814445,73.1191406 151.449219,73.1191406 C153.558604,73.1191406 155.162592,72.6884809 156.26123,71.8271484 C157.359869,70.965816 157.90918,69.8144603 157.90918,68.3730469 C157.90918,66.896477 157.386236,65.7099654 156.340332,64.8134766 C155.294428,63.9169877 153.461927,63.0732461 150.842773,62.2822266 C146.290016,60.9638606 142.844738,59.3994231 140.506836,57.5888672 C138.168934,55.7783113 137,53.2998204 137,50.1533203 C137,47.0419766 138.318346,44.4975685 140.955078,42.5200195 C143.59181,40.5424706 146.905253,39.527344 150.895508,39.4746094 C153.848648,39.4746094 156.538074,39.9228471 158.963867,40.8193359 C161.389661,41.7158248 163.428703,42.9111253 165.081055,44.4052734 L165.081055,52.2626953 Z M196.431641,64.9189453 C196.431641,69.1728728 195.482431,72.574206 193.583984,75.1230469 C191.685537,77.6718877 188.943377,78.9462891 185.357422,78.9462891 C183.687492,78.9462891 182.237311,78.5991246 181.006836,77.9047852 C179.776361,77.2104457 178.739262,76.2041082 177.895508,74.8857422 L177.341797,78.3925781 L170.697266,78.3925781 L170.697266,42.6914062 L166.610352,41.9003906 L166.610352,37.2597656 L178.370117,37.2597656 L178.370117,52.8955078 C179.196293,51.752924 180.185053,50.8740265 181.336426,50.2587891 C182.487799,49.6435516 183.810539,49.3359375 185.304688,49.3359375 C188.925799,49.3359375 191.685537,50.7026231 193.583984,53.4360352 C195.482431,56.1694473 196.431641,59.8124772 196.431641,64.3652344 L196.431641,64.9189453 Z M188.758789,64.3652344 C188.758789,61.5878767 188.350102,59.3862386 187.532715,57.7602539 C186.715328,56.1342692 185.322275,55.3212891 183.353516,55.3212891 C182.158197,55.3212891 181.147465,55.5717748 180.321289,56.0727539 C179.495113,56.573733 178.844729,57.2900344 178.370117,58.2216797 L178.370117,70.2714844 C178.844729,71.150395 179.499508,71.8183571 180.334473,72.2753906 C181.169438,72.7324242 182.193353,72.9609375 183.40625,72.9609375 C185.392588,72.9609375 186.781246,72.262214 187.572266,70.8647461 C188.363285,69.4672782 188.758789,67.4853644 188.758789,64.9189453 L188.758789,64.3652344 Z M213.649414,78.9462891 C209.536112,78.9462891 206.249036,77.6279429 203.788086,74.9912109 C201.327136,72.354479 200.09668,69.0058797 200.09668,64.9453125 L200.09668,63.890625 C200.09668,59.6542757 201.261219,56.1650528 203.590332,53.4228516 C205.919445,50.6806504 209.043926,49.3183593 212.963867,49.3359375 C216.813496,49.3359375 219.801747,50.4960821 221.928711,52.8164062 C224.055675,55.1367304 225.119141,58.2743943 225.119141,62.2294922 L225.119141,66.421875 L208.085938,66.421875 L208.033203,66.5800781 C208.173829,68.4609469 208.802241,70.0078064 209.918457,71.2207031 C211.034674,72.4335998 212.550772,73.0400391 214.466797,73.0400391 C216.171884,73.0400391 217.586908,72.8686541 218.711914,72.5258789 C219.83692,72.1831038 221.067376,71.6425818 222.40332,70.9042969 L224.486328,75.6503906 C223.308588,76.5820359 221.783701,77.3642546 219.911621,77.9970703 C218.039541,78.629886 215.95216,78.9462891 213.649414,78.9462891 Z M212.963867,55.2685547 C211.540032,55.2685547 210.415043,55.8134711 209.588867,56.9033203 C208.762691,57.9931695 208.252931,59.4257724 208.05957,61.2011719 L208.138672,61.3330078 L217.578125,61.3330078 L217.578125,60.6474609 C217.578125,59.0126871 217.195805,57.7075244 216.431152,56.7319336 C215.6665,55.7563428 214.51075,55.2685547 212.963867,55.2685547 Z M229.337891,73.7783203 L233.029297,72.9873047 L233.029297,55.2949219 L228.942383,54.5039062 L228.942383,49.8632812 L240.201172,49.8632812 L240.543945,54.0292969 C241.211917,52.552727 242.073237,51.4013713 243.12793,50.5751953 C244.182622,49.7490193 245.40429,49.3359375 246.792969,49.3359375 C247.197268,49.3359375 247.623533,49.3666989 248.071777,49.4282227 C248.520022,49.4897464 248.893553,49.5644527 249.192383,49.6523438 L248.375,56.6660156 L245.210938,56.5869141 C244.085932,56.5869141 243.154301,56.8066384 242.416016,57.2460938 C241.677731,57.6855491 241.115236,58.3095663 240.728516,59.1181641 L240.728516,72.9873047 L244.419922,73.7783203 L244.419922,78.3925781 L229.337891,78.3925781 L229.337891,73.7783203 Z M279.066406,64.9189453 C279.066406,69.1728728 278.117197,72.574206 276.21875,75.1230469 C274.320303,77.6718877 271.578143,78.9462891 267.992188,78.9462891 C266.322257,78.9462891 264.872076,78.5991246 263.641602,77.9047852 C262.411127,77.2104457 261.374028,76.2041082 260.530273,74.8857422 L259.976562,78.3925781 L253.332031,78.3925781 L253.332031,42.6914062 L249.245117,41.9003906 L249.245117,37.2597656 L261.004883,37.2597656 L261.004883,52.8955078 C261.831059,51.752924 262.819818,50.8740265 263.971191,50.2587891 C265.122564,49.6435516 266.445305,49.3359375 267.939453,49.3359375 C271.560565,49.3359375 274.320303,50.7026231 276.21875,53.4360352 C278.117197,56.1694473 279.066406,59.8124772 279.066406,64.3652344 L279.066406,64.9189453 Z M271.393555,64.3652344 C271.393555,61.5878767 270.984867,59.3862386 270.16748,57.7602539 C269.350094,56.1342692 267.957041,55.3212891 265.988281,55.3212891 C264.792963,55.3212891 263.782231,55.5717748 262.956055,56.0727539 C262.129879,56.573733 261.479495,57.2900344 261.004883,58.2216797 L261.004883,70.2714844 C261.479495,71.150395 262.134273,71.8183571 262.969238,72.2753906 C263.804203,72.7324242 264.828119,72.9609375 266.041016,72.9609375 C268.027354,72.9609375 269.416012,72.262214 270.207031,70.8647461 C270.998051,69.4672782 271.393555,67.4853644 271.393555,64.9189453 L271.393555,64.3652344 Z M300.792969,78.3925781 C300.58203,77.9179664 300.397462,77.4301783 300.239258,76.9291992 C300.081054,76.4282202 299.958008,75.9228541 299.870117,75.4130859 C298.95605,76.4677787 297.844245,77.3203092 296.534668,77.9707031 C295.225091,78.621097 293.726571,78.9462891 292.039062,78.9462891 C289.244127,78.9462891 287.024911,78.1860428 285.381348,76.6655273 C283.737785,75.1450119 282.916016,73.0752084 282.916016,70.4560547 C282.916016,67.7841663 283.988271,65.7187573 286.132812,64.2597656 C288.277354,62.800774 291.423807,62.0712891 295.572266,62.0712891 L299.500977,62.0712891 L299.500977,59.2763672 C299.500977,57.9052666 299.105473,56.8418007 298.314453,56.0859375 C297.523434,55.3300743 296.3545,54.9521484 294.807617,54.9521484 C293.928707,54.9521484 293.146488,55.0532216 292.460938,55.2553711 C291.775387,55.4575205 291.221682,55.6992173 290.799805,55.9804688 L290.298828,59.0390625 L284.498047,59.0390625 L284.524414,52.7109375 C285.930671,51.761714 287.543448,50.9619173 289.362793,50.3115234 C291.182138,49.6611296 293.164052,49.3359375 295.308594,49.3359375 C298.841815,49.3359375 301.711415,50.2016515 303.91748,51.9331055 C306.123546,53.6645594 307.226562,56.1298668 307.226562,59.3291016 L307.226562,71.1152344 C307.226562,71.5546897 307.230957,71.9677715 307.239746,72.3544922 C307.248535,72.7412129 307.279297,73.1103498 307.332031,73.4619141 L309.678711,73.7783203 L309.678711,78.3925781 L300.792969,78.3925781 Z M294.12207,73.2509766 C295.282232,73.2509766 296.336909,73.0004908 297.286133,72.4995117 C298.235356,71.9985327 298.97363,71.370121 299.500977,70.6142578 L299.500977,66.2636719 L295.572266,66.2636719 C293.937492,66.2636719 292.698246,66.6459923 291.854492,67.4106445 C291.010738,68.1752968 290.588867,69.0937446 290.588867,70.1660156 C290.588867,71.1328173 290.900876,71.8886692 291.524902,72.4335938 C292.148929,72.9785183 293.014643,73.2509766 294.12207,73.2509766 Z M311.867188,73.7783203 L315.558594,72.9873047 L315.558594,55.2949219 L311.47168,54.5039062 L311.47168,49.8632812 L322.730469,49.8632812 L323.073242,53.9501953 C324.022466,52.4912036 325.191399,51.3574259 326.580078,50.5488281 C327.968757,49.7402303 329.524405,49.3359375 331.24707,49.3359375 C334.129897,49.3359375 336.379875,50.2412019 337.99707,52.0517578 C339.614266,53.8623137 340.422852,56.7011525 340.422852,60.5683594 L340.422852,72.9873047 L344.114258,73.7783203 L344.114258,78.3925781 L329.401367,78.3925781 L329.401367,73.7783203 L332.697266,72.9873047 L332.697266,60.5947266 C332.697266,58.6787014 332.310551,57.3208048 331.537109,56.5209961 C330.763668,55.7211874 329.594734,55.3212891 328.030273,55.3212891 C327.010737,55.3212891 326.096684,55.52783 325.288086,55.940918 C324.479488,56.354006 323.802737,56.9384728 323.257812,57.6943359 L323.257812,72.9873047 L326.369141,73.7783203 L326.369141,78.3925781 L311.867188,78.3925781 L311.867188,73.7783203 Z M345.749023,41.9003906 L345.749023,37.2597656 L357.535156,37.2597656 L357.535156,61.0957031 L359.249023,61.0957031 L363.678711,54.8466797 L361.173828,54.5039062 L361.173828,49.8632812 L375.201172,49.8632812 L375.201172,54.5039062 L371.826172,55.2685547 L366.68457,62.3349609 L373.882812,73.171875 L376.80957,73.7783203 L376.80957,78.3925781 L363.625977,78.3925781 L363.625977,73.7783203 L365.208008,73.5146484 L360.831055,66.4482422 L357.535156,66.4482422 L357.535156,72.9873047 L360.857422,73.7783203 L360.857422,78.3925781 L346.144531,78.3925781 L346.144531,73.7783203 L349.862305,72.9873047 L349.862305,42.6914062 L345.749023,41.9003906 Z" id="Sberbank-Copy-4" fill="#FFFFFF"></path>
                <path d="M152.391602,115.759766 L149.564453,115.759766 L149.564453,105.901367 L138.8125,105.901367 L138.8125,115.759766 L136,115.759766 L136,94.4316406 L138.8125,94.4316406 L138.8125,103.601562 L149.564453,103.601562 L149.564453,94.4316406 L152.391602,94.4316406 L152.391602,115.759766 Z M156.244141,107.688477 C156.244141,106.135734 156.549313,104.739264 157.159668,103.499023 C157.770023,102.258783 158.619623,101.301761 159.708496,100.62793 C160.797369,99.9540982 162.040032,99.6171875 163.436523,99.6171875 C165.594737,99.6171875 167.340325,100.36425 168.67334,101.858398 C170.006354,103.352547 170.672852,105.339831 170.672852,107.820312 L170.672852,108.010742 C170.672852,109.553719 170.377444,110.937982 169.786621,112.163574 C169.195798,113.389166 168.35108,114.343747 167.252441,115.027344 C166.153803,115.710941 164.891609,116.052734 163.46582,116.052734 C161.317372,116.052734 159.576667,115.305672 158.243652,113.811523 C156.910638,112.317375 156.244141,110.339856 156.244141,107.878906 L156.244141,107.688477 Z M158.96875,108.010742 C158.96875,109.768563 159.376461,111.179682 160.191895,112.244141 C161.007328,113.308599 162.098626,113.84082 163.46582,113.84082 C164.84278,113.84082 165.936519,113.301275 166.74707,112.222168 C167.557621,111.143061 167.962891,109.631846 167.962891,107.688477 C167.962891,105.950187 167.550297,104.541509 166.725098,103.462402 C165.899898,102.383295 164.803718,101.84375 163.436523,101.84375 C162.098626,101.84375 161.019535,102.375971 160.199219,103.44043 C159.378902,104.504888 158.96875,106.02831 158.96875,108.010742 Z M177.015625,115.759766 L174.305664,115.759766 L174.305664,93.2597656 L177.015625,93.2597656 L177.015625,115.759766 Z M180.692383,107.703125 C180.692383,105.271472 181.268549,103.315925 182.420898,101.836426 C183.573248,100.356926 185.082022,99.6171875 186.947266,99.6171875 C188.802744,99.6171875 190.272456,100.251947 191.356445,101.521484 L191.356445,93.2597656 L194.066406,93.2597656 L194.066406,115.759766 L191.576172,115.759766 L191.444336,114.060547 C190.360346,115.388679 188.851572,116.052734 186.917969,116.052734 C185.082022,116.052734 183.585455,115.300789 182.428223,113.796875 C181.27099,112.292961 180.692383,110.33009 180.692383,107.908203 L180.692383,107.703125 Z M183.402344,108.010742 C183.402344,109.807626 183.773434,111.213862 184.515625,112.229492 C185.257816,113.245122 186.283197,113.75293 187.591797,113.75293 C189.310555,113.75293 190.565426,112.981453 191.356445,111.438477 L191.356445,104.158203 C190.545894,102.664055 189.30079,101.916992 187.621094,101.916992 C186.292962,101.916992 185.257816,102.429682 184.515625,103.455078 C183.773434,104.480474 183.402344,105.999013 183.402344,108.010742 Z M204.847656,116.052734 C202.699208,116.052734 200.951179,115.347175 199.603516,113.936035 C198.255853,112.524895 197.582031,110.637707 197.582031,108.274414 L197.582031,107.776367 C197.582031,106.204094 197.882321,104.800299 198.48291,103.564941 C199.083499,102.329584 199.923334,101.362796 201.002441,100.664551 C202.081548,99.9663051 203.25097,99.6171875 204.510742,99.6171875 C206.571299,99.6171875 208.172846,100.295892 209.31543,101.65332 C210.458014,103.010749 211.029297,104.954089 211.029297,107.483398 L211.029297,108.611328 L200.291992,108.611328 C200.331055,110.173836 200.787593,111.43603 201.661621,112.397949 C202.535649,113.359868 203.646478,113.84082 204.994141,113.84082 C205.951177,113.84082 206.761715,113.64551 207.425781,113.254883 C208.089847,112.864256 208.670896,112.346683 209.168945,111.702148 L210.824219,112.991211 C209.496087,115.032237 207.50392,116.052734 204.847656,116.052734 Z M204.510742,101.84375 C203.416987,101.84375 202.499027,102.241695 201.756836,103.037598 C201.014645,103.8335 200.555665,104.949212 200.379883,106.384766 L208.319336,106.384766 L208.319336,106.179688 C208.241211,104.802727 207.870121,103.735844 207.206055,102.979004 C206.541989,102.222164 205.64356,101.84375 204.510742,101.84375 Z M216.712891,99.9101562 L216.786133,101.667969 C217.948248,100.300774 219.515615,99.6171875 221.488281,99.6171875 C223.705089,99.6171875 225.213863,100.466788 226.014648,102.166016 C226.541995,101.404293 227.228023,100.789065 228.072754,100.320312 C228.917485,99.8515602 229.91601,99.6171875 231.068359,99.6171875 C234.544939,99.6171875 236.3125,101.457989 236.371094,105.139648 L236.371094,115.759766 L233.661133,115.759766 L233.661133,105.300781 C233.661133,104.167963 233.402346,103.320804 232.884766,102.759277 C232.367185,102.197751 231.498053,101.916992 230.277344,101.916992 C229.271479,101.916992 228.436527,102.217282 227.772461,102.817871 C227.108395,103.41846 226.722657,104.226557 226.615234,105.242188 L226.615234,115.759766 L223.890625,115.759766 L223.890625,105.374023 C223.890625,103.069324 222.762707,101.916992 220.506836,101.916992 C218.729483,101.916992 217.513675,102.673821 216.859375,104.1875 L216.859375,115.759766 L214.149414,115.759766 L214.149414,99.9101562 L216.712891,99.9101562 Z M263.998047,108.992188 C263.734374,111.248058 262.901862,112.988763 261.500488,114.214355 C260.099114,115.439948 258.23634,116.052734 255.912109,116.052734 C253.392566,116.052734 251.373543,115.149423 249.85498,113.342773 C248.336418,111.536124 247.577148,109.119156 247.577148,106.091797 L247.577148,104.041016 C247.577148,102.058584 247.931149,100.315437 248.63916,98.8115234 C249.347172,97.3076097 250.350579,96.1528361 251.649414,95.347168 C252.948249,94.5414999 254.45214,94.1386719 256.161133,94.1386719 C258.426769,94.1386719 260.243157,94.7709898 261.610352,96.0356445 C262.977546,97.3002993 263.773436,99.0507701 263.998047,101.287109 L261.170898,101.287109 C260.926757,99.5878821 260.396977,98.3574257 259.581543,97.5957031 C258.766109,96.8339806 257.625984,96.453125 256.161133,96.453125 C254.364249,96.453125 252.955572,97.1171809 251.935059,98.4453125 C250.914546,99.7734441 250.404297,101.663074 250.404297,104.114258 L250.404297,106.179688 C250.404297,108.494152 250.88769,110.334954 251.854492,111.702148 C252.821294,113.069343 254.173819,113.75293 255.912109,113.75293 C257.474617,113.75293 258.673336,113.398929 259.508301,112.690918 C260.343266,111.982907 260.89746,110.750009 261.170898,108.992188 L263.998047,108.992188 Z M270.121094,101.829102 C271.322272,100.354485 272.884756,99.6171875 274.808594,99.6171875 C278.15822,99.6171875 279.847656,101.506817 279.876953,105.286133 L279.876953,115.759766 L277.166992,115.759766 L277.166992,105.271484 C277.157227,104.128901 276.895999,103.284182 276.383301,102.737305 C275.870603,102.190427 275.072271,101.916992 273.988281,101.916992 C273.109371,101.916992 272.337894,102.151365 271.673828,102.620117 C271.009762,103.08887 270.492189,103.704098 270.121094,104.46582 L270.121094,115.759766 L267.411133,115.759766 L267.411133,93.2597656 L270.121094,93.2597656 L270.121094,101.829102 Z M293.719727,115.759766 C293.563476,115.447264 293.436524,114.890629 293.338867,114.089844 C292.079095,115.398444 290.575204,116.052734 288.827148,116.052734 C287.264641,116.052734 285.982915,115.610844 284.981934,114.727051 C283.980952,113.843257 283.480469,112.722663 283.480469,111.365234 C283.480469,109.714835 284.107904,108.43311 285.362793,107.52002 C286.617682,106.606929 288.382801,106.150391 290.658203,106.150391 L293.294922,106.150391 L293.294922,104.905273 C293.294922,103.958003 293.011722,103.203616 292.445312,102.64209 C291.878903,102.080564 291.043951,101.799805 289.94043,101.799805 C288.973628,101.799805 288.163089,102.043943 287.508789,102.532227 C286.854489,103.02051 286.527344,103.611325 286.527344,104.304688 L283.802734,104.304688 C283.802734,103.513668 284.083493,102.749515 284.64502,102.012207 C285.206546,101.274899 285.968257,100.691408 286.930176,100.261719 C287.892095,99.8320291 288.949213,99.6171875 290.101562,99.6171875 C291.927744,99.6171875 293.358393,100.073726 294.393555,100.986816 C295.428716,101.899907 295.96582,103.157219 296.004883,104.758789 L296.004883,112.053711 C296.004883,113.508796 296.190428,114.666011 296.561523,115.525391 L296.561523,115.759766 L293.719727,115.759766 Z M289.222656,113.694336 C290.07227,113.694336 290.877926,113.474612 291.639648,113.035156 C292.401371,112.595701 292.953123,112.024418 293.294922,111.321289 L293.294922,108.069336 L291.170898,108.069336 C287.850569,108.069336 286.19043,109.041006 286.19043,110.984375 C286.19043,111.833989 286.47363,112.498044 287.040039,112.976562 C287.606448,113.455081 288.33398,113.694336 289.222656,113.694336 Z M303.197266,115.759766 L300.487305,115.759766 L300.487305,93.2597656 L303.197266,93.2597656 L303.197266,115.759766 Z M310.477539,115.759766 L307.767578,115.759766 L307.767578,93.2597656 L310.477539,93.2597656 L310.477539,115.759766 Z M321.390625,116.052734 C319.242177,116.052734 317.494147,115.347175 316.146484,113.936035 C314.798821,112.524895 314.125,110.637707 314.125,108.274414 L314.125,107.776367 C314.125,106.204094 314.42529,104.800299 315.025879,103.564941 C315.626468,102.329584 316.466303,101.362796 317.54541,100.664551 C318.624517,99.9663051 319.793939,99.6171875 321.053711,99.6171875 C323.114268,99.6171875 324.715815,100.295892 325.858398,101.65332 C327.000982,103.010749 327.572266,104.954089 327.572266,107.483398 L327.572266,108.611328 L316.834961,108.611328 C316.874024,110.173836 317.330562,111.43603 318.20459,112.397949 C319.078618,113.359868 320.189446,113.84082 321.537109,113.84082 C322.494145,113.84082 323.304684,113.64551 323.96875,113.254883 C324.632816,112.864256 325.213865,112.346683 325.711914,111.702148 L327.367188,112.991211 C326.039056,115.032237 324.046888,116.052734 321.390625,116.052734 Z M321.053711,101.84375 C319.959955,101.84375 319.041996,102.241695 318.299805,103.037598 C317.557613,103.8335 317.098634,104.949212 316.922852,106.384766 L324.862305,106.384766 L324.862305,106.179688 C324.784179,104.802727 324.413089,103.735844 323.749023,102.979004 C323.084958,102.222164 322.186529,101.84375 321.053711,101.84375 Z M333.270508,99.9101562 L333.358398,101.902344 C334.569342,100.378899 336.151357,99.6171875 338.104492,99.6171875 C341.454118,99.6171875 343.143555,101.506817 343.172852,105.286133 L343.172852,115.759766 L340.462891,115.759766 L340.462891,105.271484 C340.453125,104.128901 340.191897,103.284182 339.679199,102.737305 C339.166501,102.190427 338.368169,101.916992 337.28418,101.916992 C336.405269,101.916992 335.633792,102.151365 334.969727,102.620117 C334.305661,103.08887 333.788088,103.704098 333.416992,104.46582 L333.416992,115.759766 L330.707031,115.759766 L330.707031,99.9101562 L333.270508,99.9101562 Z M346.615234,107.703125 C346.615234,105.23241 347.186518,103.267097 348.329102,101.807129 C349.471685,100.347161 350.985342,99.6171875 352.870117,99.6171875 C354.803721,99.6171875 356.312495,100.300774 357.396484,101.667969 L357.52832,99.9101562 L360.003906,99.9101562 L360.003906,115.378906 C360.003906,117.429698 359.396002,119.045893 358.180176,120.227539 C356.964349,121.409186 355.331065,122 353.280273,122 C352.13769,122 351.019537,121.755862 349.925781,121.267578 C348.832026,120.779294 347.997073,120.110356 347.420898,119.260742 L348.827148,117.634766 C349.989264,119.07032 351.410148,119.788086 353.089844,119.788086 C354.40821,119.788086 355.436031,119.416996 356.17334,118.674805 C356.910648,117.932613 357.279297,116.887702 357.279297,115.540039 L357.279297,114.177734 C356.195307,115.427741 354.71583,116.052734 352.84082,116.052734 C350.985342,116.052734 349.483892,115.305672 348.336426,113.811523 C347.188959,112.317375 346.615234,110.281263 346.615234,107.703125 Z M349.339844,108.010742 C349.339844,109.79786 349.706051,111.201655 350.438477,112.222168 C351.170902,113.242681 352.196282,113.75293 353.514648,113.75293 C355.223641,113.75293 356.478512,112.97657 357.279297,111.423828 L357.279297,104.1875 C356.449215,102.673821 355.20411,101.916992 353.543945,101.916992 C352.225579,101.916992 351.195316,102.429682 350.453125,103.455078 C349.710934,104.480474 349.339844,105.999013 349.339844,108.010742 Z M370.667969,116.052734 C368.519521,116.052734 366.771491,115.347175 365.423828,113.936035 C364.076165,112.524895 363.402344,110.637707 363.402344,108.274414 L363.402344,107.776367 C363.402344,106.204094 363.702634,104.800299 364.303223,103.564941 C364.903812,102.329584 365.743647,101.362796 366.822754,100.664551 C367.901861,99.9663051 369.071283,99.6171875 370.331055,99.6171875 C372.391612,99.6171875 373.993158,100.295892 375.135742,101.65332 C376.278326,103.010749 376.849609,104.954089 376.849609,107.483398 L376.849609,108.611328 L366.112305,108.611328 C366.151367,110.173836 366.607906,111.43603 367.481934,112.397949 C368.355961,113.359868 369.46679,113.84082 370.814453,113.84082 C371.771489,113.84082 372.582028,113.64551 373.246094,113.254883 C373.91016,112.864256 374.491208,112.346683 374.989258,111.702148 L376.644531,112.991211 C375.3164,115.032237 373.324232,116.052734 370.667969,116.052734 Z M370.331055,101.84375 C369.237299,101.84375 368.31934,102.241695 367.577148,103.037598 C366.834957,103.8335 366.375977,104.949212 366.200195,106.384766 L374.139648,106.384766 L374.139648,106.179688 C374.061523,104.802727 373.690433,103.735844 373.026367,102.979004 C372.362301,102.222164 371.463873,101.84375 370.331055,101.84375 Z" id="Holdem-Challenge-Copy-3" fill="#FFFFFF"></path>
            </g>
        </g>
    </g>
</svg>