<svg id="Layer_1" xmlns="http://www.w3.org/2000/svg" viewBox="0 0 366 94"><style>.st0{fill:#4A88C0;} .st1{fill:#223C4E;}</style><path class="st0" d="M37.8 22.2l.1.2c.1.1.1.2.2.3L51.3 46l13.2-23.3c.1-.1.1-.2.2-.4l.1-.1c1.1-2.1 1.7-4.4 1.7-6.9C66.4 6.8 59.7 0 51.3 0c-8.4 0-15.2 6.8-15.2 15.2 0 2.5.6 4.9 1.7 7zM51.3 8.5c3.8 0 6.8 3.1 6.8 6.8 0 3.8-3.1 6.8-6.8 6.8-3.8 0-6.8-3.1-6.8-6.8 0-3.7 3-6.8 6.8-6.8zM57 72.2V49.7H45.5v11L33.4 48.5 0 81.9 12.1 94l21.3-21.4L54.6 94l12.1-12.1z"/><g><path class="st1" d="M354.5 71.6c-.5 7.9-2.1 13.2-9.1 13.2-7.7 0-9.3-4.7-9.9-13.2v-22H324v21.2c0 16.3 8.1 23.1 21.3 23.1 12.7 0 20.6-7.3 20.6-23.1V49.7h-11.5v21.9zM179.9 48.5l-24.1 44.3h12.4l2.9-6.2h18.2l2.9 6.2h12.3c-7.5-14.6-15.7-30.1-24.1-44.3h-.5zM175 78.1l5.1-10.9 5.1 10.9H175zM112.5 84c-7.7 0-13-5.6-13-13 0-6.1 3.9-12.2 11.8-12.2 4.2 0 8.3 1.9 12 4.5l5.6-8c-4.6-4.2-11-6.3-17.1-6.3-13.1 0-23.9 9-23.9 22.5 0 13 9 22.7 23.2 22.7 6.6 0 13.8-2.4 18.5-6.8l-4.9-7.2c-3.4 2.1-7.8 3.8-12.2 3.8zM138.1 49.7h11.4v43.2h-11.4zM260.1 83.1h10.4v9.8h-10.4zM241.2 72.9l-29.1-24.3h-.8v44.2h10.3V70.6l29.1 23.1h.8v-44h-10.3zM314.8 64.7c0-11.5-11.4-15-21.3-15h-14.3v43.2h11.5V80.7c1.8-.1 3.7-.3 5.6-.6l7 12.7h12.4l-8.8-16c4.6-2.4 7.9-6.2 7.9-12.1zm-24.1-6.5h5.2c5.5 0 8.2 3 8.2 7 0 5.9-5.9 7.4-13.5 7.6V58.2z"/></g></svg>