<?xml version="1.0" encoding="utf-8"?>
<!-- Generator: Adobe Illustrator 22.1.0, SVG Export Plug-In . SVG Version: 6.00 Build 0)  -->
<svg version="1.1" id="Layer_1" xmlns="http://www.w3.org/2000/svg" xmlns:xlink="http://www.w3.org/1999/xlink" x="0px" y="0px"
	 viewBox="0 0 400 200" style="enable-background:new 0 0 400 200;" xml:space="preserve">
<style type="text/css">
	.st0{fill:#111111;}
</style>
<g>
	<path class="st0" d="M71.1,63.8c10.2,0,18.8,3.5,25.7,10.5c6.9,7,10.4,15.6,10.4,25.7c0,10.1-3.5,18.7-10.4,25.7
		c-6.9,7-15.5,10.5-25.7,10.5H45V63.8H71.1L71.1,63.8z M60.1,77.8v44.5h11c5.8,0,10.8-2.2,14.9-6.5c4.1-4.3,6.2-9.6,6.2-15.8
		c0-6.2-2-11.5-6-15.8c-4-4.3-9-6.5-15-6.5H60.1L60.1,77.8z"/>
	<path class="st0" d="M163.5,92.2c4.7,5.1,7,11.4,7,18.7c0,7.4-2.3,13.6-7,18.7c-4.7,5.1-10.2,7.7-16.5,7.7c-2.8,0-5.4-0.6-7.9-1.8
		s-4.2-2.4-5.2-3.6l-1.5-1.9v6.2h-13.6V63.8h13.6v28c0.1-0.2,0.3-0.5,0.6-0.8c0.3-0.3,0.8-0.9,1.7-1.7c0.9-0.8,1.9-1.6,2.9-2.2
		c1-0.7,2.4-1.2,4.1-1.8c1.7-0.5,3.4-0.8,5.2-0.8C153.3,84.5,158.9,87.1,163.5,92.2 M153,121c2.3-2.6,3.5-6,3.5-10.1
		c0-4.1-1.2-7.4-3.5-10c-2.3-2.6-5.2-3.9-8.5-3.9c-3.3,0-6.2,1.3-8.5,3.9c-2.3,2.6-3.5,6-3.5,10c0,4.1,1.2,7.4,3.5,10.1
		c2.3,2.6,5.2,3.9,8.5,3.9C147.8,124.9,150.6,123.6,153,121"/>
	<path class="st0" d="M210.2,99c-1-0.3-2.5-0.5-4.5-0.6c-3.6,0-6.4,1.2-8.5,3.5c-2.1,2.3-3.1,5.7-3.1,10v24.3h-13.5V85.5h13.5v6.2
		c0.4-0.5,0.9-1.1,1.7-1.8c0.7-0.8,2.3-1.8,4.7-3c2.4-1.2,5-1.9,7.7-1.9h2V99L210.2,99z"/>
	<path class="st0" d="M246.2,86.3c2.4,1.2,4.2,2.4,5.2,3.5l1.5,1.9v-6.1h13.5v50.6h-13.5v-6.2c-0.1,0.2-0.3,0.5-0.6,0.8
		c-0.3,0.3-0.9,0.9-1.8,1.7c-0.9,0.8-1.9,1.6-2.9,2.2c-1,0.7-2.4,1.2-4.1,1.7c-1.7,0.5-3.4,0.8-5.2,0.8c-6.4,0-11.9-2.6-16.6-7.7
		c-4.7-5.1-7-11.4-7-18.7c0-7.4,2.3-13.6,7-18.7c4.7-5.1,10.2-7.7,16.6-7.7C241.2,84.5,243.8,85.1,246.2,86.3 M249.4,121
		c2.4-2.6,3.5-6,3.5-10.1c0-4.1-1.2-7.4-3.5-10c-2.3-2.6-5.2-3.9-8.5-3.9c-3.3,0-6.2,1.3-8.5,3.9c-2.4,2.6-3.5,6-3.5,10
		c0,4.1,1.2,7.4,3.5,10.1c2.3,2.6,5.2,3.9,8.5,3.9C244.2,124.9,247,123.6,249.4,121"/>
	<path class="st0" d="M292.9,76.7c-1.4,1.4-3.4,2.1-5.9,2.1c-2.3,0-4.1-0.7-5.5-2.1c-1.4-1.4-2-3.3-2-5.6c0-2.3,0.7-4.2,2.1-5.6
		c1.4-1.4,3.2-2.1,5.4-2.1c2.5,0,4.4,0.7,5.9,2.1c1.4,1.4,2.2,3.3,2.2,5.6C295.1,73.4,294.4,75.3,292.9,76.7 M294.1,136.3h-13.6
		V85.5h13.6V136.3L294.1,136.3z"/>
	<path class="st0" d="M321.3,91.8c0.4-0.5,0.9-1.2,1.7-2c0.7-0.8,2.3-1.9,4.7-3.2s5-2,7.7-2c5.6,0,10.2,2,13.7,6
		c3.5,4,5.3,9.4,5.3,16.2v29.5h-13.5v-28c0-3.1-0.9-5.6-2.7-7.5c-1.8-1.9-4.1-2.9-6.9-2.9c-3.1,0-5.5,1-7.3,3.1
		c-1.8,2.1-2.7,5-2.7,8.8v26.4h-13.5V85.5h13.5V91.8L321.3,91.8z"/>
</g>
</svg>
