<?xml version="1.0" encoding="utf-8"?>
<!-- Generator: Adobe Illustrator 22.1.0, SVG Export Plug-In . SVG Version: 6.00 Build 0)  -->
<svg version="1.1" id="Layer_1" xmlns="http://www.w3.org/2000/svg" xmlns:xlink="http://www.w3.org/1999/xlink" x="0px" y="0px"
	 viewBox="0 0 300 200" style="enable-background:new 0 0 300 200;" xml:space="preserve">
<g>
	<g>
		<path d="M104.2,122h-9.5v-18.2H75.6V122H66V77.4h9.6v17.8h19.1V77.4h9.5V122z"/>
	</g>
	<g>
		<path d="M159.2,94.6c0.2-0.3,0.6-0.7,1.1-1.2c0.5-0.5,1.5-1.1,3-2c1.5-0.8,3.2-1.2,4.9-1.2c3.6,0,6.5,1.2,8.7,3.7
			c2.2,2.5,3.4,5.8,3.4,10V122h-8.6v-17.2c0-1.9-0.6-3.4-1.7-4.6c-1.1-1.2-2.6-1.8-4.4-1.8c-1.9,0-3.5,0.6-4.6,1.9
			c-1.2,1.3-1.7,3.1-1.7,5.4V122h-8.6V90.8h8.6V94.6z"/>
	</g>
	<g>
		<path d="M205.3,91.3c1.5,0.7,2.6,1.5,3.3,2.2l1,1.2V77.4h8.6V122h-8.6v-3.8c-0.1,0.1-0.2,0.3-0.4,0.5c-0.2,0.2-0.5,0.5-1.1,1.1
			c-0.6,0.5-1.2,1-1.8,1.4c-0.7,0.4-1.5,0.8-2.6,1.1c-1.1,0.3-2.2,0.5-3.3,0.5c-4,0-7.5-1.6-10.5-4.7c-3-3.1-4.5-7-4.5-11.5
			c0-4.5,1.5-8.4,4.5-11.5c3-3.1,6.5-4.7,10.5-4.7C202.1,90.1,203.7,90.5,205.3,91.3z M207.3,112.6c1.5-1.6,2.2-3.7,2.2-6.2
			c0-2.5-0.7-4.6-2.2-6.2c-1.5-1.6-3.3-2.4-5.4-2.4c-2.1,0-3.9,0.8-5.4,2.4c-1.5,1.6-2.2,3.7-2.2,6.2c0,2.5,0.7,4.6,2.2,6.2
			c1.5,1.6,3.3,2.4,5.4,2.4C204,115,205.8,114.2,207.3,112.6z"/>
	</g>
	<g>
		<path d="M234,122h-8.6V77.4h8.6V122z"/>
	</g>
	<g>
		<path d="M134.8,90.8v3.8l-1-1.2c-0.6-0.7-1.7-1.4-3.3-2.2c-1.5-0.7-3.2-1.1-5-1.1c-4,0-7.5,1.6-10.5,4.7c-3,3.1-4.5,7-4.5,11.5
			c0,4.5,1.5,8.4,4.5,11.5c3,3.1,6.5,4.7,10.5,4.7c1.1,0,2.2-0.2,3.3-0.5c1.1-0.3,1.9-0.7,2.6-1.1c0.7-0.4,1.3-0.9,1.8-1.4
			c0.6-0.5,0.9-0.9,1.1-1.1c0.2-0.2,0.3-0.4,0.4-0.5v3.8h8.6V90.8H134.8z M132.5,112.6c-1.5,1.6-3.3,2.4-5.4,2.4
			c-2.1,0-3.9-0.8-5.4-2.4c-1.5-1.6-2.2-3.7-2.2-6.2c0-2.5,0.7-4.6,2.2-6.2c1.5-1.6,3.3-2.4,5.4-2.4c2.1,0,3.9,0.8,5.4,2.4
			s2.2,3.7,2.2,6.2C134.8,108.9,134,110.9,132.5,112.6z"/>
	</g>
</g>
</svg>
