<?xml version="1.0" encoding="utf-8"?>
<!-- Generator: Adobe Illustrator 22.1.0, SVG Export Plug-In . SVG Version: 6.00 Build 0)  -->
<svg version="1.1" id="Слой_1" xmlns="http://www.w3.org/2000/svg" xmlns:xlink="http://www.w3.org/1999/xlink" x="0px" y="0px"
	 viewBox="0 0 600 600" style="enable-background:new 0 0 600 600;" xml:space="preserve">
<path d="M140.1,268.5h53.3V77h-53.3V268.5z"/>
<path d="M276.9,268.5h53.1v-145h57.4V77h-168v46.5h57.4V268.5z"/>
<path d="M408.4,216h56.1v-16.4h-56.1V216z"/>
<path d="M172.9,378.8h17.8l2-30.5h-6.9v-45h-20.9v45h-16.3v-45h-20.9v62.7h45.3V378.8z"/>
<path d="M231.8,367.6c11.9,0,20.2-5.1,25.9-12.8l-11.6-10.1c-4.3,4.4-8.3,6.4-13.2,6.4c-6.5,0-11.2-3.5-12.9-10.3h39.9
	c0.1-1.5,0.1-3.1,0.1-4.5c0-18.4-9.5-34.3-30.1-34.3c-17.6,0-30.1,14.5-30.1,32.8C199.8,354.5,213.1,367.6,231.8,367.6z
	 M219.7,329.6c1.1-6.8,4.8-11.4,10.4-11.4c5.7,0,9.6,4.4,10.4,11.4H219.7z"/>
<path d="M272.8,366.1h20.9v-22.7h17.2v22.7h20.9v-62.7h-20.9v22.3h-17.2v-22.3h-20.9V366.1z"/>
<path d="M359.9,366.1h20.9v-45h17.4v-17.7h-55.7v17.7h17.4V366.1z"/>
<path d="M408.9,384.6h20.9v-26.2c3.9,4.8,9.1,9,18.2,9c14.1,0,26.3-12.4,26.3-32.8c0-20.3-12.2-32.7-26.4-32.7
	c-8.9,0-14,4.5-18.1,9.7v-8.3h-20.9V384.6z M441.5,349c-6.7,0-12.1-5.9-12.1-14.3c0-8.5,5.4-14.4,12.1-14.4
	c6.8,0,12.2,5.9,12.2,14.1C453.7,343.2,448.3,349,441.5,349z"/>
<path d="M130.7,527h26.6v-58.9l24.9,40h0.6l25-40.3V527h27V424h-28.7l-23.4,39.9L159.4,424h-28.7V527z"/>
<path d="M252.1,527h28.5l7-18.4h37.8l7.1,18.4h29.1l-41.7-103.8h-26.2L252.1,527z M295.6,486.4l11-29.3l10.9,29.3H295.6z"/>
<path d="M379,527h25.3l37.9-58v58H469V424h-25.3l-37.9,58v-58H379V527z"/>
</svg>
