<?xml version="1.0" encoding="utf-8"?>
<!-- Generator: Adobe Illustrator 22.1.0, SVG Export Plug-In . SVG Version: 6.00 Build 0)  -->
<svg version="1.1" id="Layer_1" xmlns="http://www.w3.org/2000/svg" xmlns:xlink="http://www.w3.org/1999/xlink" x="0px" y="0px"
	 viewBox="0 0 793.7 340.2" style="enable-background:new 0 0 793.7 340.2;" xml:space="preserve">
<style type="text/css">
	.st0{fill:#0072BC;}
</style>
<g>
	<polygon class="st0" points="229.6,130.2 276.7,130.2 278.3,175.7 278.8,175.7 298.4,130.2 345.4,130.2 328.6,213.3 300.1,213.3 
		313.4,148 312.7,148 283,213.3 256.5,213.3 253.9,148 253.1,148 239.8,213.3 212.8,213.3 229.6,130.2 229.6,130.2 	"/>
	<path class="st0" d="M410.7,182.4h1.9c8.9,0,13.9-9.7,13.9-17c0-5.3-3.1-9.4-8.7-9.4H416L410.7,182.4L410.7,182.4L410.7,182.4z
		 M387,156.1h-1.8c-8.4,0-14.1,8.9-14.1,16.7c0,4.9,3,9.6,8.7,9.6h1.9L387,156.1L387,156.1L387,156.1z M373.8,214.7l2.6-13.3h-5.7
		c-21.8,0-29.8-12.3-29.8-24.7c0-18.3,14.7-39.6,43.7-39.6h5l2.5-12.5h31.8l-2.5,12.5h5c11.6,0,30.4,2.7,30.4,24.8
		c0,19.3-13.9,39.5-42.2,39.5h-6.3l-2.6,13.3H373.8L373.8,214.7L373.8,214.7z"/>
	<polygon class="st0" points="551.4,130.2 546.4,154.8 518.4,154.8 506.6,213.3 474.8,213.3 486.6,154.8 458.6,154.8 463.6,130.2 
		551.4,130.2 551.4,130.2 	"/>
	<polygon class="st0" points="590.3,130.2 580.7,177.7 581.2,177.7 611.8,130.2 649,130.2 632.1,213.3 600.3,213.3 609.8,166.8 
		609.3,166.8 578.8,213.3 541.7,213.3 558.5,130.2 590.3,130.2 590.3,130.2 	"/>
	<polygon class="st0" points="673.7,244.6 678.2,221.1 722.7,234.4 673.7,244.6 673.7,244.6 	"/>
	<path class="st0" d="M663.1,226.4H203.4c-8.5,0-12.2,9.4-15.8,18.5c-1.2,3.2-3.2,8.2-4.7,10.2c-2.7-2.7-4.7-15.6-5.5-20.7l-0.4-2.8
		c-2.7-17.5-5.2-36-7.6-53.8C159,99.8,154,72.4,139.5,72.2c-18.2-0.3-24.7,31.9-43.9,127.5l-2.5,12.5c-2.8,14.2-9.3,14.2-12.1,14.2
		h-8.6l-2.1,12.3h10.8c7.2,0,20-3.1,24.2-24.1l2.5-12.5c11.8-59,23-114.6,30.9-117.4c6.9,7.3,13.6,57.6,18.5,94.7
		c2.4,17.9,4.9,36.4,7.6,54.1l0.4,2.8c2.1,14.1,4.8,31.7,18.1,31.7c8.5,0,12.2-9.4,15.8-18.5c1.4-3.5,3.6-9.1,5.1-10.7H661
		L663.1,226.4L663.1,226.4L663.1,226.4z"/>
</g>
</svg>
