<?xml version="1.0" encoding="utf-8"?>
<!-- Generator: Adobe Illustrator 17.0.0, SVG Export Plug-In . SVG Version: 6.00 Build 0)  -->
<!DOCTYPE svg PUBLIC "-//W3C//DTD SVG 1.1//EN" "http://www.w3.org/Graphics/SVG/1.1/DTD/svg11.dtd">
<svg version="1.1" id="Слой_1" xmlns="http://www.w3.org/2000/svg" xmlns:xlink="http://www.w3.org/1999/xlink" x="0px" y="0px"
	 width="117.257px" height="34px" viewBox="0 0 117.257 34" enable-background="new 0 0 117.257 34" xml:space="preserve">
<g>
	<path fill="#AE485C" d="M37.029,2.178c-0.44,0.919-0.815,1.729-1.213,2.529c-1.829,3.672-3.643,7.352-5.511,11.004
		c-0.459,0.897-0.473,1.648-0.009,2.558c2.111,4.138,4.161,8.308,6.23,12.467c0.158,0.318,0.293,0.648,0.491,1.086
		c-10.615,0-21.12,0-31.707,0c0-9.855,0-19.717,0-29.644C15.85,2.178,26.365,2.178,37.029,2.178z M31.794,5.406
		c-7.876,0-15.536,0-23.262,0c0,7.75,0,15.434,0,23.143c7.751,0,15.429,0,23.219,0c-0.224-0.489-0.392-0.882-0.581-1.264
		c-1.497-3.027-2.972-6.065-4.514-9.069c-0.447-0.87-0.444-1.604,0.006-2.458c0.965-1.831,1.859-3.699,2.777-5.555
		C30.206,8.65,30.965,7.095,31.794,5.406z"/>
	<g>
		<path fill="#AE485C" d="M20.537,24.816l-3.722-5.106h-0.726v5.106h-4.107V8.749h6.422c1.77,0,3.196,0.431,4.278,1.293
			c1.082,0.862,1.646,2.194,1.691,3.994c0,2.845-1.052,4.599-3.155,5.265l4.38,5.515C25.598,24.816,20.537,24.816,20.537,24.816z
			 M16.088,16.215h2.383c0.802,0,1.369-0.306,1.702-0.919s0.333-1.226,0-1.838c-0.333-0.613-0.9-0.919-1.702-0.919h-2.383V16.215z"
			/>
	</g>
	<g>
		<path d="M50.156,22.959l-2.715-3.725h-0.53v3.725h-2.996V11.24H48.6c1.291,0,2.331,0.314,3.12,0.943s1.2,1.6,1.233,2.913
			c0,2.075-0.767,3.355-2.301,3.84l3.195,4.022h-3.691V22.959z M46.911,16.685h1.738c0.585,0,0.999-0.224,1.241-0.67
			c0.243-0.447,0.243-0.894,0-1.341s-0.656-0.67-1.241-0.67h-1.738V16.685z"/>
		<path d="M57.273,11.24v7.796c0,0.354,0.116,0.653,0.348,0.902c0.231,0.248,0.51,0.399,0.836,0.455
			c0.325,0.055,0.654,0.055,0.985,0c0.331-0.056,0.612-0.207,0.844-0.455c0.231-0.249,0.348-0.549,0.348-0.902V11.24h2.995v7.796
			c0,0.596-0.107,1.14-0.322,1.63c-0.215,0.491-0.504,0.897-0.869,1.217c-0.364,0.32-0.781,0.594-1.25,0.819
			c-0.469,0.227-0.96,0.361-1.473,0.406c-0.513,0.044-1.029,0.044-1.548,0c-0.519-0.045-1.012-0.18-1.481-0.406
			c-0.469-0.226-0.883-0.499-1.241-0.819c-0.359-0.319-0.643-0.726-0.853-1.217c-0.21-0.49-0.314-1.034-0.314-1.63V11.24H57.273z"/>
		<path d="M64.64,21.006l1.87-1.755c0.221,0.276,0.499,0.508,0.836,0.695s0.671,0.31,1.002,0.364
			c0.331,0.056,0.646,0.069,0.943,0.041c0.298-0.027,0.546-0.118,0.745-0.272c0.198-0.154,0.303-0.354,0.314-0.597
			c0.011-0.309-0.183-0.562-0.58-0.761c-0.396-0.199-0.871-0.337-1.423-0.414c-1.026-0.166-1.885-0.565-2.574-1.2
			c-0.689-0.634-1.034-1.476-1.034-2.524c0-1.092,0.416-1.95,1.249-2.574s1.829-0.935,2.988-0.935c1.644,0,2.979,0.624,4.006,1.87
			l-1.937,1.49c-0.397-0.419-0.861-0.703-1.391-0.853c-0.53-0.149-0.991-0.138-1.383,0.033c-0.392,0.171-0.593,0.478-0.604,0.919
			c0.033,0.507,0.552,0.872,1.556,1.092c0.475,0.088,0.889,0.182,1.241,0.281c0.354,0.1,0.723,0.251,1.109,0.456
			c0.386,0.204,0.698,0.441,0.936,0.711c0.237,0.271,0.428,0.624,0.571,1.06c0.143,0.436,0.203,0.93,0.182,1.481
			c-0.033,0.718-0.29,1.352-0.77,1.903c-0.48,0.553-1.06,0.958-1.738,1.217c-0.679,0.26-1.388,0.39-2.127,0.39
			c-0.718,0-1.43-0.183-2.136-0.547S65.169,21.69,64.64,21.006z"/>
		<path d="M82.864,14.815c-0.012,0.32-0.119,0.668-0.323,1.043s-0.499,0.662-0.886,0.861c0.718,0.364,1.197,0.85,1.44,1.457
			c0.242,0.607,0.314,1.192,0.215,1.754c-0.32,2.02-1.71,3.029-4.171,3.029h-4.784V11.24h4.701c1.147,0,2.077,0.323,2.789,0.968
			S82.897,13.722,82.864,14.815z M77.335,15.824h1.722c0.452,0,0.775-0.174,0.969-0.521c0.192-0.348,0.195-0.695,0.008-1.043
			s-0.513-0.521-0.977-0.521h-1.722C77.335,13.739,77.335,15.824,77.335,15.824z M77.335,20.36h1.722
			c0.562,0,0.957-0.201,1.184-0.604c0.226-0.402,0.224-0.803-0.008-1.2C80,18.158,79.608,17.96,79.057,17.96h-1.722V20.36z"/>
		<path d="M90.031,11.24l4.188,11.719h-3.178l-0.762-2.351h-3.128l-0.729,2.351h-3.179l4.089-11.719H90.031z M87.813,17.976h1.754
			l-0.811-3.426h-0.083L87.813,17.976z"/>
		<path d="M94.07,21.006l1.87-1.755c0.221,0.276,0.499,0.508,0.836,0.695s0.671,0.31,1.002,0.364
			c0.331,0.056,0.646,0.069,0.943,0.041c0.298-0.027,0.546-0.118,0.745-0.272c0.198-0.154,0.303-0.354,0.314-0.597
			c0.011-0.309-0.183-0.562-0.58-0.761c-0.396-0.199-0.871-0.337-1.423-0.414c-1.026-0.166-1.885-0.565-2.574-1.2
			c-0.689-0.634-1.034-1.476-1.034-2.524c0-1.092,0.416-1.95,1.249-2.574s1.829-0.935,2.988-0.935c1.644,0,2.979,0.624,4.006,1.87
			l-1.937,1.49c-0.397-0.419-0.861-0.703-1.391-0.853c-0.53-0.149-0.991-0.138-1.383,0.033c-0.392,0.171-0.593,0.478-0.604,0.919
			c0.033,0.507,0.552,0.872,1.556,1.092c0.475,0.088,0.889,0.182,1.241,0.281c0.354,0.1,0.723,0.251,1.109,0.456
			c0.386,0.204,0.698,0.441,0.936,0.711c0.237,0.271,0.428,0.624,0.571,1.06c0.143,0.436,0.203,0.93,0.182,1.481
			c-0.033,0.718-0.29,1.352-0.77,1.903c-0.48,0.553-1.06,0.958-1.738,1.217c-0.679,0.26-1.388,0.39-2.127,0.39
			c-0.718,0-1.43-0.183-2.136-0.547S94.6,21.69,94.07,21.006z"/>
		<path d="M106.783,14.02v1.821h4.751v2.566h-4.751v1.754h5.165v2.798h-8.161V11.24h8.161v2.781L106.783,14.02L106.783,14.02z"/>
	</g>
</g>
</svg>
