<?xml version="1.0" encoding="utf-8"?>
<!-- Generator: Adobe Illustrator 22.1.0, SVG Export Plug-In . SVG Version: 6.00 Build 0)  -->
<svg version="1.1" xmlns="http://www.w3.org/2000/svg" xmlns:xlink="http://www.w3.org/1999/xlink" x="0px" y="0px"
	 viewBox="0 0 512 512" style="enable-background:new 0 0 512 512;" xml:space="preserve">
<style type="text/css">
	.st0{display:none;}
	.st1{display:inline;fill:#FFE17F;}
</style>
<g id="background" class="st0">
	<rect x="0" y="0" class="st1" width="512" height="512"/>
</g>
<g id="logo">
	<g id="logo_1_">
		<g id="camapa">
			<path id="P" class="st0" d="M320.1,419.1v-8.7c0-4.3-2-5.7-6.9-4.9l-9.2,1.5v21.2l8.7-1.5C317.4,426,320.1,423.2,320.1,419.1
				 M354.7,394.6c-5.7-4.8-14.5-11.8-18.5-13c-0.1,0-0.1,0-0.2,0c6.8,2.4,7.9,8.3,7.9,16.9v24.9c0,15.6-7.3,22.7-28.8,26.3
				l-11.2,1.9v58l-24.4,4.1l22.6,16.8l24.4-4.1v-58l11.2-1.9c7.1-1.2,12.7-2.8,17-4.9v-41.8V394.6z"/>
			<path id="C" class="st0" d="M-29,568.3c-14.5,2.4-24.2-0.6-29-8.9c3.5,6.3,9.4,10.4,17.1,15.4c13,8.3,17.7,13.2,34.7,10.5
				c15.9-2.6,27.4-10.1,30.4-19.2c1.1-3.2,2-5.9,2.6-9.4l-12.2,2V523l-10-7.4v13.1c0.2,10.5-1.3,14.5-3.2,20.4
				C-1.7,558.2-13.1,565.6-29,568.3 M4.3,464.7l-0.2,8.4l-24.7,4.1v-7.2c0-8.8-1.3-10.3-7.3-9.7c-5.9,0.6-8.9,4.5-8.9,12.2v61.9
				c0,7.9,2.9,11.2,8.6,10.2c5.9-1,8-5.5,8-17.3c0-2.1,0-3.4-0.4-7.6l6.5-1.1v-29.2c0-2.7,0.4-4.9,1.1-6.7l15.1,11.3l12.4-2.1v-28.5
				c0-4.4,0.2-7.9,0.6-10.8c-3.6-3-12.1-10.3-19.1-13.9C1.9,442.5,4.3,450.2,4.3,464.7"/>
		</g>
		<path id="science_slam_1_" d="M143,317.6l17.6-3.1v-30.7c-1.3-1.7-2.7-3.1-4.4-4.2c-0.8-0.5-15.4-11.3-21.3-15.4
			c4.8,3.6,7.9,10.1,7.9,21.1v12.1l-22.2,3.9c-0.2-4.2,1.8-19-8.1-16.9c-5.5,1.1-7.9,4.7-7.7,12.4c0.2,8.9,5.1,11.6,15.3,17.9
			c2.8,1.7,5.8,3.5,8.8,5.4c-1.1-1.9-1.7-4.2-1.7-7.1c0-2.1,0.4-5.4,0.4-5.4L143,317.6z M119.8,360.4L104.1,349v8.8
			c0,7.2,2.8,10.4,8.3,9.4C116.3,366.6,118.7,364.4,119.8,360.4 M73.1,188.1v-32.2c0-1.5,0.1-3,0.2-4.4c-3.2-2.3-12.5-9.2-18.2-13.2
			c3.8,3.8,6.1,10,6.1,19.6v12.1l-22.2,3.9c-0.2-4.2,1.8-19-8.1-16.9c-5.5,1.1-7.9,4.7-7.7,12.4c0.2,8.9,5.1,11.6,15.3,17.9
			c2.6,1.6,5.5,3.3,8.2,5.1c-0.9-1.8-1.4-4-1.5-6.7c-0.1-2.6,0.7-6.4,0.7-6.4l15.1,10.9L73.1,188.1z M38.2,233.1l-15.7-11.4v8.5
			c0,7.2,2.8,10.4,8.3,9.4C34.7,239,37.1,237,38.2,233.1 M154.8,140.4c-0.3-0.3-0.6-0.7-0.9-1c-0.7-0.6-22.1-16.4-22.9-16.8
			c-0.1,0-0.1,0-0.2,0c5,3.8,7,11.2,7,24.6l-0.2,8.3l-24.3,4.3v-7c0-8.6-1.2-10.2-7.2-9.5c-5.8,0.7-8.8,4.5-8.8,12.1v60.9
			c0,7.7,2.8,10.9,8.4,9.9c5.8-1,7.9-5.4,7.9-17c0-2.1,0-3.3-0.4-7.5l6.3-1.1v-34.4l16,9.9l19.1-3.4V140.4z M249.8,96.7v22.9
			l-26,4.6v22.9l22.4-3.9v-2.7l24.4-4.3v-11.9c0-5,0.2-8.7,0.7-11.9L249.8,96.7z M246.1,186.5l24.4-4.3v-24.7l-20.7-15.1v23.2
			l-26,4.6V203l22.4-3.9V186.5z M390.1,160.5c0-2.1,0-3.3-0.3-7.5l6.3-1.1v-28.9l0-7.2l16,11.6l14.9-2.6V87.9
			c-5-4.2-14.8-12.2-20.9-14.8c5.9,3.5,8.2,11,8.2,25.4l-0.2,8.3l-24.3,4.3v-7c0-8.6-1.2-10.2-7.2-9.5c-5.8,0.7-8.8,4.5-8.8,12.1
			v60.8c0,7.7,2.8,10.9,8.4,9.9C388,176.5,390.1,172.1,390.1,160.5 M473.4,100.2l26-4.6V72.7l-22.4-16.2v22.9l-26,4.6v22.9l22.4-3.9
			V100.2z M473.4,146.3l26-4.6v-23.2l-22.4-16.2v23.2l-26,4.6v32.7l22.4-3.9V146.3z M499.4,197.3v-22.9l-22.4-16.2V181l-50.1,8.8
			v-29.1l-12.4-12.2v12.8c0.2,10.3-1.2,14.3-3.2,20.1c-3,9-14.3,16.4-29.9,19.2c-10.6,1.9-18.5,0.8-23.9-3.2
			c4.2,7.2,13.9,13,21.5,16.5c9.4-0.7,17.1,1.8,21.1,6.9c3.7,4.8,4.9,10.4,4.9,21.8v94.2l-24.4,4.3v-91v-2.3c0-7.9-2.5-10.8-8.3-9.8
			c-5.1,0.9-7.4,4.6-7.4,11.9v94l-23.9,4.2l-0.7-90.9V255c0-7.9-2.5-10.8-8.3-9.8c-5.1,0.9-7.4,4.6-7.4,11.9v94l-23.9,4.2v-94
			c0-0.9,0-1.7,0-2.5c0,0-0.1-0.1-0.1-0.1c-0.7-0.9-1.5-1.6-2.3-2.4c-0.8-0.7-21.3-15.6-23.4-16.9c1.3,0.9,2.5,1.9,3.4,3.1
			c3.7,4.8,4.9,10.4,4.9,21.8v94.2l-24.4,4.3v-32.8l-15.7,2.8v32.8l-23.9,4.2v-10.1l-11.9-9.4v-83.4l-19.7-14.3l13.7-2.4v-18.6
			l20.6,15l9.1-1.6c5.4-4.1,12.7-7.2,21.2-8.7c7.7-1.3,14.4-0.8,19.5,1.5l0.3-0.1v-16l20.7,15.1l16.1-2.8c2.1-2.3,4.8-4.4,7.9-6.2
			l0-9.3l7.9,5.7c2.8-1,5.9-1.8,9.1-2.3c7.5-1.3,14.3-0.8,19.4,1.4c1.2-0.9,2.4-1.7,3.7-2.4v-23.7c-5-4.1-7.5-10.9-7.5-20.5v-69.3
			c0-0.7,0-1.3,0.1-2c-5.1-4-16.6-12.4-21.4-15.7c0.5,0.5,1.1,1,1.5,1.6c3.7,4.8,4.9,10.4,4.9,21.8v96.3l-24.4,4.3v-93.1V118
			c0-7.9-2.5-10.8-8.3-9.8c-5.1,0.9-7.4,4.6-7.4,11.9v96.1l-23.9,4.2v-6.9l-20.7-15.1v22.9l-50.1,8.8V124.2l-20.6-15v124.5
			l-24.3,4.3v-28.6l-16.6-12.1c0,0.6,0,1.5,0,2.6v10.3c0.2,8.9-0.9,13.1-2.4,17.7c-0.2,0.7-0.4,1.4-0.7,2c0,0.1-0.1,0.2-0.1,0.3
			c-3,9-14.2,16.4-29.9,19.2c-21.3,3.8-32-4.4-32-24.3v-13.6c-4-2.9-8.4-5.5-12.5-8c-0.7-0.4-1.3-0.8-2-1.2c2.1,2.8,3.5,5.9,3.7,9.4
			v14.4c0,20.1-9,32-32.5,36.9c-8.1,1.7-15.6,0.5-20.6-2.5c2.2,2.4,20.1,15.1,21.9,16.2c5,3.1,12.6,4.3,20.8,2.6
			c21.2-4.4,30.5-14.4,32.2-31c5.7,4.1,18.1,13.1,20.9,14.9c2.5-0.9,5.3-1.6,8.3-2.1c8.2-1.4,15.9-1.1,21.3,2.8
			c11.9-3.5,20.3-10,22.8-17.5c0.6-1.9,1.2-3.6,1.7-5.4l15.5,11.2l10.5-1.9v101.1l18.3-3.2v23.4l-42.7,7.5v-35.4
			c-4.8-5-12-9-18.1-12.8c-0.9-0.6-1.8-1.1-2.7-1.7c2.4,2.9,3.9,6.2,4.1,9.9v14.4c0,20.1-9,32-32.5,36.9c-9,1.9-17.3,0.3-22.2-3.6
			c0.1,0.1,0.1,0.3,0.2,0.4c1.1,1.7,21.7,15.6,23.6,16.8c5,3.1,12.6,4.3,20.8,2.6c18.3-3.8,27.7-11.8,31.1-24.5l18.2,13.2l42.7-7.5
			v-13.7l15.9,11.6l23.9-4.2l-0.4-14.2l16.1,11.5l24.5-4.3l0-16l17.5,13l23.9-4.2l-0.1-15.1l16.5,12.2l23.9-4.2l0-14.2l15.6,11.4
			l24.4-4.3v-94.2c0-11.4-1.2-17-4.9-21.8c-1.3-1.6-2.9-3-4.8-4c-3.7-2-12-10.8-19.5-15.4c1.8-0.1,3.7-0.4,5.6-0.7
			c15.7-2.8,26.9-10.2,29.9-19.2l0.8-2.4l14.8,10.7L499.4,197.3z M243.2,309.2l15.7-2.8v-34.8v-2.3c0-7.9-2.5-10.8-8.3-9.8
			c-5.1,0.9-7.4,4.6-7.4,11.9V309.2z"/>
	</g>
</g>
</svg>
