<?xml version="1.0" encoding="utf-8"?>
<!-- Generator: Adobe Illustrator 22.1.0, SVG Export Plug-In . SVG Version: 6.00 Build 0)  -->
<svg version="1.1" id="Layer_1" xmlns="http://www.w3.org/2000/svg" xmlns:xlink="http://www.w3.org/1999/xlink" x="0px" y="0px"
	 viewBox="0 0 238.5 135" style="enable-background:new 0 0 238.5 135;" xml:space="preserve">
<style type="text/css">
	.st0{fill:#FFFFFF;}
	.st1{fill:#0079C1;}
</style>
<rect x="-17.5" class="st0" width="273" height="151.5"/>
<path class="st1" d="M184.4,79c-0.8,0-1.5-0.6-1.5-1.4c0,0,0,0,0-0.1V54.8v-0.1l0-0.1c0.1-0.7,0.7-1.2,1.4-1.2
	c0.7,0,1.4,0.5,1.4,1.2l0,0.1c0,0,0,0.1,0,0.1v22.9c0,0,0,0,0,0.1C185.8,78.4,185.2,79,184.4,79 M187.1,49.1h-5.4
	c-4.6,0-4.9,3.7-4.9,6.1v21.9c0,2.4,0.3,6.1,4.9,6.1h5.4c4.6,0,4.9-3.7,4.9-6.1V55.2C192,52.8,191.7,49.1,187.1,49.1"/>
<polygon class="st1" points="84.9,49.1 97.4,49.1 97.4,53.4 91.4,53.4 91.4,83.3 84.9,83.3 "/>
<path class="st1" d="M98.4,83.3h6.4l0.6-9.1h3.1l0.6,9.1h6.4l-3.4-34.1h-10.3L98.4,83.3z M105.6,70.4l1.1-17.1h0.4l1.1,17.1H105.6z"
	/>
<path class="st1" d="M124.9,71.3v6.4c0,0.9,0.7,1.1,1,1.1c0.6,0,1-0.5,1-1.1v-7.9c0-1.1-0.2-2.2-2.6-2.2h-2.7v-3.8h2.8
	c1.9,0,2.5-0.4,2.5-2.5v-6.8c0-0.6-0.4-1.1-1-1.1c-0.4,0-1,0.2-1,1.1v5.6h-6.6v-4.8c0-2.4,0.3-6.1,4.9-6.1h5.4
	c4.6,0,4.9,3.7,4.9,6.1v5.5c0,3.7-2.5,4.7-4.5,4.6v0.3c4.4-0.1,4.5,3.4,4.5,4.6v6.9c0,2.4-0.3,6.1-4.9,6.1h-5.4
	c-4.6,0-4.9-3.7-4.9-6.1v-5.9H124.9z"/>
<polygon class="st1" points="137.8,49.1 153,49.1 153,83.3 146.9,83.3 146.9,53.4 143.9,53.4 143.9,83.3 137.8,83.3 "/>
<path class="st1" d="M157.8,83.3h6.6V71.7h3.7c4.6,0,5.3-3.7,5.3-6.1V55.2c0-2.4-0.7-6.1-5.3-6.1h-10.3V83.3z M164.3,67.9V53.4h1.7
	c0.7,0,1.2,0.6,1.2,1.7v11.1c0,1.1-0.5,1.7-1.2,1.7H164.3z"/>
<polygon class="st1" points="212.9,49.1 221.4,49.1 221.4,83.3 214.9,83.3 214.9,61.9 214.6,61.9 211.2,83.3 206,83.3 202.6,61.9 
	202.4,61.9 202.4,83.3 195.8,83.3 195.8,49.1 204.4,49.1 208.6,73.1 "/>
<path class="st1" d="M70.9,52.6c-0.1,3.5-0.5,7.1-1,9.3c0.2-3.8-0.3-9.1-1.1-13.2c-0.9-4.1-3.3-11.1-5.3-14.3c-1.8,3-4,9-5.2,14.2
	c-1.2,5.2-1.2,11.5-1.2,13.4c-0.3-1.6-1.1-7.3-0.9-13c0.2-4.7,1.3-9.5,1.9-11.7c2.3-7.4,4.9-12.2,5.4-12.9C64,25.2,67.3,31,69,37.1
	C70.6,43.3,71,49.1,70.9,52.6 M63.5,79.1c-1-1.9-2.6-5.6-2.8-11.2c0-5.5,2.1-10.1,2.8-11.1c0.6,1,2.5,5,2.7,10.6
	C66.4,72.8,64.6,77.1,63.5,79.1 M71.5,37.2c-2.1-9.1-7.3-16.4-8-17.7c-1.1,1.7-5.3,8.2-7.4,15.4c-2.3,8.1-2.6,15.2-1.8,22.2
	c0.8,7,3.8,14.3,3.8,14.3c1.6,3.8,4,7.9,5.5,9.9c2.3-2.9,7.5-11.7,9.1-23.1C73.5,51.9,73.6,46.3,71.5,37.2"/>
<path class="st1" d="M50.8,83.3V94c0,0,0,0,0,0c3.7-3.7,9.8-3.7,13.6,0c3.8,3.7,3.8,9.8,0,13.5c0,0,0,0-0.1,0c0,0,0,0,0,0
	c0,0,0,0-0.1,0.1c-3.7,3.7-8.6,5.6-13.5,5.6c-4.9,0-9.8-1.9-13.6-5.6c-6.6-6.6-7.4-16.8-2.4-24.2c0.7-1,1.5-2,2.4-2.8
	c3.8-3.7,8.7-5.6,13.6-5.6V49.3c-18.9,0-34.2,15.2-34.2,34c0,18.8,15.3,34,34.2,34c9.8,0,18.7-4.2,24.9-10.8V83.3H50.8z"/>
<path class="st1" d="M215.3,109.3c0,3.2-1.5,3.8-5.2,3.8h-3.5V98.3h3.5v5.7h0.6c3.4,0,4.7,0.8,4.7,3.8V109.3z M186.4,101.1h-2.6v12
	h-3.3v-12h-2.8v-2.8h8.7V101.1z M159.8,107.9c0,3-1.5,3.8-4.9,3.8v1.5h-3.4v-1.5c-3.4,0-5-0.8-5-3.8v-4.6c0-3,1.5-3.8,5-3.8v-1.1
	h3.4v1.1c3.5,0,4.9,0.8,4.9,3.8V107.9z M128.4,101.1h-4.7v2.9h4.2v2.8h-4.2v3.5h4.7v2.8h-8.3V98.3h8.3V101.1z M99.7,113.2h-3.5v-6.5
	h-1.8v6.5H91V98.3h3.5v5.7h1.8v-5.7h3.5V113.2z M221.4,94.6H84.9v22.8h136.5V94.6z M149.9,103.1v4.7c0,0.9,0.3,1.1,1,1.1h0.6v-6.9
	h-0.6C150.2,102.1,149.9,102.3,149.9,103.1 M210.8,106.7h-0.8v3.9h0.8c0.8,0,1-0.2,1-1v-1.8C211.8,106.9,211.6,106.7,210.8,106.7
	 M155.4,102.1h-0.5v6.9h0.5c0.8,0,1.1-0.2,1.1-1.1v-4.8C156.4,102.2,156.1,102.1,155.4,102.1"/>
</svg>
